<svg width="45" height="40" viewBox="0 0 45 40" fill="none" xmlns="http://www.w3.org/2000/svg">
<path d="M14.8919 28V25.587H3.90991V23.782C3.90991 22.604 4.59391 21.996 5.88591 21.996H10.9019C13.5239 21.996 15.1199 20.343 15.1199 18.063C15.1199 15.84 13.6189 14.187 10.8829 14.187H1.74391V16.6H10.8829C11.9659 16.6 12.6309 17.246 12.6309 18.291C12.6309 19.336 11.9279 19.963 10.8829 19.963H5.88591C3.11191 19.963 1.62991 21.274 1.62991 23.953V28H14.8919ZM18.7526 28V16.6H28.0816V14.187H16.3586V28H18.7526ZM27.5116 22.281V20.172H20.5196V22.281H27.5116ZM44.2772 28L36.3162 14.776C36.0312 14.301 35.6892 13.997 35.1572 13.997C34.6252 13.997 34.2642 14.301 33.9792 14.776L26.0372 28H28.7922L35.0622 17.398L38.1402 22.566H33.9032L32.7632 24.523H39.2992L41.3702 28H44.2772Z" fill="url(#paint0_linear_101_2)"/>
<defs>
<linearGradient id="paint0_linear_101_2" x1="-3.35276e-07" y1="20" x2="45" y2="20" gradientUnits="userSpaceOnUse">
<stop stop-color="#FE813A"/>
<stop offset="1" stop-color="#FFAF48"/>
</linearGradient>
</defs>
</svg>
