<svg width="256" height="256" viewBox="0 0 256 256" fill="none" xmlns="http://www.w3.org/2000/svg">
<path d="M248.522 165.297L249.335 62.5138C249.342 61.6528 248.803 60.884 247.984 60.6165C229.06 54.4305 199.764 50.4745 167.38 48.1444C166.801 48.1028 166.307 48.561 166.307 49.1411V100.281C166.307 100.821 166.736 101.263 167.276 101.281C177.248 101.611 185.653 102.081 191.657 102.706C192.664 102.81 193.421 103.665 193.421 104.678V159.734C193.421 160.855 193.044 161.946 192.345 162.822C180.236 177.988 170.817 185.555 152.138 195.763C151.563 196.077 150.856 196.088 150.272 195.791C127.96 184.461 118.457 175.534 109.678 157.831C109.508 157.489 109.158 157.267 108.776 157.267H55.4525C54.9002 157.267 54.4525 157.715 54.4525 158.267V166C54.4525 168.53 54.9226 171.047 55.904 173.38C72.3483 212.465 95.156 228.881 149.723 255.356C150.551 255.758 151.555 255.755 152.381 255.351C213.615 225.383 235.705 208.066 247.648 170.897C248.228 169.091 248.507 167.194 248.522 165.297Z" fill="url(#paint0_linear_87_10)"/>
<path d="M192.345 162.822C180.234 177.99 170.815 185.557 152.132 195.767C151.561 196.079 150.858 196.091 150.276 195.799C129.303 185.3 120.199 177.567 109.661 158.9C109.304 158.268 108.632 157.867 107.906 157.867H60.4544C59.2553 157.867 58.3257 158.914 58.4686 160.105L60.6937 178.647C60.7371 179.009 60.8784 179.352 61.1024 179.639L93.789 221.545C93.9546 221.757 94.1615 221.934 94.3971 222.064L150.032 252.875C150.663 253.224 151.432 253.207 152.046 252.831L221.443 210.286C221.829 210.049 222.124 209.688 222.278 209.261L247.521 139.423C247.6 139.205 247.64 138.975 247.64 138.743V63.1462C247.64 62.1633 246.926 61.326 245.955 61.1712L169.704 49.0034C168.502 48.8116 167.409 49.7287 167.389 50.9456L166.589 99.7278C166.58 100.266 166.997 100.715 167.534 100.746C173.983 101.125 183.838 102.13 191.574 102.757C192.616 102.841 193.42 103.71 193.42 104.756L193.421 159.734C193.421 160.855 193.044 161.946 192.345 162.822Z" fill="url(#paint1_radial_87_10)"/>
<path d="M53.5118 2V45.1817L54.8225 97.6352L54.4239 143.049C54.4142 144.161 55.3124 145.067 56.4239 145.067H107.85C108.959 145.067 109.857 144.163 109.85 143.054L109.558 97.6352V45.1817V2C109.558 0.895431 108.662 0 107.558 0H55.5118C54.4072 0 53.5118 0.895432 53.5118 2Z" fill="url(#paint2_linear_87_10)"/>
<path d="M53.5118 47.1904L53.5118 15.7302L108.968 15.7302L109.4 47.1904L53.5118 47.1904Z" fill="url(#paint3_linear_87_10)"/>
<path d="M109.4 97.6432L109.4 129.337L54.7867 129.337L54.7867 94.72L109.4 97.6432Z" fill="url(#paint4_linear_87_10)"/>
<path d="M153.498 46.7041L110.757 46.3165L53.119 46.3165L9 46.3165C7.89543 46.3165 7 47.2119 7 48.3165L7 98.498C7 99.6026 7.89543 100.498 9 100.498L54.4063 100.498L109.863 100.498L153.48 100.498C154.585 100.498 155.48 99.6026 155.48 98.498L155.48 48.704C155.48 47.6065 154.596 46.714 153.498 46.7041Z" fill="url(#paint5_linear_87_10)"/>
<defs>
<linearGradient id="paint0_linear_87_10" x1="151.052" y1="122.144" x2="126.963" y2="262.749" gradientUnits="userSpaceOnUse">
<stop stop-color="#FFAF48"/>
<stop offset="1" stop-color="#FE813A"/>
</linearGradient>
<radialGradient id="paint1_radial_87_10" cx="0" cy="0" r="1" gradientUnits="userSpaceOnUse" gradientTransform="translate(164.013 139.947) rotate(25.71) scale(76.7146 65.1895)">
<stop stop-color="#FE813A"/>
<stop offset="1" stop-color="#FE813A" stop-opacity="0"/>
</radialGradient>
<linearGradient id="paint2_linear_87_10" x1="66.7333" y1="114.347" x2="87.464" y2="167.373" gradientUnits="userSpaceOnUse">
<stop stop-color="#FFAF48"/>
<stop offset="1" stop-color="#FE813A"/>
</linearGradient>
<linearGradient id="paint3_linear_87_10" x1="78.8633" y1="19.9816" x2="77.2073" y2="44.6017" gradientUnits="userSpaceOnUse">
<stop stop-color="#FFAF48" stop-opacity="0"/>
<stop offset="1" stop-color="#FE813A" stop-opacity="0.65"/>
</linearGradient>
<linearGradient id="paint4_linear_87_10" x1="84.8568" y1="122.525" x2="85.5751" y2="100.4" gradientUnits="userSpaceOnUse">
<stop stop-color="#FFAF48" stop-opacity="0"/>
<stop offset="1" stop-color="#FE813A"/>
</linearGradient>
<linearGradient id="paint5_linear_87_10" x1="94.8933" y1="64" x2="141.477" y2="147.725" gradientUnits="userSpaceOnUse">
<stop stop-color="#FFAF48"/>
<stop offset="1" stop-color="#FE813A"/>
</linearGradient>
</defs>
</svg>
