<svg width="36" height="36" viewBox="0 0 36 36" fill="none" xmlns="http://www.w3.org/2000/svg">
<path d="M3.2 35.75C2.4 35.75 1.70833 35.4583 1.125 34.875C0.541667 34.2916 0.25 33.6166 0.25 32.85V7.04998C0.25 6.54998 0.291667 6.12498 0.375 5.77498C0.458333 5.42498 0.633333 5.11664 0.9 4.84998L3.7 1.09998C3.96667 0.799976 4.26667 0.599976 4.6 0.499976C4.93333 0.399976 5.33333 0.349976 5.8 0.349976H30.25C30.7167 0.349976 31.1083 0.399976 31.425 0.499976C31.7417 0.599976 32.0333 0.799976 32.3 1.09998L35.1 4.84998C35.3667 5.11664 35.55 5.42498 35.65 5.77498C35.75 6.12498 35.8 6.54998 35.8 7.04998V32.85C35.8 33.6166 35.5 34.2916 34.9 34.875C34.3 35.4583 33.6167 35.75 32.85 35.75H3.2ZM3.95 5.49998H32L30.25 3.19998H5.75L3.95 5.49998ZM18 28.1L25.7 20.45L23.8 18.5L19.45 22.85V12.8H16.6V22.85L12.25 18.5L10.35 20.45L18 28.1Z" fill="url(#paint0_linear_22_37)"/>
<defs>
<linearGradient id="paint0_linear_22_37" x1="0.25" y1="18.05" x2="35.8" y2="18.05" gradientUnits="userSpaceOnUse">
<stop stop-color="#FE813A"/>
<stop offset="1" stop-color="#FFAF48"/>
</linearGradient>
</defs>
</svg>
