<svg width="110" height="18" viewBox="0 0 110 18" fill="none" xmlns="http://www.w3.org/2000/svg">
<path d="M8.98438 0.686544C9.30579 -0.228848 10.7018 -0.228848 11.0221 0.686544L12.6495 5.33209C12.7195 5.53135 12.8557 5.70498 13.0385 5.82815C13.2213 5.95132 13.4413 6.01773 13.6673 6.01789H18.933C19.9711 6.01789 20.4018 7.25034 19.5629 7.81687L15.3032 10.6873C15.1202 10.8107 14.9841 10.9847 14.9142 11.1843C14.8444 11.3839 14.8444 11.5989 14.9143 11.7985L16.5406 16.444C16.862 17.3604 15.7318 18.1217 14.8929 17.5552L10.6332 14.6848C10.4501 14.5613 10.2296 14.4948 10.0032 14.4948C9.7769 14.4948 9.55637 14.5613 9.37328 14.6848L5.11358 17.5552C4.27471 18.1217 3.14443 17.3594 3.46584 16.444L5.09215 11.7985C5.16209 11.5989 5.16213 11.3839 5.09227 11.1843C5.02241 10.9847 4.88623 10.8107 4.70325 10.6873L0.443551 7.81687C-0.396391 7.25034 0.0364362 6.01789 1.07351 6.01789H6.33814C6.56425 6.01794 6.78457 5.95163 6.96759 5.82845C7.1506 5.70526 7.2869 5.53152 7.357 5.33209L8.98438 0.686544V0.686544Z" fill="#FFA44B"/>
<path d="M31.4828 0.686537C31.8042 -0.228856 33.2002 -0.228856 33.5205 0.686537L35.1479 5.33208C35.218 5.53135 35.3541 5.70497 35.5369 5.82815C35.7197 5.95132 35.9398 6.01772 36.1657 6.01788H41.4314C42.4696 6.01788 42.9002 7.25033 42.0614 7.81686L37.8017 10.6873C37.6187 10.8107 37.4825 10.9847 37.4127 11.1843C37.3428 11.3839 37.3428 11.5989 37.4128 11.7985L39.0391 16.444C39.3605 17.3604 38.2302 18.1217 37.3913 17.5552L33.1316 14.6848C32.9486 14.5613 32.728 14.4948 32.5017 14.4948C32.2753 14.4948 32.0548 14.5613 31.8717 14.6848L27.612 17.5552C26.7732 18.1217 25.6429 17.3594 25.9643 16.444L27.5906 11.7985C27.6605 11.5989 27.6606 11.3839 27.5907 11.1843C27.5209 10.9847 27.3847 10.8107 27.2017 10.6873L22.942 7.81686C22.1021 7.25033 22.5349 6.01788 23.572 6.01788H28.8366C29.0627 6.01793 29.283 5.95162 29.466 5.82844C29.649 5.70525 29.7853 5.53151 29.8554 5.33208L31.4828 0.686537V0.686537Z" fill="#FFA44B"/>
<path d="M53.9812 0.686537C54.3026 -0.228856 55.6986 -0.228856 56.019 0.686537L57.6463 5.33208C57.7164 5.53135 57.8525 5.70497 58.0353 5.82815C58.2181 5.95132 58.4382 6.01772 58.6641 6.01788H63.9298C64.968 6.01788 65.3987 7.25033 64.5598 7.81686L60.3001 10.6873C60.1171 10.8107 59.9809 10.9847 59.9111 11.1843C59.8412 11.3839 59.8412 11.5989 59.9112 11.7985L61.5375 16.444C61.8589 17.3604 60.7286 18.1217 59.8898 17.5552L55.6301 14.6848C55.447 14.5613 55.2264 14.4948 55.0001 14.4948C54.7738 14.4948 54.5532 14.5613 54.3701 14.6848L50.1104 17.5552C49.2716 18.1217 48.1413 17.3594 48.4627 16.444L50.089 11.7985C50.1589 11.5989 50.159 11.3839 50.0891 11.1843C50.0193 10.9847 49.8831 10.8107 49.7001 10.6873L45.4404 7.81686C44.6005 7.25033 45.0333 6.01788 46.0704 6.01788H51.335C51.5611 6.01793 51.7814 5.95162 51.9644 5.82844C52.1475 5.70525 52.2838 5.53151 52.3539 5.33208L53.9812 0.686537V0.686537Z" fill="#FFA44B"/>
<path d="M76.4797 0.686537C76.8011 -0.228856 78.1971 -0.228856 78.5174 0.686537L80.1448 5.33208C80.2148 5.53135 80.351 5.70497 80.5338 5.82815C80.7166 5.95132 80.9366 6.01772 81.1626 6.01788H86.4283C87.4664 6.01788 87.8971 7.25033 87.0582 7.81686L82.7985 10.6873C82.6155 10.8107 82.4794 10.9847 82.4095 11.1843C82.3397 11.3839 82.3397 11.5989 82.4096 11.7985L84.0359 16.444C84.3573 17.3604 83.2271 18.1217 82.3882 17.5552L78.1285 14.6848C77.9454 14.5613 77.7249 14.4948 77.4985 14.4948C77.2722 14.4948 77.0517 14.5613 76.8686 14.6848L72.6089 17.5552C71.77 18.1217 70.6397 17.3594 70.9611 16.444L72.5875 11.7985C72.6574 11.5989 72.6574 11.3839 72.5876 11.1843C72.5177 10.9847 72.3815 10.8107 72.1986 10.6873L67.9389 7.81686C67.0989 7.25033 67.5317 6.01788 68.5688 6.01788H73.8334C74.0595 6.01793 74.2799 5.95162 74.4629 5.82844C74.6459 5.70525 74.7822 5.53151 74.8523 5.33208L76.4797 0.686537V0.686537Z" fill="#FFA44B"/>
<path d="M98.9781 0.686537C99.2995 -0.228856 100.695 -0.228856 101.016 0.686537L102.643 5.33208C102.713 5.53135 102.849 5.70497 103.032 5.82815C103.215 5.95132 103.435 6.01772 103.661 6.01788H108.927C109.965 6.01788 110.396 7.25033 109.557 7.81686L105.297 10.6873C105.114 10.8107 104.978 10.9847 104.908 11.1843C104.838 11.3839 104.838 11.5989 104.908 11.7985L106.534 16.444C106.856 17.3604 105.725 18.1217 104.887 17.5552L100.627 14.6848C100.444 14.5613 100.223 14.4948 99.997 14.4948C99.7706 14.4948 99.5501 14.5613 99.367 14.6848L95.1073 17.5552C94.2684 18.1217 93.1381 17.3594 93.4596 16.444L95.0859 11.7985C95.1558 11.5989 95.1558 11.3839 95.086 11.1843C95.0161 10.9847 94.8799 10.8107 94.697 10.6873L90.4373 7.81686C89.5973 7.25033 90.0301 6.01788 91.0672 6.01788H96.3319C96.558 6.01793 96.7783 5.95162 96.9613 5.82844C97.1443 5.70525 97.2806 5.53151 97.3507 5.33208L98.9781 0.686537V0.686537Z" fill="#FFA44B"/>
</svg>
