<svg width="103" height="60" viewBox="0 0 103 60" fill="none" xmlns="http://www.w3.org/2000/svg">
<path d="M8.38601 42.6908C8.68601 41.7697 9.98901 41.7697 10.288 42.6908L11.807 47.3647C11.8724 47.5652 11.9995 47.7399 12.1701 47.8639C12.3407 47.9878 12.5461 48.0546 12.757 48.0548H17.672C18.641 48.0548 19.043 49.2947 18.26 49.8647L14.284 52.7528C14.1132 52.8769 13.9861 53.052 13.9209 53.2528C13.8557 53.4536 13.8557 53.6699 13.921 53.8708L15.439 58.5448C15.739 59.4668 14.684 60.2328 13.901 59.6628L9.92501 56.7747C9.75412 56.6505 9.54828 56.5836 9.33701 56.5836C9.12574 56.5836 8.9199 56.6505 8.74901 56.7747L4.77301 59.6628C3.99001 60.2328 2.93501 59.4658 3.23501 58.5448L4.75301 53.8708C4.81829 53.6699 4.81833 53.4536 4.75312 53.2528C4.68791 53.052 4.5608 52.8769 4.39001 52.7528L0.414009 49.8647C-0.369991 49.2947 0.0340095 48.0548 1.00201 48.0548H5.91601C6.12706 48.0548 6.33271 47.9881 6.50353 47.8641C6.67435 47.7402 6.80158 47.5654 6.86701 47.3647L8.38601 42.6908V42.6908Z" fill="#FFA44B"/>
<path d="M29.386 42.6908C29.686 41.7697 30.989 41.7697 31.288 42.6908L32.807 47.3647C32.8724 47.5652 32.9995 47.7399 33.1701 47.8639C33.3407 47.9878 33.5461 48.0546 33.757 48.0548H38.672C39.641 48.0548 40.043 49.2947 39.26 49.8647L35.284 52.7528C35.1132 52.8769 34.9861 53.052 34.9209 53.2528C34.8557 53.4536 34.8557 53.6699 34.921 53.8708L36.439 58.5448C36.739 59.4668 35.684 60.2328 34.901 59.6628L30.925 56.7747C30.7541 56.6505 30.5483 56.5836 30.337 56.5836C30.1257 56.5836 29.9199 56.6505 29.749 56.7747L25.773 59.6628C24.99 60.2328 23.935 59.4658 24.235 58.5448L25.753 53.8708C25.8183 53.6699 25.8183 53.4536 25.7531 53.2528C25.6879 53.052 25.5608 52.8769 25.39 52.7528L21.414 49.8647C20.63 49.2947 21.034 48.0548 22.002 48.0548H26.916C27.1271 48.0548 27.3327 47.9881 27.5035 47.8641C27.6744 47.7402 27.8016 47.5654 27.867 47.3647L29.386 42.6908V42.6908Z" fill="#FFA44B"/>
<path d="M50.386 42.6908C50.686 41.7697 51.989 41.7697 52.288 42.6908L53.807 47.3647C53.8724 47.5652 53.9995 47.7399 54.1701 47.8639C54.3407 47.9878 54.5461 48.0546 54.757 48.0548H59.672C60.641 48.0548 61.043 49.2947 60.26 49.8647L56.284 52.7528C56.1132 52.8769 55.9861 53.052 55.9209 53.2528C55.8557 53.4536 55.8557 53.6699 55.921 53.8708L57.439 58.5448C57.739 59.4668 56.684 60.2328 55.901 59.6628L51.925 56.7747C51.7541 56.6505 51.5483 56.5836 51.337 56.5836C51.1257 56.5836 50.9199 56.6505 50.749 56.7747L46.773 59.6628C45.99 60.2328 44.935 59.4658 45.235 58.5448L46.753 53.8708C46.8183 53.6699 46.8183 53.4536 46.7531 53.2528C46.6879 53.052 46.5608 52.8769 46.39 52.7528L42.414 49.8647C41.63 49.2947 42.034 48.0548 43.002 48.0548H47.916C48.1271 48.0548 48.3327 47.9881 48.5035 47.8641C48.6744 47.7402 48.8016 47.5654 48.867 47.3647L50.386 42.6908V42.6908Z" fill="#FFA44B"/>
<path d="M71.386 42.6908C71.686 41.7697 72.989 41.7697 73.288 42.6908L74.807 47.3647C74.8724 47.5652 74.9995 47.7399 75.1701 47.8639C75.3407 47.9878 75.5461 48.0546 75.757 48.0548H80.672C81.641 48.0548 82.043 49.2947 81.26 49.8647L77.284 52.7528C77.1132 52.8769 76.9861 53.052 76.9209 53.2528C76.8557 53.4536 76.8557 53.6699 76.921 53.8708L78.439 58.5448C78.739 59.4668 77.684 60.2328 76.901 59.6628L72.925 56.7747C72.7541 56.6505 72.5483 56.5836 72.337 56.5836C72.1257 56.5836 71.9199 56.6505 71.749 56.7747L67.773 59.6628C66.99 60.2328 65.935 59.4658 66.235 58.5448L67.753 53.8708C67.8183 53.6699 67.8183 53.4536 67.7531 53.2528C67.6879 53.052 67.5608 52.8769 67.39 52.7528L63.414 49.8647C62.63 49.2947 63.034 48.0548 64.002 48.0548H68.916C69.1271 48.0548 69.3327 47.9881 69.5035 47.8641C69.6744 47.7402 69.8016 47.5654 69.867 47.3647L71.386 42.6908V42.6908Z" fill="#FFA44B"/>
<path d="M92.386 42.6908C92.686 41.7697 93.989 41.7697 94.288 42.6908L95.807 47.3647C95.8724 47.5652 95.9995 47.7399 96.1701 47.8639C96.3407 47.9878 96.5461 48.0546 96.757 48.0548H101.672C102.641 48.0548 103.043 49.2947 102.26 49.8647L98.284 52.7528C98.1132 52.8769 97.9861 53.052 97.9209 53.2528C97.8557 53.4536 97.8557 53.6699 97.921 53.8708L99.439 58.5448C99.739 59.4668 98.684 60.2328 97.901 59.6628L93.925 56.7747C93.7541 56.6505 93.5483 56.5836 93.337 56.5836C93.1257 56.5836 92.9199 56.6505 92.749 56.7747L88.773 59.6628C87.99 60.2328 86.935 59.4658 87.235 58.5448L88.753 53.8708C88.8183 53.6699 88.8183 53.4536 88.7531 53.2528C88.6879 53.052 88.5608 52.8769 88.39 52.7528L84.414 49.8647C83.63 49.2947 84.034 48.0548 85.002 48.0548H89.916C90.1271 48.0548 90.3327 47.9881 90.5035 47.8641C90.6744 47.7402 90.8016 47.5654 90.867 47.3647L92.386 42.6908V42.6908Z" fill="#FFA44B"/>
<path d="M66 15C66 23.286 59.286 30 51 30C42.714 30 36 23.286 36 15C36 6.714 42.714 0 51 0C59.286 0 66 6.72 66 15Z" fill="#FF492C"/>
<path d="M57.492 12.552H53.616V12.372C53.616 11.712 53.748 11.166 54.012 10.74C54.276 10.308 54.732 9.93 55.392 9.594L55.692 9.444C56.226 9.174 56.364 8.94 56.364 8.664C56.364 8.334 56.076 8.094 55.614 8.094C55.062 8.094 54.648 8.382 54.36 8.964L53.616 8.22C53.778 7.872 54.042 7.596 54.39 7.374C54.744 7.152 55.134 7.044 55.56 7.044C56.094 7.044 56.556 7.182 56.934 7.47C57.324 7.758 57.516 8.154 57.516 8.652C57.516 9.45 57.066 9.936 56.226 10.368L55.752 10.608C55.248 10.86 55.002 11.088 54.93 11.49H57.492V12.552V12.552ZM57.15 13.776H52.908L50.79 17.448H55.032L57.156 21.12L59.274 17.448L57.15 13.776ZM51.156 19.902C48.456 19.902 46.26 17.706 46.26 15.006C46.26 12.306 48.456 10.11 51.156 10.11L52.836 6.6C52.29 6.492 51.732 6.438 51.156 6.438C46.422 6.438 42.582 10.278 42.582 15.006C42.582 19.74 46.416 23.58 51.156 23.58C53.04 23.58 54.786 22.968 56.202 21.936L54.342 18.72C53.49 19.452 52.374 19.902 51.156 19.902Z" fill="white"/>
</svg>
