<svg width="598" height="598" viewBox="0 0 598 598" fill="none" xmlns="http://www.w3.org/2000/svg">
<path d="M306.96 14.7653L306.345 155.259C349.116 155.17 391.58 152.326 429.663 146.665C428.09 143.493 426.465 140.347 424.777 137.217C398.527 88.4411 359.247 45.6757 306.96 14.7637L306.96 14.7653Z" fill="url(#paint0_linear_1_3)"/>
<path d="M118.427 305.76L0.052002 305.244C1.177 363.952 19.2867 418.536 49.6667 464.284C50.1615 462.487 51.3749 460.894 53.1615 459.961C76.0255 447.826 107.375 438.44 143.479 431.721C127.52 391.549 119.181 348.7 118.427 305.757L118.427 305.76Z" fill="url(#paint1_linear_1_3)"/>
<path d="M446.933 446.253C443.657 453.399 440.126 460.461 436.366 467.42C408.006 519.644 365.439 565.3 308.767 597.789C386.694 595.201 457.1 562.727 508.874 511.429C520.124 500.273 530.488 488.232 539.858 475.408C538.514 475.512 537.16 475.252 535.91 474.559C513.842 462.46 482.863 453.043 446.936 446.252L446.933 446.253Z" fill="url(#paint2_linear_1_3)"/>
<path d="M435.96 160.013C395.944 166.232 351.22 169.362 306.293 169.482L305.757 292.383L464.704 293.076C464.068 247.451 454.485 201.988 435.964 160.014L435.96 160.013Z" fill="url(#paint3_linear_1_3)"/>
<path d="M285.893 597.693L285.826 597.683L285.873 597.714L285.893 597.693Z" fill="url(#paint4_linear_1_3)"/>
<path d="M168.933 145.44C207.007 151.43 249.433 154.69 292.147 155.216V155.195L292.761 14.7285C240.183 45.1765 200.543 87.6085 173.855 136.15C172.167 139.212 170.537 142.327 168.933 145.442L168.933 145.44Z" fill="url(#paint5_linear_1_3)"/>
<path d="M63.52 115.2C86.4 127.096 117.984 136.361 154.359 142.971C156.598 138.372 158.989 133.794 161.458 129.299C189.807 77.7573 232.108 32.8093 288.332 0.88266C210.447 3.51293 140.106 35.992 88.3723 87.2627C79.5182 96.0596 71.227 105.367 63.5176 115.2H63.52Z" fill="url(#paint6_linear_1_3)"/>
<path d="M291.547 292.307L292.083 169.405C247.203 168.853 202.52 165.291 162.567 158.707C143.619 200.535 133.619 245.962 132.603 291.614L291.547 292.307Z" fill="url(#paint7_linear_1_3)"/>
<path d="M157.747 429.267C198.679 422.636 244.747 419.256 290.997 419.126L291.492 306.553L132.599 305.86C133.349 347.953 141.734 390.005 157.749 429.267L157.747 429.267Z" fill="url(#paint8_linear_1_3)"/>
<path d="M159.413 466.227C155.71 459.274 152.288 452.205 149.096 445.049C113.153 451.508 82.0903 460.653 59.7729 472.476C58.5177 473.143 57.174 473.387 55.8511 473.283C65.1323 486.2 75.3924 498.31 86.5484 509.586C137.851 561.315 207.955 594.393 285.828 597.685C229.454 564.706 187.302 518.679 159.407 466.226L159.413 466.227Z" fill="url(#paint9_linear_1_3)"/>
<path d="M290.28 583.853L290.936 433.28C246.66 433.421 202.682 436.54 163.53 442.613C166.144 448.316 168.941 453.962 171.915 459.525C198.202 508.927 237.639 552.389 290.279 583.848L290.28 583.853Z" fill="url(#paint10_linear_1_3)"/>
<path d="M464.6 307.267L305.693 306.574L305.199 419.147C351.485 419.663 397.563 423.382 438.396 430.345C454.719 391.252 463.448 349.34 464.599 307.266L464.6 307.267Z" fill="url(#paint11_linear_1_3)"/>
<path d="M450.333 157.627C468.724 200.501 478.219 246.763 478.833 293.133L597.167 293.649C596.031 232.466 576.464 175.748 543.787 128.836C520.355 141.299 487.828 150.914 450.333 157.622V157.627Z" fill="url(#paint12_linear_1_3)"/>
<path d="M452.667 432.947C488.807 439.994 520.115 449.701 542.724 462.097C544.479 463.045 545.667 464.644 546.156 466.425C576.896 420.941 595.459 366.545 597.115 307.879L478.74 307.363C477.61 350.254 468.923 392.978 452.667 432.951L452.667 432.947Z" fill="url(#paint13_linear_1_3)"/>
<path d="M510.68 89.1067C459.404 37.3827 389.331 4.3 311.48 0.986664C367.428 33.3773 409.344 78.7213 437.235 130.503C439.709 135.055 442.026 139.68 444.276 144.315C480.787 138.044 512.454 129.003 535.298 117.232C527.688 107.362 519.459 97.9667 510.678 89.1067H510.68Z" fill="url(#paint14_linear_1_3)"/>
<path d="M148.2 156.187C110.867 149.129 78.4187 139.312 54.9547 126.687C21.8453 173.317 1.78267 229.875 0.121338 291.047L118.455 291.562C119.491 245.13 129.413 198.906 148.2 156.176V156.187Z" fill="url(#paint15_linear_1_3)"/>
<path d="M423.933 460.64C426.949 455.083 429.803 449.426 432.491 443.713C393.417 437.302 349.46 433.864 305.147 433.359L304.49 583.933C357.381 552.911 397.22 509.823 423.933 460.646L423.933 460.64Z" fill="url(#paint16_linear_1_3)"/>
<defs>
<linearGradient id="paint0_linear_1_3" x1="306.345" y1="85.0112" x2="429.663" y2="85.0112" gradientUnits="userSpaceOnUse">
<stop stop-color="#FE813A"/>
<stop offset="1" stop-color="#FFAF48"/>
</linearGradient>
<linearGradient id="paint1_linear_1_3" x1="0.0520009" y1="384.764" x2="143.479" y2="384.764" gradientUnits="userSpaceOnUse">
<stop stop-color="#FE813A"/>
<stop offset="1" stop-color="#FFAF48"/>
</linearGradient>
<linearGradient id="paint2_linear_1_3" x1="308.767" y1="522.021" x2="539.858" y2="522.021" gradientUnits="userSpaceOnUse">
<stop stop-color="#FE813A"/>
<stop offset="1" stop-color="#FFAF48"/>
</linearGradient>
<linearGradient id="paint3_linear_1_3" x1="305.757" y1="226.545" x2="464.704" y2="226.545" gradientUnits="userSpaceOnUse">
<stop stop-color="#FE813A"/>
<stop offset="1" stop-color="#FFAF48"/>
</linearGradient>
<linearGradient id="paint4_linear_1_3" x1="285.826" y1="597.699" x2="285.893" y2="597.699" gradientUnits="userSpaceOnUse">
<stop stop-color="#FE813A"/>
<stop offset="1" stop-color="#FFAF48"/>
</linearGradient>
<linearGradient id="paint5_linear_1_3" x1="168.933" y1="84.9722" x2="292.761" y2="84.9722" gradientUnits="userSpaceOnUse">
<stop stop-color="#FE813A"/>
<stop offset="1" stop-color="#FFAF48"/>
</linearGradient>
<linearGradient id="paint6_linear_1_3" x1="63.5176" y1="71.9267" x2="288.332" y2="71.9267" gradientUnits="userSpaceOnUse">
<stop stop-color="#FE813A"/>
<stop offset="1" stop-color="#FFAF48"/>
</linearGradient>
<linearGradient id="paint7_linear_1_3" x1="132.603" y1="225.507" x2="292.083" y2="225.507" gradientUnits="userSpaceOnUse">
<stop stop-color="#FE813A"/>
<stop offset="1" stop-color="#FFAF48"/>
</linearGradient>
<linearGradient id="paint8_linear_1_3" x1="132.599" y1="367.563" x2="291.492" y2="367.563" gradientUnits="userSpaceOnUse">
<stop stop-color="#FE813A"/>
<stop offset="1" stop-color="#FFAF48"/>
</linearGradient>
<linearGradient id="paint9_linear_1_3" x1="55.8511" y1="521.367" x2="285.828" y2="521.367" gradientUnits="userSpaceOnUse">
<stop stop-color="#FE813A"/>
<stop offset="1" stop-color="#FFAF48"/>
</linearGradient>
<linearGradient id="paint10_linear_1_3" x1="163.53" y1="508.567" x2="290.936" y2="508.567" gradientUnits="userSpaceOnUse">
<stop stop-color="#FE813A"/>
<stop offset="1" stop-color="#FFAF48"/>
</linearGradient>
<linearGradient id="paint11_linear_1_3" x1="305.199" y1="368.46" x2="464.6" y2="368.46" gradientUnits="userSpaceOnUse">
<stop stop-color="#FE813A"/>
<stop offset="1" stop-color="#FFAF48"/>
</linearGradient>
<linearGradient id="paint12_linear_1_3" x1="450.333" y1="211.242" x2="597.167" y2="211.242" gradientUnits="userSpaceOnUse">
<stop stop-color="#FE813A"/>
<stop offset="1" stop-color="#FFAF48"/>
</linearGradient>
<linearGradient id="paint13_linear_1_3" x1="452.667" y1="386.894" x2="597.115" y2="386.894" gradientUnits="userSpaceOnUse">
<stop stop-color="#FE813A"/>
<stop offset="1" stop-color="#FFAF48"/>
</linearGradient>
<linearGradient id="paint14_linear_1_3" x1="311.48" y1="72.6507" x2="535.298" y2="72.6507" gradientUnits="userSpaceOnUse">
<stop stop-color="#FE813A"/>
<stop offset="1" stop-color="#FFAF48"/>
</linearGradient>
<linearGradient id="paint15_linear_1_3" x1="0.121337" y1="209.124" x2="148.2" y2="209.124" gradientUnits="userSpaceOnUse">
<stop stop-color="#FE813A"/>
<stop offset="1" stop-color="#FFAF48"/>
</linearGradient>
<linearGradient id="paint16_linear_1_3" x1="304.49" y1="508.646" x2="432.491" y2="508.646" gradientUnits="userSpaceOnUse">
<stop stop-color="#FE813A"/>
<stop offset="1" stop-color="#FFAF48"/>
</linearGradient>
</defs>
</svg>
