<svg width="103" height="60" viewBox="0 0 103 60" fill="none" xmlns="http://www.w3.org/2000/svg">
<path d="M66 15.3375C66 14.35 65.9106 13.4125 65.7574 12.5H51.3257V18.1375H59.5888C59.2184 19.9875 58.1328 21.55 56.5236 22.6125V26.3625H61.4534C64.3397 23.75 66 19.9 66 15.3375Z" fill="#4285F4"/>
<path d="M51.3257 30C55.4636 30 58.9247 28.65 61.4534 26.3625L56.5236 22.6125C55.1443 23.5125 53.3946 24.0625 51.3257 24.0625C47.3282 24.0625 43.9438 21.425 42.7305 17.8625H37.6475V21.725C40.1635 26.625 45.3359 30 51.3257 30Z" fill="#34A853"/>
<path d="M42.7305 17.8625C42.4112 16.9625 42.2452 16 42.2452 15C42.2452 14 42.424 13.0375 42.7305 12.1375V8.275H37.6475C36.6003 10.3 36 12.575 36 15C36 17.425 36.6003 19.7 37.6475 21.725L42.7305 17.8625Z" fill="#FBBC05"/>
<path d="M51.3257 5.9375C53.5862 5.9375 55.6041 6.7 57.2005 8.1875L61.5683 3.9125C58.9247 1.4875 55.4636 0 51.3257 0C45.3359 0 40.1635 3.375 37.6475 8.275L42.7305 12.1375C43.9438 8.575 47.3282 5.9375 51.3257 5.9375Z" fill="#EA4335"/>
<path d="M8.38601 42.6908C8.68601 41.7697 9.98901 41.7697 10.288 42.6908L11.807 47.3647C11.8724 47.5652 11.9995 47.7399 12.1701 47.8639C12.3407 47.9878 12.5461 48.0546 12.757 48.0548H17.672C18.641 48.0548 19.043 49.2947 18.26 49.8647L14.284 52.7528C14.1132 52.8769 13.9861 53.052 13.9209 53.2528C13.8557 53.4536 13.8557 53.6699 13.921 53.8708L15.439 58.5448C15.739 59.4668 14.684 60.2328 13.901 59.6628L9.92501 56.7747C9.75412 56.6505 9.54828 56.5836 9.33701 56.5836C9.12574 56.5836 8.9199 56.6505 8.74901 56.7747L4.77301 59.6628C3.99001 60.2328 2.93501 59.4658 3.23501 58.5448L4.75301 53.8708C4.81829 53.6699 4.81833 53.4536 4.75312 53.2528C4.68791 53.052 4.5608 52.8769 4.39001 52.7528L0.414009 49.8647C-0.369991 49.2947 0.0340095 48.0548 1.00201 48.0548H5.91601C6.12706 48.0548 6.33271 47.9881 6.50353 47.8641C6.67435 47.7402 6.80158 47.5654 6.86701 47.3647L8.38601 42.6908V42.6908Z" fill="#FFA44B"/>
<path d="M29.386 42.6908C29.686 41.7697 30.989 41.7697 31.288 42.6908L32.807 47.3647C32.8724 47.5652 32.9995 47.7399 33.1701 47.8639C33.3407 47.9878 33.5461 48.0546 33.757 48.0548H38.672C39.641 48.0548 40.043 49.2947 39.26 49.8647L35.284 52.7528C35.1132 52.8769 34.9861 53.052 34.9209 53.2528C34.8557 53.4536 34.8557 53.6699 34.921 53.8708L36.439 58.5448C36.739 59.4668 35.684 60.2328 34.901 59.6628L30.925 56.7747C30.7541 56.6505 30.5483 56.5836 30.337 56.5836C30.1257 56.5836 29.9199 56.6505 29.749 56.7747L25.773 59.6628C24.99 60.2328 23.935 59.4658 24.235 58.5448L25.753 53.8708C25.8183 53.6699 25.8183 53.4536 25.7531 53.2528C25.6879 53.052 25.5608 52.8769 25.39 52.7528L21.414 49.8647C20.63 49.2947 21.034 48.0548 22.002 48.0548H26.916C27.1271 48.0548 27.3327 47.9881 27.5035 47.8641C27.6744 47.7402 27.8016 47.5654 27.867 47.3647L29.386 42.6908V42.6908Z" fill="#FFA44B"/>
<path d="M50.386 42.6908C50.686 41.7697 51.989 41.7697 52.288 42.6908L53.807 47.3647C53.8724 47.5652 53.9995 47.7399 54.1701 47.8639C54.3407 47.9878 54.5461 48.0546 54.757 48.0548H59.672C60.641 48.0548 61.043 49.2947 60.26 49.8647L56.284 52.7528C56.1132 52.8769 55.9861 53.052 55.9209 53.2528C55.8557 53.4536 55.8557 53.6699 55.921 53.8708L57.439 58.5448C57.739 59.4668 56.684 60.2328 55.901 59.6628L51.925 56.7747C51.7541 56.6505 51.5483 56.5836 51.337 56.5836C51.1257 56.5836 50.9199 56.6505 50.749 56.7747L46.773 59.6628C45.99 60.2328 44.935 59.4658 45.235 58.5448L46.753 53.8708C46.8183 53.6699 46.8183 53.4536 46.7531 53.2528C46.6879 53.052 46.5608 52.8769 46.39 52.7528L42.414 49.8647C41.63 49.2947 42.034 48.0548 43.002 48.0548H47.916C48.1271 48.0548 48.3327 47.9881 48.5035 47.8641C48.6744 47.7402 48.8016 47.5654 48.867 47.3647L50.386 42.6908V42.6908Z" fill="#FFA44B"/>
<path d="M71.386 42.6908C71.686 41.7697 72.989 41.7697 73.288 42.6908L74.807 47.3647C74.8724 47.5652 74.9995 47.7399 75.1701 47.8639C75.3407 47.9878 75.5461 48.0546 75.757 48.0548H80.672C81.641 48.0548 82.043 49.2947 81.26 49.8647L77.284 52.7528C77.1132 52.8769 76.9861 53.052 76.9209 53.2528C76.8557 53.4536 76.8557 53.6699 76.921 53.8708L78.439 58.5448C78.739 59.4668 77.684 60.2328 76.901 59.6628L72.925 56.7747C72.7541 56.6505 72.5483 56.5836 72.337 56.5836C72.1257 56.5836 71.9199 56.6505 71.749 56.7747L67.773 59.6628C66.99 60.2328 65.935 59.4658 66.235 58.5448L67.753 53.8708C67.8183 53.6699 67.8183 53.4536 67.7531 53.2528C67.6879 53.052 67.5608 52.8769 67.39 52.7528L63.414 49.8647C62.63 49.2947 63.034 48.0548 64.002 48.0548H68.916C69.1271 48.0548 69.3327 47.9881 69.5035 47.8641C69.6744 47.7402 69.8016 47.5654 69.867 47.3647L71.386 42.6908V42.6908Z" fill="#FFA44B"/>
<path d="M92.386 42.6908C92.686 41.7697 93.989 41.7697 94.288 42.6908L95.807 47.3647C95.8724 47.5652 95.9995 47.7399 96.1701 47.8639C96.3407 47.9878 96.5461 48.0546 96.757 48.0548H101.672C102.641 48.0548 103.043 49.2947 102.26 49.8647L98.284 52.7528C98.1132 52.8769 97.9861 53.052 97.9209 53.2528C97.8557 53.4536 97.8557 53.6699 97.921 53.8708L99.439 58.5448C99.739 59.4668 98.684 60.2328 97.901 59.6628L93.925 56.7747C93.7541 56.6505 93.5483 56.5836 93.337 56.5836C93.1257 56.5836 92.9199 56.6505 92.749 56.7747L88.773 59.6628C87.99 60.2328 86.935 59.4658 87.235 58.5448L88.753 53.8708C88.8183 53.6699 88.8183 53.4536 88.7531 53.2528C88.6879 53.052 88.5608 52.8769 88.39 52.7528L84.414 49.8647C83.63 49.2947 84.034 48.0548 85.002 48.0548H89.916C90.1271 48.0548 90.3327 47.9881 90.5035 47.8641C90.6744 47.7402 90.8016 47.5654 90.867 47.3647L92.386 42.6908V42.6908Z" fill="#FFA44B"/>
</svg>
