<?xml version="1.0" encoding="UTF-8"?> <svg xmlns:cc="http://creativecommons.org/ns#" xmlns:dc="http://purl.org/dc/elements/1.1/" xmlns:rdf="http://www.w3.org/1999/02/22-rdf-syntax-ns#" xmlns:svg="http://www.w3.org/2000/svg" xmlns="http://www.w3.org/2000/svg" xmlns:xlink="http://www.w3.org/1999/xlink" version="1.1" id="svg2" x="0px" y="0px" viewBox="0 0 782.5 205.3" style="enable-background:new 0 0 782.5 205.3;" xml:space="preserve"> <style type="text/css"> .st0{fill:#9CA3AF;} </style> <g id="g10" transform="matrix(1.3333333,0,0,-1.3333333,0,293.66)"> <g id="g12"> <g> <g id="g14"> <g id="g20" transform="translate(344.3979,71.0947)"> <path id="path22" class="st0" d="M-240,32.6c0,1.7-1.1,3-3.4,3.4v1.1c1.3,0,5.4-0.2,6.6-0.2c1,0,5.1,0.2,6.3,0.2V36 c-2.1-0.4-3.2-1.7-3.2-3.4V11c0-6.8,3.8-10.7,11.6-10.7c6.8,0,12,3,12,10.2v22.2c0,1.6-1,2.9-3.5,3.4v1.1 c0.9,0,4.4-0.2,5.6-0.2c1,0,4.6,0.2,5.6,0.2v-1.1c-2.4-0.6-3.5-1.7-3.5-3.4v-21c0-9.4-5.5-14.8-17.3-14.8 c-11,0-16.7,5-16.7,13.9v21.8H-240z"></path> </g> <g id="g24" transform="translate(391.6123,37.0596)"> <path id="path26" class="st0" d="M-240,32.6c2.6,0.5,3.6,1.8,3.6,3.4v29.8c0,2.5-1.3,3.7-3.6,4.3v1.1c1.3-0.1,3.5-0.2,4.6-0.2 c1,0,2.6,0,3.6,0.2l25.9-30.4v26c0,1.6-1,2.9-3.5,3.4v1.1c0.9,0,4.3-0.2,5.4-0.2c1,0,4.6,0.2,5.5,0.2v-1.1 c-2.5-0.6-3.7-1.7-3.7-3.4V30.9h-1.6c-1,0.2-2.8,1.3-5.7,4.4l-23.1,27V36c0-1.6,0.9-2.9,3.4-3.4v-1.1c-0.9,0-4.3,0.2-5.4,0.2 c-1,0-4.5-0.2-5.5-0.2v1.1H-240z"></path> </g> <g id="g28" transform="translate(595.7627,45.1035)"> <path id="path30" class="st0" d="M-240,32.6h1.1c0.6-2.2,1.9-4.3,3.6-5.4c1.9-1.3,4.8-1.9,7.1-1.9c5.2,0,8.5,2.6,8.5,6.7 c0,4.2-4.2,6.4-9.3,8.9c-3.8,1.9-11.2,5-11.2,12.2c0,6.7,5.1,10.8,13.2,10.8c5.4,0,7.9-1.3,11.5-1.1l-0.1-8.1h-1.1 c-1.4,4.8-5.8,6.4-10.5,6.4c-5.3,0-7.3-3-7.3-6.1c0-4.4,4.3-6.6,9.2-8.8c5.5-2.4,11.5-5.5,11.5-12.4c0-6.5-5.1-11.3-14.4-11.3 c-5.6,0-8.9,1.6-11.8,1.9V32.6z"></path> </g> <g id="g32" transform="translate(706.9463,52.375)"> <path id="path34" class="st0" d="M-240,32.6l-10.5,16.9c-1.8,3-3.2,4.5-5.2,5.3v1.1c1.4,0,5.3-0.2,6.4-0.2c1,0,5.2,0.2,6.7,0.2 v-1.1c-1.3-0.2-2-0.9-2-1.9c0-0.9,0.6-2,1.2-3.1c0.6-1,7.8-12.9,7.8-12.9l7.5,12.9c0.8,1.3,1.3,2.6,1.3,3.4 c0,0.8-0.5,1.4-1.8,1.6v1.1c1.3,0,3.9-0.2,4.8-0.2c0.8,0,3.9,0.2,5.2,0.2v-1c-2.9-1.2-4.7-3.7-6.4-6.6l-9.6-16 M-234,34.2V20.7 c0-1.3,1-3,3.3-3.4v-1.1c-1.3,0-5.5,0.2-6.7,0.2c-1,0-5-0.2-6.5-0.2v1.1c2.3,0.4,3.4,2.1,3.4,3.4v12.9"></path> </g> <g id="g36" transform="translate(511.2061,75.6426)"> <path id="path38" class="st0" d="M-240,32.6h24.7c0.8,0,2.1,0.1,2.9,0.4h1.1l-0.2-8h-1.1c-0.9,2.5-1.9,4.5-6.7,4.5H-230v-14 h8.3c1.2,0,2.7,0.1,3.3,0.3c1.9,0.4,2.7,1.4,3.1,3h1.1c-0.1-1.2-0.1-4-0.1-4.8s0.1-3.7,0.1-5h-1.1c-0.5,1.6-1.3,2.8-3.1,3.2 c-0.6,0.2-2.1,0.3-3.3,0.3h-8.3V-3.9h11.7c5.1,0,6.6,2.1,7.8,5.1l1.1-0.3l-1.1-8.2C-214.3-7-216.6-7-220.9-7h-12.3 c-1.2,0-5.5-0.2-6.8-0.2V-6c2.2,0.4,3.5,1.5,3.5,3.7V28c0,1.9-1,3.1-3.5,3.5V32.6z"></path> </g> <g id="g40" transform="translate(448.1152,70.8389)"> <path id="path42" class="st0" d="M-240,32.6c0,2-1.2,3.2-3.6,3.7v1.1c1.3,0,5.6-0.2,6.9-0.2c1,0,5.5,0.2,6.8,0.2v-1.1 c-2.4-0.5-3.6-1.5-3.6-3.7V2.5c0-2,1.2-3.1,3.6-3.6v-1.1c-1.3,0-5.6,0.2-6.8,0.2c-1.1,0-5.5-0.2-6.9-0.2v1.1 c2.4,0.5,3.6,1.5,3.6,3.6V32.6z"></path> </g> <g id="g44" transform="translate(635.5029,70.8389)"> <path id="path46" class="st0" d="M-240,32.6c0,2-1.2,3.2-3.6,3.7v1.1c1.3,0,5.6-0.2,6.9-0.2c1.1,0,5.5,0.2,6.8,0.2v-1.1 c-2.4-0.5-3.6-1.5-3.6-3.7V2.5c0-2,1.2-3.1,3.6-3.6v-1.1c-1.3,0-5.5,0.2-6.8,0.2c-1,0-5.5-0.2-6.9-0.2v1.1 c2.4,0.5,3.6,1.5,3.6,3.6V32.6z"></path> </g> <g id="g48" transform="translate(669.8379,75.4746)"> <path id="path50" class="st0" d="M-240,32.6c-13.5,0-15.7,0.3-18.5,0.4v-8.2h1.1c1,3.6,3,4.5,5.6,4.5h8.5V-2.2 c0-2.1-1.2-3.2-3.6-3.6v-1.1c1.3,0,5.8,0.2,6.9,0.2c1.2,0,5.5-0.2,6.8-0.2v1.1c-2.4,0.5-3.6,1.6-3.6,3.6v31.5h8.4 c2.7,0,4.7-0.9,5.7-4.5h1.1V33C-224.3,32.9-226.5,32.6-240,32.6"></path> </g> <g id="g52" transform="translate(561.7852,40.7061)"> <path id="path54" class="st0" d="M-240,32.6c0-2,1.3-3.1,3.7-3.6v-1.1c-1.3,0-5.7,0.2-6.9,0.2c-1.1,0-5.3-0.2-6.6-0.2V29 c2.2,0.4,3.5,1.5,3.5,3.6V63c0,1.9-1,3.1-3.5,3.5v1.1c1.3,0,5.5-0.2,6.7-0.2c1.9,0,7.4,0.3,9.6,0.3c9.5,0,14.8-3.9,14.8-10.7 c0-5.3-3.9-8.9-10-10.3c0,0,1.4-0.8,2.8-2.4c1.7-2,6.2-8.5,8.1-10.7c1.9-2.3,4.3-4.8,6.8-4.9v-0.9c-1.2-0.3-3.2-0.5-4.7-0.5 c-3.2,0-5.8,1.1-8.3,4.2c-2.2,2.6-5.8,8.1-8,10.9c-1.4,1.8-3.1,3.1-6.1,3.6c-0.6,0.1-1.2,0.2-1.8,0.3V32.6H-240z M-240,48.8 c1.3-0.2,3.1-0.3,5-0.3c7.4,0,9.8,4.3,9.8,8.1c0,5.4-3.6,8.7-10.1,8.7c-1.3,0-3.3-0.2-4.7-0.4V48.8z"></path> </g> <g id="g56" transform="translate(467.6963,70.7109)"> <path id="path58" class="st0" d="M-240,32.6c-0.9,1.9-2.2,3.3-4.5,3.8v1.1c1.4,0,6.3-0.2,7.4-0.2c1,0,5.2,0.2,6.7,0.2v-1.1 c-1.3-0.2-2.8-1-2.8-2.3c0-0.9,0.6-2.2,1.7-4.6l10.2-23.3l9.7,23.3c0.8,1.9,1.3,3.3,1.3,4.5s-1.1,2.1-2.7,2.4v1.1 c1.3,0,4.4-0.2,5.4-0.2c0.9,0,4.6,0.2,6,0.2v-1.1c-2.4-0.7-3.9-2-5.2-5.1L-221-2.3h-3.2L-240,32.6z"></path> </g> <g id="g60" transform="translate(504.2129,176.627)"> <path id="path62" class="st0" d="M-240,32.6c-1.6,3.6-4.2,6.3-8.4,7.2V42c2.7,0,11.5-0.3,13.5-0.3c1.9,0,10.4,0.3,13.2,0.3 v-2.1c-2.4-0.5-5.2-1.8-5.2-4.3c0-1.8,1.1-4.2,3.1-8.8l19.4-44.1l18.4,44.2c1.4,3.6,2.5,6.3,2.5,8.4c0,2.3-2.2,3.9-5.2,4.6V42 c2.4,0,8.3-0.3,10.2-0.3c1.7,0,8.7,0.3,11.4,0.3v-2c-4.6-1.2-7.4-3.9-9.9-9.8l-27-63.7h-6.1L-240,32.6z"></path> </g> <g id="g64" transform="translate(243.0513,112.9092)"> <path id="path66" class="st0" d="M-240,32.6c3.5,0.8,6,2.4,6,6.4v58.4c0,3.8-2.3,5.4-6,6.4v2.1c1.9,0,9.8-0.3,11.8-0.3 c2.2,0,10.6,0.3,12.4,0.3v-2.1c-3.5-0.8-6.1-2.4-6.1-6.4V73h43.5v24.4c0,4-2.3,5.6-6,6.4v2.1c1.8,0,10-0.3,12.3-0.3 c1.9,0,10.1,0.3,11.9,0.3v-2.1c-3.5-0.8-6.1-2.4-6.1-6.4V39c0-3.8,2.4-5.4,6.1-6.4v-1.9c-1.8,0-10,0.2-11.9,0.2 c-2.2,0-10.4-0.2-12.3-0.2v1.9c3.5,0.8,6,2.4,6,6.4v27.6h-43.5V39c0-4,2.4-5.4,6.1-6.4v-1.9c-1.8,0-10.2,0.2-12.4,0.2 c-1.9,0-9.9-0.2-11.8-0.2V32.6z"></path> </g> <g id="g68" transform="translate(745.9668,112.9092)"> <path id="path70" class="st0" d="M-240,32.6c4.5,0.8,7,2.6,7,6.7v58c0,4-2.5,5.6-6.8,6.4v2.1c2.5,0,10.7-0.3,13-0.3 c3.7,0,13.9,0.8,21.8,0.8c26.7,0,43-14.9,43-37.6c0-22.1-16.9-38.4-44.5-38.4c-8,0-17.4,0.6-21.1,0.6c-2.2,0-9.9-0.3-12.4-0.3 V32.6z M-221,36.5c2.7-0.5,7.8-0.8,11.7-0.8c22.5,0,34.2,13.5,34.2,32.4c0,19.6-12.3,33.3-33.3,33.3c-4.3,0-9.7-0.3-12.5-0.8 L-221,36.5L-221,36.5z"></path> </g> <g id="g72" transform="translate(443.2236,119.8364)"> <path id="path74" class="st0" d="M-240,32.6c0-3.9,2.4-6,7-6.9v-2.1c-2.5,0-10.7,0.3-13,0.3c-2,0-10-0.3-12.5-0.3v2.1 c4.2,0.8,6.7,2.9,6.7,6.9v57.6c0,3.5-1.9,5.8-6.6,6.6v2.1c2.5,0,10.4-0.3,12.7-0.3c3.7,0,14.1,0.6,18.2,0.6 c18,0,28-7.4,28-20.2c0-10-7.5-16.8-18.9-19.6c0,0,2.6-1.5,5.2-4.6c3.2-3.7,11.9-16.3,15.5-20.6c3.5-4.3,8.1-9.1,12.9-9.3v-1.7 c-2.3-0.5-6.1-0.9-8.9-0.9c-6.1,0-11,2.1-15.7,7.9c-4.1,5-11.2,15.6-15.3,20.8c-2.6,3.3-5.8,5.9-11.6,6.9 c-1.1,0.2-2.2,0.3-3.5,0.5V32.6H-240z M-240,63.2c2.4-0.3,5.9-0.5,9.4-0.5c14.1,0,18.5,8.1,18.5,15.3 c0,10.2-6.8,16.4-19.1,16.4c-2.5,0-6.2-0.3-8.8-0.8L-240,63.2L-240,63.2z"></path> </g> <g id="g76" transform="translate(680.293,119.8364)"> <path id="path78" class="st0" d="M-240,32.6c0-3.9,2.5-6,7-6.9v-2.1c-2.5,0-10.7,0.3-13,0.3c-2,0-10-0.3-12.5-0.3v2.1 c4.2,0.8,6.6,2.9,6.6,6.9v57.6c0,3.5-1.9,5.8-6.6,6.6v2.1c2.5,0,10.4-0.3,12.7-0.3c3.7,0,14.1,0.6,18.2,0.6 c18,0,28-7.4,28-20.2c0-10-7.5-16.8-18.9-19.6c0,0,2.6-1.5,5.2-4.6c3.2-3.7,12-16.3,15.5-20.6c3.6-4.3,8.1-9.1,12.9-9.3v-1.7 c-2.3-0.5-6-0.9-8.9-0.9c-6.1,0-11,2.1-15.8,7.9c-4.1,5-11.2,15.6-15.3,20.8c-2.6,3.3-5.8,5.9-11.5,6.9 c-1.2,0.2-2.2,0.3-3.5,0.5L-240,32.6L-240,32.6z M-240,63.2c2.4-0.3,5.9-0.5,9.4-0.5c14.1,0,18.5,8.1,18.5,15.3 c0,10.2-6.8,16.4-19.1,16.4c-2.6,0-6.2-0.3-8.8-0.8L-240,63.2L-240,63.2z"></path> </g> <g id="g80" transform="translate(334.1992,112.9229)"> <path id="path82" class="st0" d="M-240,32.6c4.8,1.1,7.4,4.2,9.1,8.3l24.1,57.9c1,2.4,2.2,7.3,2.2,7.3h6.7c0,0,1.2-4.9,2.2-7.3 l25.4-58.1c1.8-4,3.8-6.9,8.8-8.2v-1.9c-2.8,0-11.3,0.2-13.3,0.2c-1.9,0-10.1-0.2-12.9-0.2v1.9c3.7,0.9,4.9,2.8,4.9,4.6 c0,1.5-0.6,3.3-1.4,5.1l-5.5,12.5h-28l-5-12.5c-0.6-1.4-1.2-3.4-1.2-4.8c0-2.1,1.1-3.8,5.3-4.9v-1.9c-2.5,0-9.1,0.2-10.6,0.2 l-10.9-0.2L-240,32.6z M-192.1,60.7l-12,27.9l-11.2-27.9C-215.3,60.7-192.1,60.7-192.1,60.7z"></path> </g> <g id="g84" transform="translate(572.7559,112.9229)"> <path id="path86" class="st0" d="M-240,32.6c4.8,1.1,7.4,4.2,9.1,8.3l24.1,57.9c1,2.4,2.2,7.3,2.2,7.3h6.7c0,0,1.2-4.9,2.2-7.3 l25.5-58.1c1.8-4,3.8-6.9,8.8-8.2v-1.9c-2.7,0-11.3,0.2-13.3,0.2c-1.9,0-10.1-0.2-12.9-0.2v1.9c3.7,0.9,4.9,2.8,4.9,4.6 c0,1.5-0.6,3.3-1.4,5.1l-5.5,12.5h-28l-5-12.5c-0.6-1.4-1.2-3.4-1.2-4.8c0-2.1,1.1-3.8,5.3-4.9v-1.9c-2.5,0-9.1,0.2-10.6,0.2 l-10.9-0.2L-240,32.6z M-192.1,60.7l-12,27.9l-11.1-27.9C-215.2,60.7-192.1,60.7-192.1,60.7z"></path> </g> </g> </g> </g> </g> </svg> 