<?xml version="1.0" encoding="UTF-8"?> <svg xmlns="http://www.w3.org/2000/svg" xmlns:xlink="http://www.w3.org/1999/xlink" version="1.1" id="Layer_1" x="0px" y="0px" viewBox="0 0 2124.6 477.2" style="enable-background:new 0 0 2124.6 477.2;" xml:space="preserve"> <style type="text/css"> .st0{fill:#9CA3AF;} </style> <path class="st0" d="M1159.9,155.7h47.3v131.6c0,66.8-36.8,105.1-100.9,105.1c-63.5,0-99.9-37.6-99.9-103.3V155.8h47.3v131.7 c0,39,19.2,59.8,53.3,59.8s53-20.3,53-58.1L1159.9,155.7z M893.4,249.6H786.5v-93.9h-47.3v233.2h47.3v-94.8h106.8v94.8h47.3V155.7 h-47.3v93.9H893.4z M2078,155.7v232.9h46.6V155.7H2078z M1892.3,288.4h86.1v-42.5h-86.1v-47.8h124.9v-42.3h-171.6v232.9h176.1v-42.5 h-129.4V288.4z M1706.7,315.9l-53-160.4h-38.6l-53,160.4l-51.5-160.2h-50.3l81.3,233h39.1l53-153.1l53,153.1h39.5l81.1-233h-49.1 L1706.7,315.9z M1376.3,157L1478,388.7h-49.6l-21-48.5h-106.8l-1.5,3.3l-19.7,45.1h-48.3l102.8-233h41.3L1376.3,157z M1387.6,292.6 l-33.6-78.1l-33.5,78.1l-2.3,5.3h71.6L1387.6,292.6z"></path> <path class="st0" d="M273.5,364c0.7-0.5,0.8-1.5,0.5-2.3C228.1,263,170.8,170,103.3,84.6c0,0-53.6,51-49.8,102.1 c1.8,23.8,13,45.9,31.1,61.5c46.8,45.6,160.1,103.3,186.4,116.4C271.8,364.9,272.8,364.7,273.5,364 M256,403c-0.3-1-1.3-1.7-2.5-1.7 L65,407.8c20.5,36.5,55,64.8,90.8,56.1c24.8-6.2,80.8-45.3,99.3-58.6C256.5,404.2,256,403.2,256,403 M258.8,386.2 c1-1.5-0.7-2.8-0.7-2.8c-82.8-56-243.3-141.9-243.3-141.9C-4.3,300,27.7,363,86.3,382.2c9.4,3.1,19.2,4.9,29.1,5.4 c2.8,0.5,112.1,0,141.4-0.2C257.7,387.2,258.3,386.9,258.8,386.2 M271.3,3.1C263.2,3.8,241,8.9,241,8.9 c-50,12.8-61.8,58.3-61.8,58.3c-9.2,28.5,0.2,60,0.2,60c16.7,74,98.6,195.7,116.3,221.2c1.2,1.3,2.2,0.8,2.2,0.8 c1-0.3,1.8-1.2,1.8-2.3C326.9,75.1,271.3,3.1,271.3,3.1 M333.8,348.9c1,0.3,2.2,0,2.7-1C354.6,321.7,436,200.6,452.7,127 c0,0,9-35.6,0.3-60c0,0-12.3-46.1-62.3-58.3c0,0-14.3-3.7-29.6-5.8c0,0-56,72-28.6,343.8C332.3,347.7,332.9,348.5,333.8,348.9 M378.4,401.5c-0.9,0.2-1.7,0.7-2.2,1.5c-0.2,1,0,1.8,0.7,2.5c18,13,72.8,51.3,99.1,58.6c0,0,48.8,16.7,91.1-56.1L378.4,401.5z M617.4,241.1c0,0-160.2,86.1-243.2,142.1c-0.8,0.7-1.3,1.7-1,2.7c0,0,0.8,1.5,2,1.5c29.6,0,141.9,0.2,144.9-0.3 c11.2-0.8,22.2-3.3,32.5-7.5c0,0,40-12.7,60.6-58.1C613.3,321.4,631.8,284.4,617.4,241.1 M359.1,364c0.7,0.5,1.7,0.7,2.5,0.2 c27-13.5,139.4-70.6,185.9-116.1c0,0,29.5-23.7,31-61.8c3.3-52.8-49.8-101.8-49.8-101.8S430.4,203.6,358.3,361 C358,362.1,358.3,363.2,359.1,364"></path> </svg> 