<?xml version="1.0" encoding="UTF-8"?> <svg xmlns="http://www.w3.org/2000/svg" xmlns:xlink="http://www.w3.org/1999/xlink" version="1.1" id="Layer_1" x="0px" y="0px" viewBox="0 0 2500 327" style="enable-background:new 0 0 2500 327;" xml:space="preserve"> <style type="text/css"> .st0{fill:#9CA3AF;} </style> <path class="st0" d="M1079.3,211.3h165.1l-87.3-140.5l-160.2,254H924l194.9-305.1c8.5-12.3,22.6-19.8,38.3-19.8 c15.1,0,29.3,7.2,37.5,19.3l195.7,305.6h-72.9l-34.4-56.8h-167.2L1079.3,211.3L1079.3,211.3z M1836.9,268.1V3.1H1775v291 c0,8,3.1,15.7,9,21.6s13.9,9.2,22.6,9.2h282.2l36.5-56.8L1836.9,268.1L1836.9,268.1z M813,220.6c60.1,0,108.9-48.5,108.9-108.6 S873.1,3.1,813,3.1H542.3v321.8h61.9v-265H809c28.8,0,51.9,23.4,51.9,52.1c0,28.8-23.1,52.1-51.9,52.1l-174.5-0.3l184.7,161h89.9 L784.8,220.6H813L813,220.6z M161.5,324.8C72.7,324.8,0.6,252.9,0.6,164S72.7,3,161.5,3h187c88.8,0,160.9,72.2,160.9,161 c0,88.9-72,160.8-160.9,160.8H161.5L161.5,324.8z M344.3,268.1c57.5,0,104.2-46.5,104.2-104S401.9,59.8,344.3,59.8H165.6 c-57.5,0-104.2,46.7-104.2,104.3c0,57.5,46.6,104,104.2,104H344.3L344.3,268.1z M1519.5,324.8c-88.8,0-161-71.9-161-160.8 s72.2-161,161-161h222.1l-36.2,56.8h-181.8c-57.5,0-104.3,46.7-104.3,104.3c0,57.5,46.7,104,104.3,104h223.2l-36.5,56.8 L1519.5,324.8L1519.5,324.8z M2276.3,268.1c-47.5,0-87.8-31.8-100.1-75.8h264.5l36.5-56.8h-301c12.3-43.7,52.6-75.8,100.1-75.8 h181.6l36.7-56.8h-222.4c-88.9,0-161,72.2-161,161c0,88.9,72.2,160.8,161,160.8H2463l36.5-56.7h-223.2V268.1z"></path> </svg> 