<svg width="365" height="60" viewBox="0 0 365 60" fill="none" xmlns="http://www.w3.org/2000/svg">
<path d="M57.4283 27.4285C58.8485 28.8486 58.8485 31.1512 57.4283 32.5713L51.8569 38.1428C50.4368 39.5629 48.1342 39.5629 46.7141 38.1428L21.857 13.2857C20.4368 11.8655 20.4368 9.56297 21.857 8.14281L27.4284 2.57139C28.8485 1.15123 31.1511 1.15123 32.5712 2.57139L57.4283 27.4285Z" fill="url(#paint0_linear_48_108)"/>
<path d="M32.5712 57.4284C31.1511 58.8486 28.8485 58.8486 27.4284 57.4284L21.857 51.857C20.4368 50.4369 20.4368 48.1343 21.857 46.7142L46.7141 21.8571C48.1342 20.4369 50.4368 20.4369 51.8569 21.8571L57.4283 27.4285C58.8485 28.8486 58.8485 31.1512 57.4283 32.5713L32.5712 57.4284Z" fill="url(#paint1_linear_48_108)"/>
<path d="M40.1296 32.7272L35.887 32.7272C35.887 32.7272 37.1425 31.0219 37.0712 29.7856C37.0087 28.7025 35.887 27.2724 35.887 27.2724L40.1296 27.2724L40.1296 32.7272Z" fill="url(#paint2_linear_48_108)"/>
<path d="M2.57179 32.5713C1.15163 31.1512 1.15163 28.8486 2.57179 27.4285L8.14321 21.8571C9.56337 20.4369 11.8659 20.4369 13.2861 21.8571L38.1432 46.7142C39.5633 48.1343 39.5633 50.4369 38.1432 51.857L32.5717 57.4284C31.1516 58.8486 28.849 58.8486 27.4289 57.4284L2.57179 32.5713Z" fill="url(#paint3_linear_48_108)"/>
<path d="M27.4289 2.57139C28.8491 1.15123 31.1516 1.15123 32.5717 2.57139L38.1432 8.14281C39.5633 9.56297 39.5633 11.8655 38.1432 13.2857L13.2861 38.1428C11.8659 39.5629 9.56337 39.5629 8.14321 38.1428L2.57179 32.5713C1.15163 31.1512 1.15163 28.8486 2.57179 27.4285L27.4289 2.57139Z" fill="url(#paint4_linear_48_108)"/>
<path d="M19.8705 27.2726L24.1132 27.2726C24.1132 27.2726 22.8576 28.9779 22.9289 30.2142C22.9914 31.2974 24.1132 32.7274 24.1132 32.7274L19.8705 32.7274L19.8705 27.2726Z" fill="url(#paint5_linear_48_108)"/>
<path d="M233.66 52.555H225.47L229.88 29.56H221.375L222.815 22.63H247.97L246.575 29.56H238.07L233.66 52.555Z" fill="url(#paint6_linear_48_108)"/>
<path d="M262.169 53.185C259.619 53.185 257.249 52.705 255.059 51.745C252.869 50.785 251.039 49.255 249.569 47.155C248.129 45.025 247.409 42.49 247.409 39.55C247.409 34.57 249.044 30.4 252.314 27.04C255.584 23.68 259.784 22 264.914 22C268.904 22 272.309 23.215 275.129 25.645C277.979 28.045 279.404 31.33 279.404 35.5C279.404 40.45 277.799 44.635 274.589 48.055C271.409 51.475 267.269 53.185 262.169 53.185ZM262.394 46.21C265.004 46.21 267.089 45.205 268.649 43.195C270.209 41.155 270.989 38.635 270.989 35.635C270.989 33.535 270.434 31.9 269.324 30.73C268.214 29.53 266.654 28.93 264.644 28.93C262.064 28.93 259.964 29.935 258.344 31.945C256.724 33.955 255.914 36.445 255.914 39.415C255.914 41.515 256.484 43.18 257.624 44.41C258.764 45.61 260.354 46.21 262.394 46.21Z" fill="url(#paint7_linear_48_108)"/>
<path d="M296.798 53.185C294.248 53.185 291.878 52.705 289.688 51.745C287.498 50.785 285.668 49.255 284.198 47.155C282.758 45.025 282.038 42.49 282.038 39.55C282.038 34.57 283.673 30.4 286.943 27.04C290.213 23.68 294.413 22 299.543 22C303.533 22 306.938 23.215 309.758 25.645C312.608 28.045 314.033 31.33 314.033 35.5C314.033 40.45 312.428 44.635 309.218 48.055C306.038 51.475 301.898 53.185 296.798 53.185ZM297.023 46.21C299.633 46.21 301.718 45.205 303.278 43.195C304.838 41.155 305.618 38.635 305.618 35.635C305.618 33.535 305.063 31.9 303.953 30.73C302.843 29.53 301.283 28.93 299.273 28.93C296.693 28.93 294.593 29.935 292.973 31.945C291.353 33.955 290.543 36.445 290.543 39.415C290.543 41.515 291.113 43.18 292.253 44.41C293.393 45.61 294.983 46.21 297.023 46.21Z" fill="url(#paint8_linear_48_108)"/>
<path d="M335.072 52.555H315.452L321.257 22.63H329.492L324.992 45.625H336.422L335.072 52.555Z" fill="url(#paint9_linear_48_108)"/>
<path d="M337.974 50.8L339.324 44.095C342.504 45.745 345.729 46.57 348.999 46.57C351.999 46.57 353.499 45.61 353.499 43.69C353.499 43.18 353.289 42.745 352.869 42.385C352.449 42.025 351.699 41.575 350.619 41.035L347.874 39.595C346.014 38.665 344.589 37.63 343.599 36.49C342.609 35.32 342.114 33.865 342.114 32.125C342.114 28.825 343.344 26.35 345.804 24.7C348.294 23.02 351.414 22.18 355.164 22.18C358.254 22.18 361.389 22.765 364.569 23.935L363.264 30.415C360.444 29.245 357.789 28.66 355.299 28.66C352.509 28.66 351.114 29.56 351.114 31.36C351.114 31.93 351.324 32.395 351.744 32.755C352.194 33.115 352.929 33.535 353.949 34.015L356.469 35.185C360.609 37.105 362.679 39.565 362.679 42.565C362.679 44.995 362.019 47.02 360.699 48.64C359.379 50.26 357.699 51.415 355.659 52.105C353.649 52.765 351.324 53.095 348.684 53.095C344.544 53.095 340.974 52.33 337.974 50.8Z" fill="url(#paint10_linear_48_108)"/>
<path d="M114.081 52H100.949L97.2638 41.481C96.5492 39.3817 95.8792 38.0194 95.2538 37.394C94.3605 36.456 92.7972 35.987 90.5638 35.987H88.0178L84.9358 52H72.7418L81.3848 7.31102C91.2562 7.17702 97.0405 7.11002 98.7378 7.11002C104.589 7.11002 108.676 7.86936 110.999 9.38802C114.125 11.398 115.689 14.346 115.689 18.232C115.689 20.8227 115.019 23.2124 113.679 25.401C112.383 27.5897 110.485 29.3764 107.984 30.761C106.599 31.4757 105.326 31.9224 104.165 32.101C105.594 32.637 106.711 33.441 107.515 34.513C108.274 35.6744 109.011 37.26 109.726 39.27L114.081 52ZM89.8268 26.942H95.3878C97.3978 26.942 98.9612 26.5847 100.078 25.87C101.909 24.5747 102.825 22.8104 102.825 20.577C102.825 19.237 102.333 18.2544 101.351 17.629C100.413 17.0037 98.9835 16.691 97.0628 16.691L91.7698 16.892L89.8268 26.942Z" fill="url(#paint11_linear_48_108)"/>
<path d="M119.136 52L127.846 7.44502C133.34 7.31102 138.611 7.24402 143.658 7.24402C148.616 7.24402 152.681 7.91402 155.852 9.25402C159.158 10.6387 161.793 12.7604 163.758 15.619C165.724 18.4777 166.706 21.8724 166.706 25.803C166.706 37.5057 161.525 45.4787 151.162 49.722C147.366 51.2407 141.916 52 134.814 52H119.136ZM133.34 41.682H138.7C142.631 41.682 145.557 41.146 147.477 40.074C151.899 37.528 154.11 32.8604 154.11 26.071C154.11 20.3537 150.716 17.495 143.926 17.495C143.346 17.495 142.274 17.5397 140.71 17.629C139.147 17.6737 138.231 17.696 137.963 17.696L133.34 41.682Z" fill="url(#paint12_linear_48_108)"/>
<path d="M166.99 49.387L169 39.404C173.735 41.8607 178.536 43.089 183.405 43.089C187.872 43.089 190.105 41.6597 190.105 38.801C190.105 38.0417 189.792 37.394 189.167 36.858C188.542 36.322 187.425 35.652 185.817 34.848L181.73 32.704C178.961 31.3194 176.839 29.7784 175.365 28.081C173.891 26.339 173.154 24.1727 173.154 21.582C173.154 16.6687 174.985 12.9837 178.648 10.527C182.355 8.02569 187.001 6.77502 192.584 6.77502C197.185 6.77502 201.852 7.64602 206.587 9.38802L204.644 19.036C200.445 17.294 196.492 16.423 192.785 16.423C188.631 16.423 186.554 17.763 186.554 20.443C186.554 21.2917 186.867 21.984 187.492 22.52C188.162 23.056 189.256 23.6814 190.775 24.396L194.527 26.138C200.691 28.9967 203.773 32.6594 203.773 37.126C203.773 40.744 202.79 43.759 200.825 46.171C198.86 48.583 196.358 50.3027 193.321 51.33C190.328 52.3127 186.867 52.804 182.936 52.804C176.772 52.804 171.457 51.665 166.99 49.387Z" fill="url(#paint13_linear_48_108)"/>
<defs>
<linearGradient id="paint0_linear_48_108" x1="41.8757" y1="42.0626" x2="26.5688" y2="26.7557" gradientUnits="userSpaceOnUse">
<stop stop-color="#A8A8A8"/>
<stop offset="1" stop-color="#7A7A7A"/>
</linearGradient>
<linearGradient id="paint1_linear_48_108" x1="41.8757" y1="42.0626" x2="26.5688" y2="26.7557" gradientUnits="userSpaceOnUse">
<stop stop-color="#A8A8A8"/>
<stop offset="1" stop-color="#7A7A7A"/>
</linearGradient>
<linearGradient id="paint2_linear_48_108" x1="41.8757" y1="42.0626" x2="26.5688" y2="26.7557" gradientUnits="userSpaceOnUse">
<stop stop-color="#A8A8A8"/>
<stop offset="1" stop-color="#7A7A7A"/>
</linearGradient>
<linearGradient id="paint3_linear_48_108" x1="19.3874" y1="19.5867" x2="38.9364" y2="39.1356" gradientUnits="userSpaceOnUse">
<stop stop-color="#48BDFF"/>
<stop offset="1" stop-color="#3A88FE"/>
</linearGradient>
<linearGradient id="paint4_linear_48_108" x1="19.3874" y1="19.5867" x2="38.9364" y2="39.1356" gradientUnits="userSpaceOnUse">
<stop stop-color="#48BDFF"/>
<stop offset="1" stop-color="#3A88FE"/>
</linearGradient>
<linearGradient id="paint5_linear_48_108" x1="19.3874" y1="19.5867" x2="38.9364" y2="39.1356" gradientUnits="userSpaceOnUse">
<stop stop-color="#48BDFF"/>
<stop offset="1" stop-color="#3A88FE"/>
</linearGradient>
<linearGradient id="paint6_linear_48_108" x1="293.418" y1="25.1504" x2="293.418" y2="41.062" gradientUnits="userSpaceOnUse">
<stop stop-color="#A8A8A8"/>
<stop offset="1" stop-color="#7A7A7A"/>
</linearGradient>
<linearGradient id="paint7_linear_48_108" x1="293.418" y1="25.1504" x2="293.418" y2="41.062" gradientUnits="userSpaceOnUse">
<stop stop-color="#A8A8A8"/>
<stop offset="1" stop-color="#7A7A7A"/>
</linearGradient>
<linearGradient id="paint8_linear_48_108" x1="293.418" y1="25.1504" x2="293.418" y2="41.062" gradientUnits="userSpaceOnUse">
<stop stop-color="#A8A8A8"/>
<stop offset="1" stop-color="#7A7A7A"/>
</linearGradient>
<linearGradient id="paint9_linear_48_108" x1="293.418" y1="25.1504" x2="293.418" y2="41.062" gradientUnits="userSpaceOnUse">
<stop stop-color="#A8A8A8"/>
<stop offset="1" stop-color="#7A7A7A"/>
</linearGradient>
<linearGradient id="paint10_linear_48_108" x1="293.418" y1="25.1504" x2="293.418" y2="41.062" gradientUnits="userSpaceOnUse">
<stop stop-color="#A8A8A8"/>
<stop offset="1" stop-color="#7A7A7A"/>
</linearGradient>
<linearGradient id="paint11_linear_48_108" x1="139.219" y1="13.6593" x2="139.219" y2="43.6533" gradientUnits="userSpaceOnUse">
<stop stop-color="#48BDFF"/>
<stop offset="1" stop-color="#3A88FE"/>
</linearGradient>
<linearGradient id="paint12_linear_48_108" x1="139.219" y1="13.6593" x2="139.219" y2="43.6533" gradientUnits="userSpaceOnUse">
<stop stop-color="#48BDFF"/>
<stop offset="1" stop-color="#3A88FE"/>
</linearGradient>
<linearGradient id="paint13_linear_48_108" x1="139.219" y1="13.6593" x2="139.219" y2="43.6533" gradientUnits="userSpaceOnUse">
<stop stop-color="#48BDFF"/>
<stop offset="1" stop-color="#3A88FE"/>
</linearGradient>
</defs>
</svg>
