<svg width="851" height="60" viewBox="0 0 851 60" fill="none" xmlns="http://www.w3.org/2000/svg">
<path d="M40.7261 50.8911H27.7888L24.1584 40.5281C23.4543 38.4598 22.7943 37.1177 22.1782 36.5016C21.2981 35.5776 19.758 35.1155 17.5578 35.1155H15.0495L12.0132 50.8911H0L8.51485 6.86468C18.2398 6.73267 23.9384 6.66667 25.6106 6.66667C31.3751 6.66667 35.4015 7.41474 37.6898 8.91089C40.7701 10.8911 42.3102 13.7954 42.3102 17.6238C42.3102 20.176 41.6502 22.5303 40.33 24.6865C39.0539 26.8427 37.1837 28.6029 34.7195 29.967C33.3553 30.6711 32.1012 31.1111 30.9571 31.2871C32.3652 31.8152 33.4653 32.6073 34.2574 33.6634C35.0055 34.8075 35.7316 36.3696 36.4356 38.3498L40.7261 50.8911ZM16.8317 26.2046H22.3102C24.2904 26.2046 25.8306 25.8526 26.9307 25.1485C28.7349 23.8724 29.637 22.1342 29.637 19.934C29.637 18.6139 29.1529 17.6458 28.1848 17.0297C27.2607 16.4136 25.8526 16.1056 23.9604 16.1056L18.7459 16.3036L16.8317 26.2046Z" fill="url(#paint0_linear_48_218)"/>
<path d="M45.7065 50.8911L54.2873 6.9967C59.6999 6.86469 64.8924 6.79868 69.8649 6.79868C74.7494 6.79868 78.7538 7.45875 81.8781 8.77888C85.1344 10.143 87.7307 12.2332 89.6669 15.0495C91.6031 17.8658 92.5712 21.2101 92.5712 25.0825C92.5712 36.6117 87.4667 44.4664 77.2576 48.6469C73.5173 50.143 68.1487 50.8911 61.152 50.8911H45.7065ZM59.6999 40.7261H64.9804C68.8528 40.7261 71.7351 40.198 73.6273 39.1419C77.9837 36.6337 80.1619 32.0352 80.1619 25.3465C80.1619 19.714 76.8176 16.8977 70.1289 16.8977C69.5569 16.8977 68.5008 16.9417 66.9606 17.0297C65.4204 17.0737 64.5184 17.0957 64.2543 17.0957L59.6999 40.7261Z" fill="url(#paint1_linear_48_218)"/>
<path d="M92.8507 48.3168L94.8309 38.4818C99.4953 40.9021 104.226 42.1122 109.022 42.1122C113.423 42.1122 115.623 40.7041 115.623 37.8878C115.623 37.1397 115.315 36.5016 114.699 35.9736C114.083 35.4455 112.983 34.7855 111.399 33.9934L107.372 31.8812C104.644 30.5171 102.554 28.9989 101.101 27.3267C99.6493 25.6106 98.9233 23.4763 98.9233 20.9241C98.9233 16.0836 100.727 12.4532 104.336 10.033C107.988 7.56876 112.565 6.33664 118.065 6.33664C122.598 6.33664 127.196 7.19472 131.861 8.91089L129.946 18.4158C125.81 16.6997 121.916 15.8416 118.263 15.8416C114.171 15.8416 112.125 17.1617 112.125 19.802C112.125 20.6381 112.433 21.3201 113.049 21.8482C113.709 22.3762 114.787 22.9923 116.283 23.6964L119.979 25.4125C126.052 28.2288 129.088 31.8372 129.088 36.2376C129.088 39.802 128.12 42.7723 126.184 45.1485C124.248 47.5248 121.784 49.2189 118.791 50.231C115.843 51.1991 112.433 51.6832 108.56 51.6832C102.488 51.6832 97.2511 50.5611 92.8507 48.3168Z" fill="url(#paint2_linear_48_218)"/>
<path d="M154.959 60H145.982L157.665 0H166.708L154.959 60Z" fill="url(#paint3_linear_48_218)"/>
<path d="M182.376 48.2509V38.6139C187.305 41.5622 192.057 43.0363 196.634 43.0363C199.142 43.0363 201.012 42.7063 202.244 42.0462C203.476 41.3862 204.092 40.2641 204.092 38.6799C204.092 37.5798 203.674 36.6777 202.838 35.9736C202.002 35.2256 200.484 34.4115 198.284 33.5314L194.059 31.8152C190.583 30.4511 187.921 28.8229 186.073 26.9307C184.224 24.9945 183.3 22.4203 183.3 19.208C183.3 15.1155 184.708 11.9472 187.525 9.70301C190.385 7.45878 194.323 6.33667 199.34 6.33667C204.4 6.33667 209.065 7.17275 213.333 8.84492V18.0858C209.021 15.9736 204.84 14.9175 200.792 14.9175C196.524 14.9175 194.389 16.1717 194.389 18.6799C194.389 20 194.807 21.0121 195.644 21.7162C196.524 22.4203 198.02 23.2124 200.132 24.0924L204.158 25.8086C208.119 27.4808 210.957 29.197 212.673 30.9571C214.389 32.7173 215.248 35.0935 215.248 38.0858C215.248 42.3983 213.729 45.7426 210.693 48.1188C207.657 50.4951 203.344 51.6832 197.756 51.6832C192.079 51.6832 186.953 50.5391 182.376 48.2509Z" fill="url(#paint4_linear_48_218)"/>
<path d="M252.238 42.0462V50.8911H221.941V6.99674H250.852V15.8416H232.106V24.3565H249.136V33.0033H232.106V42.0462H252.238Z" fill="url(#paint5_linear_48_218)"/>
<path d="M299.637 50.8911H288.218L282.278 40.3301C281.002 38.1739 279.923 36.7437 279.043 36.0396C277.811 35.0715 276.117 34.5875 273.961 34.5875H270.529V50.8911H260.166V6.93073C269.406 6.75471 274.841 6.6667 276.469 6.6667C281.97 6.6667 286.018 7.34877 288.614 8.7129C290.551 9.76901 292.047 11.2652 293.103 13.2014C294.203 15.1375 294.753 17.3158 294.753 19.736C294.753 23.8724 293.015 27.1067 289.538 29.439C288.438 30.2311 287.118 30.7811 285.578 31.0891C286.986 31.4852 288.218 32.2553 289.274 33.3994C290.375 34.6315 291.409 36.1497 292.377 37.9538L299.637 50.8911ZM270.529 26.4027H276.799C278.999 26.4027 280.628 26.0286 281.684 25.2806C283.312 24.1805 284.126 22.6623 284.126 20.7261C284.126 18.5259 283.202 16.9857 281.354 16.1056C280.254 15.5336 278.559 15.2476 276.271 15.2476L270.529 15.4456V26.4027Z" fill="url(#paint6_linear_48_218)"/>
<path d="M328.143 50.8911H317.119L300.222 6.99674H311.575C313.379 12.1012 315.051 16.8537 316.591 21.2542C318.176 25.6106 319.298 28.7129 319.958 30.5611C320.618 32.3653 321.212 34.0154 321.74 35.5116C322.268 36.9637 322.686 38.1739 322.994 39.142L334.215 6.99674H345.304L328.143 50.8911Z" fill="url(#paint7_linear_48_218)"/>
<path d="M380.77 42.0462V50.8911H350.473V6.99674H379.384V15.8416H360.638V24.3565H377.668V33.0033H360.638V42.0462H380.77Z" fill="url(#paint8_linear_48_218)"/>
<path d="M428.17 50.8911H416.751L410.81 40.3301C409.534 38.1739 408.456 36.7437 407.576 36.0396C406.344 35.0715 404.65 34.5875 402.493 34.5875H399.061V50.8911H388.698V6.93073C397.939 6.75471 403.373 6.6667 405.002 6.6667C410.502 6.6667 414.55 7.34877 417.147 8.7129C419.083 9.76901 420.579 11.2652 421.635 13.2014C422.735 15.1375 423.285 17.3158 423.285 19.736C423.285 23.8724 421.547 27.1067 418.071 29.439C416.971 30.2311 415.651 30.7811 414.11 31.0891C415.519 31.4852 416.751 32.2553 417.807 33.3994C418.907 34.6315 419.941 36.1497 420.909 37.9538L428.17 50.8911ZM399.061 26.4027H405.332C407.532 26.4027 409.16 26.0286 410.216 25.2806C411.844 24.1805 412.658 22.6623 412.658 20.7261C412.658 18.5259 411.734 16.9857 409.886 16.1056C408.786 15.5336 407.092 15.2476 404.804 15.2476L399.061 15.4456V26.4027Z" fill="url(#paint9_linear_48_218)"/>
<path d="M484.951 50.8911H474.588V23.3004L474.324 23.7624C474.148 24.0704 473.818 24.6205 473.333 25.4126C472.849 26.2047 472.233 27.1727 471.485 28.3169C470.781 29.417 469.769 30.9571 468.449 32.9373C467.173 34.8735 465.743 37.0077 464.159 39.34H461.254C454.434 29.483 450.891 24.1364 450.627 23.3004V50.8911H440.264V6.99673H449.835L462.64 25.9406L475.38 6.99673H484.951V50.8911Z" fill="url(#paint10_linear_48_218)"/>
<path d="M514.544 51.7492C507.679 51.7492 502.179 49.615 498.042 45.3466C493.95 41.0341 491.903 35.5776 491.903 28.9769C491.903 22.1562 494.104 16.6557 498.504 12.4753C502.949 8.29486 508.559 6.20465 515.336 6.20465C521.981 6.20465 527.415 8.25085 531.639 12.3433C535.908 16.3917 538.042 21.7602 538.042 28.4489C538.042 35.2696 535.864 40.8581 531.507 45.2146C527.195 49.571 521.54 51.7492 514.544 51.7492ZM515.072 42.6403C518.768 42.6403 521.738 41.4302 523.983 39.0099C526.271 36.5897 527.415 33.2454 527.415 28.9769C527.415 24.5765 526.271 21.1882 523.983 18.8119C521.738 16.4357 518.812 15.2476 515.204 15.2476C511.375 15.2476 508.295 16.4577 505.963 18.8779C503.675 21.2982 502.531 24.6645 502.531 28.9769C502.531 33.2014 503.675 36.5457 505.963 39.0099C508.295 41.4302 511.331 42.6403 515.072 42.6403Z" fill="url(#paint11_linear_48_218)"/>
<path d="M584.222 50.8911H575.707L554.717 24.4225V50.8911H544.486V6.99673H553.397L574.057 33.3334V6.99673H584.222V50.8911Z" fill="url(#paint12_linear_48_218)"/>
<path d="M603.719 50.8911H593.356V6.99673H603.719V50.8911Z" fill="url(#paint13_linear_48_218)"/>
<path d="M631.791 50.8911H621.494V16.1056H608.557V6.99673H644.728V16.1056H631.791V50.8911Z" fill="url(#paint14_linear_48_218)"/>
<path d="M668.796 51.7492C661.931 51.7492 656.43 49.615 652.294 45.3466C648.201 41.0341 646.155 35.5776 646.155 28.9769C646.155 22.1562 648.355 16.6557 652.756 12.4753C657.2 8.29486 662.811 6.20465 669.588 6.20465C676.232 6.20465 681.667 8.25085 685.891 12.3433C690.16 16.3917 692.294 21.7602 692.294 28.4489C692.294 35.2696 690.116 40.8581 685.759 45.2146C681.447 49.571 675.792 51.7492 668.796 51.7492ZM669.324 42.6403C673.02 42.6403 675.99 41.4302 678.234 39.0099C680.523 36.5897 681.667 33.2454 681.667 28.9769C681.667 24.5765 680.523 21.1882 678.234 18.8119C675.99 16.4357 673.064 15.2476 669.456 15.2476C665.627 15.2476 662.547 16.4577 660.215 18.8779C657.926 21.2982 656.782 24.6645 656.782 28.9769C656.782 33.2014 657.926 36.5457 660.215 39.0099C662.547 41.4302 665.583 42.6403 669.324 42.6403Z" fill="url(#paint15_linear_48_218)"/>
<path d="M738.672 50.8911H727.253L721.312 40.3301C720.036 38.1739 718.958 36.7437 718.078 36.0396C716.846 35.0715 715.151 34.5875 712.995 34.5875H709.563V50.8911H699.2V6.93073C708.441 6.75471 713.875 6.6667 715.503 6.6667C721.004 6.6667 725.052 7.34877 727.649 8.7129C729.585 9.76901 731.081 11.2652 732.137 13.2013C733.237 15.1375 733.787 17.3158 733.787 19.736C733.787 23.8724 732.049 27.1067 728.573 29.439C727.473 30.2311 726.153 30.7811 724.612 31.0891C726.021 31.4852 727.253 32.2553 728.309 33.3994C729.409 34.6315 730.443 36.1496 731.411 37.9538L738.672 50.8911ZM709.563 26.4027H715.833C718.034 26.4027 719.662 26.0286 720.718 25.2806C722.346 24.1804 723.16 22.6623 723.16 20.7261C723.16 18.5259 722.236 16.9857 720.388 16.1056C719.288 15.5336 717.594 15.2476 715.305 15.2476L709.563 15.4456V26.4027Z" fill="url(#paint16_linear_48_218)"/>
<path d="M753.909 50.8911H743.546V6.99673H753.909V50.8911Z" fill="url(#paint17_linear_48_218)"/>
<path d="M802.611 50.8911H794.096L773.106 24.4225V50.8911H762.875V6.99673H771.786L792.446 33.3334V6.99673H802.611V50.8911Z" fill="url(#paint18_linear_48_218)"/>
<path d="M850.227 47.9868C848.334 48.8669 845.782 49.725 842.57 50.5611C839.357 51.3532 836.123 51.7492 832.867 51.7492C825.342 51.7492 819.533 49.681 815.441 45.5446C811.349 41.3642 809.302 35.8196 809.302 28.9109C809.302 21.9582 811.547 16.4357 816.035 12.3433C820.524 8.25085 826.244 6.20465 833.197 6.20465C838.961 6.20465 844.154 7.08474 848.774 8.84492V17.8878C843.362 16.1276 838.367 15.2476 833.791 15.2476C829.698 15.2476 826.354 16.4137 823.758 18.7459C821.206 21.0341 819.93 24.4885 819.93 29.1089C819.93 33.7294 821.184 37.1617 823.692 39.406C826.244 41.6502 829.5 42.7723 833.461 42.7723C835.529 42.7723 837.861 42.3983 840.458 41.6502V35.2476H832.141V26.6007H850.227V47.9868Z" fill="url(#paint19_linear_48_218)"/>
<defs>
<linearGradient id="paint0_linear_48_218" x1="82.7992" y1="8.97385" x2="82.7992" y2="48.0718" gradientUnits="userSpaceOnUse">
<stop stop-color="#48BDFF"/>
<stop offset="1" stop-color="#3A88FE"/>
</linearGradient>
<linearGradient id="paint1_linear_48_218" x1="82.7992" y1="8.97385" x2="82.7992" y2="48.0718" gradientUnits="userSpaceOnUse">
<stop stop-color="#48BDFF"/>
<stop offset="1" stop-color="#3A88FE"/>
</linearGradient>
<linearGradient id="paint2_linear_48_218" x1="82.7992" y1="8.97385" x2="82.7992" y2="48.0718" gradientUnits="userSpaceOnUse">
<stop stop-color="#48BDFF"/>
<stop offset="1" stop-color="#3A88FE"/>
</linearGradient>
<linearGradient id="paint3_linear_48_218" x1="82.7992" y1="8.97385" x2="82.7992" y2="48.0718" gradientUnits="userSpaceOnUse">
<stop stop-color="#48BDFF"/>
<stop offset="1" stop-color="#3A88FE"/>
</linearGradient>
<linearGradient id="paint4_linear_48_218" x1="306.038" y1="10.9177" x2="306.038" y2="34.0549" gradientUnits="userSpaceOnUse">
<stop stop-color="#A8A8A8"/>
<stop offset="1" stop-color="#7A7A7A"/>
</linearGradient>
<linearGradient id="paint5_linear_48_218" x1="306.038" y1="10.9177" x2="306.038" y2="34.0549" gradientUnits="userSpaceOnUse">
<stop stop-color="#A8A8A8"/>
<stop offset="1" stop-color="#7A7A7A"/>
</linearGradient>
<linearGradient id="paint6_linear_48_218" x1="306.038" y1="10.9177" x2="306.038" y2="34.0549" gradientUnits="userSpaceOnUse">
<stop stop-color="#A8A8A8"/>
<stop offset="1" stop-color="#7A7A7A"/>
</linearGradient>
<linearGradient id="paint7_linear_48_218" x1="306.038" y1="10.9177" x2="306.038" y2="34.0549" gradientUnits="userSpaceOnUse">
<stop stop-color="#A8A8A8"/>
<stop offset="1" stop-color="#7A7A7A"/>
</linearGradient>
<linearGradient id="paint8_linear_48_218" x1="306.038" y1="10.9177" x2="306.038" y2="34.0549" gradientUnits="userSpaceOnUse">
<stop stop-color="#A8A8A8"/>
<stop offset="1" stop-color="#7A7A7A"/>
</linearGradient>
<linearGradient id="paint9_linear_48_218" x1="306.038" y1="10.9177" x2="306.038" y2="34.0549" gradientUnits="userSpaceOnUse">
<stop stop-color="#A8A8A8"/>
<stop offset="1" stop-color="#7A7A7A"/>
</linearGradient>
<linearGradient id="paint10_linear_48_218" x1="643.881" y1="13.0165" x2="643.881" y2="42.6948" gradientUnits="userSpaceOnUse">
<stop stop-color="#48BDFF"/>
<stop offset="1" stop-color="#3A88FE"/>
</linearGradient>
<linearGradient id="paint11_linear_48_218" x1="643.881" y1="13.0165" x2="643.881" y2="42.6948" gradientUnits="userSpaceOnUse">
<stop stop-color="#48BDFF"/>
<stop offset="1" stop-color="#3A88FE"/>
</linearGradient>
<linearGradient id="paint12_linear_48_218" x1="643.881" y1="13.0165" x2="643.881" y2="42.6948" gradientUnits="userSpaceOnUse">
<stop stop-color="#48BDFF"/>
<stop offset="1" stop-color="#3A88FE"/>
</linearGradient>
<linearGradient id="paint13_linear_48_218" x1="643.881" y1="13.0165" x2="643.881" y2="42.6948" gradientUnits="userSpaceOnUse">
<stop stop-color="#48BDFF"/>
<stop offset="1" stop-color="#3A88FE"/>
</linearGradient>
<linearGradient id="paint14_linear_48_218" x1="643.881" y1="13.0165" x2="643.881" y2="42.6948" gradientUnits="userSpaceOnUse">
<stop stop-color="#48BDFF"/>
<stop offset="1" stop-color="#3A88FE"/>
</linearGradient>
<linearGradient id="paint15_linear_48_218" x1="643.881" y1="13.0165" x2="643.881" y2="42.6948" gradientUnits="userSpaceOnUse">
<stop stop-color="#48BDFF"/>
<stop offset="1" stop-color="#3A88FE"/>
</linearGradient>
<linearGradient id="paint16_linear_48_218" x1="643.881" y1="13.0165" x2="643.881" y2="42.6948" gradientUnits="userSpaceOnUse">
<stop stop-color="#48BDFF"/>
<stop offset="1" stop-color="#3A88FE"/>
</linearGradient>
<linearGradient id="paint17_linear_48_218" x1="643.881" y1="13.0165" x2="643.881" y2="42.6948" gradientUnits="userSpaceOnUse">
<stop stop-color="#48BDFF"/>
<stop offset="1" stop-color="#3A88FE"/>
</linearGradient>
<linearGradient id="paint18_linear_48_218" x1="643.881" y1="13.0165" x2="643.881" y2="42.6948" gradientUnits="userSpaceOnUse">
<stop stop-color="#48BDFF"/>
<stop offset="1" stop-color="#3A88FE"/>
</linearGradient>
<linearGradient id="paint19_linear_48_218" x1="643.881" y1="13.0165" x2="643.881" y2="42.6948" gradientUnits="userSpaceOnUse">
<stop stop-color="#48BDFF"/>
<stop offset="1" stop-color="#3A88FE"/>
</linearGradient>
</defs>
</svg>
