<svg width="860" height="60" viewBox="0 0 860 60" fill="none" xmlns="http://www.w3.org/2000/svg">
<path d="M40.7261 50.8911H27.7888L24.1584 40.5281C23.4543 38.4598 22.7943 37.1177 22.1782 36.5016C21.2981 35.5776 19.758 35.1155 17.5578 35.1155H15.0495L12.0132 50.8911H0L8.51485 6.86468C18.2398 6.73267 23.9384 6.66667 25.6106 6.66667C31.3751 6.66667 35.4015 7.41474 37.6898 8.91089C40.7701 10.8911 42.3102 13.7954 42.3102 17.6238C42.3102 20.176 41.6502 22.5303 40.33 24.6865C39.0539 26.8427 37.1837 28.6029 34.7195 29.967C33.3553 30.6711 32.1012 31.1111 30.9571 31.2871C32.3652 31.8152 33.4653 32.6073 34.2574 33.6634C35.0055 34.8075 35.7316 36.3696 36.4356 38.3498L40.7261 50.8911ZM16.8317 26.2046H22.3102C24.2904 26.2046 25.8306 25.8526 26.9307 25.1485C28.7349 23.8724 29.637 22.1342 29.637 19.934C29.637 18.6139 29.1529 17.6458 28.1848 17.0297C27.2607 16.4136 25.8526 16.1056 23.9604 16.1056L18.7459 16.3036L16.8317 26.2046Z" fill="url(#paint0_linear_48_142)"/>
<path d="M45.7065 50.8911L54.2873 6.9967C59.6999 6.86469 64.8924 6.79868 69.8649 6.79868C74.7494 6.79868 78.7538 7.45875 81.8781 8.77888C85.1344 10.143 87.7307 12.2332 89.6669 15.0495C91.6031 17.8658 92.5712 21.2101 92.5712 25.0825C92.5712 36.6117 87.4667 44.4664 77.2576 48.6469C73.5173 50.143 68.1487 50.8911 61.152 50.8911H45.7065ZM59.6999 40.7261H64.9804C68.8528 40.7261 71.7351 40.198 73.6273 39.1419C77.9837 36.6337 80.1619 32.0352 80.1619 25.3465C80.1619 19.714 76.8176 16.8977 70.1289 16.8977C69.5569 16.8977 68.5008 16.9417 66.9606 17.0297C65.4204 17.0737 64.5184 17.0957 64.2543 17.0957L59.6999 40.7261Z" fill="url(#paint1_linear_48_142)"/>
<path d="M92.8507 48.3168L94.8309 38.4818C99.4953 40.9021 104.226 42.1122 109.022 42.1122C113.423 42.1122 115.623 40.7041 115.623 37.8878C115.623 37.1397 115.315 36.5016 114.699 35.9736C114.083 35.4455 112.983 34.7855 111.399 33.9934L107.372 31.8812C104.644 30.5171 102.554 28.9989 101.101 27.3267C99.6493 25.6106 98.9233 23.4763 98.9233 20.9241C98.9233 16.0836 100.727 12.4532 104.336 10.033C107.988 7.56876 112.565 6.33664 118.065 6.33664C122.598 6.33664 127.196 7.19472 131.861 8.91089L129.946 18.4158C125.81 16.6997 121.916 15.8416 118.263 15.8416C114.171 15.8416 112.125 17.1617 112.125 19.802C112.125 20.6381 112.433 21.3201 113.049 21.8482C113.709 22.3762 114.787 22.9923 116.283 23.6964L119.979 25.4125C126.052 28.2288 129.088 31.8372 129.088 36.2376C129.088 39.802 128.12 42.7723 126.184 45.1485C124.248 47.5248 121.784 49.2189 118.791 50.231C115.843 51.1991 112.433 51.6832 108.56 51.6832C102.488 51.6832 97.2511 50.5611 92.8507 48.3168Z" fill="url(#paint2_linear_48_142)"/>
<path d="M154.959 60H145.982L157.665 0H166.708L154.959 60Z" fill="url(#paint3_linear_48_142)"/>
<path d="M225.677 50.8911H214.324L210.891 41.6502H194.654L191.155 50.8911H180L197.36 6.99673H208.515L225.677 50.8911ZM208.119 32.9373C205.787 26.6887 203.983 21.6282 202.706 17.7558C202.266 19.252 200.484 24.3125 197.36 32.9373H208.119Z" fill="url(#paint4_linear_48_142)"/>
<path d="M230.643 50.8911V6.99673C236.76 6.86472 242.128 6.79871 246.749 6.79871C251.985 6.79871 256.144 7.37077 259.224 8.51488C263.184 9.92303 266.309 12.2993 268.597 15.6436C270.885 18.9879 272.029 23.2564 272.029 28.4489C272.029 33.2454 270.907 37.4478 268.663 41.0561C266.463 44.6205 263.492 47.1948 259.752 48.7789C256.364 50.1871 251.435 50.8911 244.967 50.8911H230.643ZM241.006 41.7822H246.749C250.841 41.7822 253.745 41.2542 255.462 40.1981C259.466 38.0858 261.468 34.1474 261.468 28.3829C261.468 24.0264 260.236 20.8581 257.772 18.8779C255.352 16.8537 252.073 15.8416 247.937 15.8416C247.277 15.8416 246.067 15.8856 244.307 15.9736C242.546 16.0176 241.446 16.0396 241.006 16.0396V41.7822Z" fill="url(#paint5_linear_48_142)"/>
<path d="M301.843 50.8911H290.82L273.922 6.99673H285.275C287.08 12.1012 288.752 16.8537 290.292 21.2542C291.876 25.6106 292.998 28.7129 293.658 30.5611C294.318 32.3653 294.912 34.0154 295.44 35.5116C295.969 36.9637 296.387 38.1738 296.695 39.1419L307.916 6.99673H319.005L301.843 50.8911Z" fill="url(#paint6_linear_48_142)"/>
<path d="M362.138 50.8911H350.784L347.352 41.6502H331.114L327.616 50.8911H316.461L333.821 6.99673H344.976L362.138 50.8911ZM344.58 32.9373C342.248 26.6887 340.443 21.6282 339.167 17.7558C338.727 19.252 336.945 24.3125 333.821 32.9373H344.58Z" fill="url(#paint7_linear_48_142)"/>
<path d="M406.378 50.8911H397.863L376.873 24.4225V50.8911H366.642V6.99673H375.553L396.213 33.3334V6.99673H406.378V50.8911Z" fill="url(#paint8_linear_48_142)"/>
<path d="M452.145 48.4489C447.745 50.6491 442.354 51.7492 435.974 51.7492C428.889 51.7492 423.3 49.681 419.208 45.5446C415.16 41.3642 413.135 35.8196 413.135 28.9109C413.135 21.9142 415.38 16.3917 419.868 12.3433C424.357 8.25085 429.989 6.20465 436.766 6.20465C442.09 6.20465 447.041 7.08474 451.617 8.84492V18.2179C447.525 16.2377 442.926 15.2476 437.822 15.2476C433.773 15.2476 430.407 16.3697 427.723 18.6139C425.039 20.8581 423.696 24.3565 423.696 29.1089C423.696 33.5534 424.995 36.9197 427.591 39.208C430.187 41.4962 433.575 42.6403 437.756 42.6403C440.396 42.6403 443.058 42.2883 445.743 41.5842C448.471 40.8801 450.605 40.154 452.145 39.406V48.4489Z" fill="url(#paint9_linear_48_142)"/>
<path d="M488.418 42.0462V50.8911H458.121V6.99673H487.032V15.8416H468.286V24.3565H485.316V33.0033H468.286V42.0462H488.418Z" fill="url(#paint10_linear_48_142)"/>
<path d="M496.346 50.8911V6.99673C502.462 6.86472 507.831 6.79871 512.451 6.79871C517.688 6.79871 521.846 7.37077 524.926 8.51488C528.887 9.92303 532.011 12.2993 534.299 15.6436C536.588 18.9879 537.732 23.2564 537.732 28.4489C537.732 33.2454 536.61 37.4478 534.365 41.0561C532.165 44.6205 529.195 47.1948 525.454 48.7789C522.066 50.1871 517.138 50.8911 510.669 50.8911H496.346ZM506.709 41.7822H512.451C516.544 41.7822 519.448 41.2542 521.164 40.1981C525.168 38.0858 527.171 34.1474 527.171 28.3829C527.171 24.0264 525.938 20.8581 523.474 18.8779C521.054 16.8537 517.776 15.8416 513.639 15.8416C512.979 15.8416 511.769 15.8856 510.009 15.9736C508.249 16.0176 507.149 16.0396 506.709 16.0396V41.7822Z" fill="url(#paint11_linear_48_142)"/>
<path d="M548.713 48.2509V38.6139C553.641 41.5622 558.394 43.0363 562.97 43.0363C565.479 43.0363 567.349 42.7063 568.581 42.0462C569.813 41.3862 570.429 40.2641 570.429 38.6799C570.429 37.5798 570.011 36.6777 569.175 35.9736C568.339 35.2256 566.821 34.4115 564.62 33.5314L560.396 31.8152C556.92 30.4511 554.257 28.8229 552.409 26.9307C550.561 24.9945 549.637 22.4203 549.637 19.208C549.637 15.1155 551.045 11.9472 553.861 9.703C556.722 7.45878 560.66 6.33667 565.677 6.33667C570.737 6.33667 575.402 7.17275 579.67 8.84492V18.0858C575.358 15.9736 571.177 14.9175 567.129 14.9175C562.86 14.9175 560.726 16.1717 560.726 18.6799C560.726 20 561.144 21.0121 561.98 21.7162C562.86 22.4203 564.356 23.2124 566.469 24.0924L570.495 25.8086C574.455 27.4808 577.294 29.197 579.01 30.9571C580.726 32.7173 581.584 35.0935 581.584 38.0858C581.584 42.3983 580.066 45.7426 577.03 48.1188C573.993 50.4951 569.681 51.6832 564.092 51.6832C558.416 51.6832 553.289 50.5391 548.713 48.2509Z" fill="url(#paint12_linear_48_142)"/>
<path d="M618.575 42.0462V50.8911H588.278V6.99673H617.189V15.8416H598.443V24.3565H615.472V33.0033H598.443V42.0462H618.575Z" fill="url(#paint13_linear_48_142)"/>
<path d="M663.07 48.4489C658.669 50.6491 653.279 51.7492 646.898 51.7492C639.814 51.7492 634.225 49.681 630.133 45.5446C626.084 41.3642 624.06 35.8196 624.06 28.9109C624.06 21.9142 626.304 16.3917 630.793 12.3433C635.281 8.25085 640.914 6.20465 647.69 6.20465C653.015 6.20465 657.965 7.08474 662.542 8.84492V18.2179C658.449 16.2377 653.851 15.2476 648.746 15.2476C644.698 15.2476 641.332 16.3697 638.647 18.6139C635.963 20.8581 634.621 24.3565 634.621 29.1089C634.621 33.5534 635.919 36.9197 638.515 39.208C641.112 41.4962 644.5 42.6403 648.68 42.6403C651.321 42.6403 653.983 42.2883 656.667 41.5842C659.395 40.8801 661.53 40.154 663.07 39.406V48.4489Z" fill="url(#paint14_linear_48_142)"/>
<path d="M708.851 6.99673V30.3631C708.851 33.1794 708.697 35.3576 708.389 36.8977C707.42 41.6942 705.22 45.3686 701.788 47.9208C698.356 50.4731 693.933 51.7492 688.521 51.7492C683.02 51.7492 678.554 50.4731 675.121 47.9208C671.689 45.3246 669.709 41.7382 669.181 37.1617C668.961 35.1816 668.851 33.1133 668.851 30.9571V6.99673H679.214V30.7591C679.214 32.6953 679.302 34.2795 679.478 35.5116C680.27 40.2641 683.416 42.6403 688.917 42.6403C691.469 42.6403 693.537 42.0682 695.121 40.9241C696.705 39.736 697.717 37.9978 698.158 35.7096C698.378 34.6975 698.488 33.0473 698.488 30.7591V6.99673H708.851Z" fill="url(#paint15_linear_48_142)"/>
<path d="M757.056 50.8911H745.636L739.696 40.3301C738.42 38.1739 737.342 36.7437 736.461 36.0396C735.229 35.0715 733.535 34.5875 731.379 34.5875H727.947V50.8911H717.584V6.93073C726.824 6.75471 732.259 6.6667 733.887 6.6667C739.388 6.6667 743.436 7.34877 746.032 8.7129C747.969 9.76901 749.465 11.2652 750.521 13.2013C751.621 15.1375 752.171 17.3158 752.171 19.736C752.171 23.8724 750.433 27.1067 746.956 29.439C745.856 30.2311 744.536 30.7811 742.996 31.0891C744.404 31.4852 745.636 32.2553 746.692 33.3994C747.793 34.6315 748.827 36.1496 749.795 37.9538L757.056 50.8911ZM727.947 26.4027H734.217C736.417 26.4027 738.046 26.0286 739.102 25.2806C740.73 24.1804 741.544 22.6623 741.544 20.7261C741.544 18.5259 740.62 16.9857 738.772 16.1056C737.672 15.5336 735.977 15.2476 733.689 15.2476L727.947 15.4456V26.4027Z" fill="url(#paint16_linear_48_142)"/>
<path d="M772.293 50.8911H761.93V6.99673H772.293V50.8911Z" fill="url(#paint17_linear_48_142)"/>
<path d="M800.366 50.8911H790.069V16.1056H777.131V6.99673H813.303V16.1056H800.366V50.8911Z" fill="url(#paint18_linear_48_142)"/>
<path d="M842.265 50.8911H831.968V34.5875L814.806 6.99673H826.621C833.09 17.8658 836.654 23.8944 837.314 25.0825L848.139 6.99673H859.757L842.265 34.5875V50.8911Z" fill="url(#paint19_linear_48_142)"/>
<defs>
<linearGradient id="paint0_linear_48_142" x1="82.7992" y1="8.97385" x2="82.7992" y2="48.0718" gradientUnits="userSpaceOnUse">
<stop stop-color="#48BDFF"/>
<stop offset="1" stop-color="#3A88FE"/>
</linearGradient>
<linearGradient id="paint1_linear_48_142" x1="82.7992" y1="8.97385" x2="82.7992" y2="48.0718" gradientUnits="userSpaceOnUse">
<stop stop-color="#48BDFF"/>
<stop offset="1" stop-color="#3A88FE"/>
</linearGradient>
<linearGradient id="paint2_linear_48_142" x1="82.7992" y1="8.97385" x2="82.7992" y2="48.0718" gradientUnits="userSpaceOnUse">
<stop stop-color="#48BDFF"/>
<stop offset="1" stop-color="#3A88FE"/>
</linearGradient>
<linearGradient id="paint3_linear_48_142" x1="82.7992" y1="8.97385" x2="82.7992" y2="48.0718" gradientUnits="userSpaceOnUse">
<stop stop-color="#48BDFF"/>
<stop offset="1" stop-color="#3A88FE"/>
</linearGradient>
<linearGradient id="paint4_linear_48_142" x1="359.98" y1="10.8057" x2="359.98" y2="34.0439" gradientUnits="userSpaceOnUse">
<stop stop-color="#A8A8A8"/>
<stop offset="1" stop-color="#7A7A7A"/>
</linearGradient>
<linearGradient id="paint5_linear_48_142" x1="359.98" y1="10.8057" x2="359.98" y2="34.0439" gradientUnits="userSpaceOnUse">
<stop stop-color="#A8A8A8"/>
<stop offset="1" stop-color="#7A7A7A"/>
</linearGradient>
<linearGradient id="paint6_linear_48_142" x1="359.98" y1="10.8057" x2="359.98" y2="34.0439" gradientUnits="userSpaceOnUse">
<stop stop-color="#A8A8A8"/>
<stop offset="1" stop-color="#7A7A7A"/>
</linearGradient>
<linearGradient id="paint7_linear_48_142" x1="359.98" y1="10.8057" x2="359.98" y2="34.0439" gradientUnits="userSpaceOnUse">
<stop stop-color="#A8A8A8"/>
<stop offset="1" stop-color="#7A7A7A"/>
</linearGradient>
<linearGradient id="paint8_linear_48_142" x1="359.98" y1="10.8057" x2="359.98" y2="34.0439" gradientUnits="userSpaceOnUse">
<stop stop-color="#A8A8A8"/>
<stop offset="1" stop-color="#7A7A7A"/>
</linearGradient>
<linearGradient id="paint9_linear_48_142" x1="359.98" y1="10.8057" x2="359.98" y2="34.0439" gradientUnits="userSpaceOnUse">
<stop stop-color="#A8A8A8"/>
<stop offset="1" stop-color="#7A7A7A"/>
</linearGradient>
<linearGradient id="paint10_linear_48_142" x1="359.98" y1="10.8057" x2="359.98" y2="34.0439" gradientUnits="userSpaceOnUse">
<stop stop-color="#A8A8A8"/>
<stop offset="1" stop-color="#7A7A7A"/>
</linearGradient>
<linearGradient id="paint11_linear_48_142" x1="359.98" y1="10.8057" x2="359.98" y2="34.0439" gradientUnits="userSpaceOnUse">
<stop stop-color="#A8A8A8"/>
<stop offset="1" stop-color="#7A7A7A"/>
</linearGradient>
<linearGradient id="paint12_linear_48_142" x1="703.2" y1="13.0165" x2="703.2" y2="42.6948" gradientUnits="userSpaceOnUse">
<stop stop-color="#48BDFF"/>
<stop offset="1" stop-color="#3A88FE"/>
</linearGradient>
<linearGradient id="paint13_linear_48_142" x1="703.2" y1="13.0165" x2="703.2" y2="42.6948" gradientUnits="userSpaceOnUse">
<stop stop-color="#48BDFF"/>
<stop offset="1" stop-color="#3A88FE"/>
</linearGradient>
<linearGradient id="paint14_linear_48_142" x1="703.2" y1="13.0165" x2="703.2" y2="42.6948" gradientUnits="userSpaceOnUse">
<stop stop-color="#48BDFF"/>
<stop offset="1" stop-color="#3A88FE"/>
</linearGradient>
<linearGradient id="paint15_linear_48_142" x1="703.2" y1="13.0165" x2="703.2" y2="42.6948" gradientUnits="userSpaceOnUse">
<stop stop-color="#48BDFF"/>
<stop offset="1" stop-color="#3A88FE"/>
</linearGradient>
<linearGradient id="paint16_linear_48_142" x1="703.2" y1="13.0165" x2="703.2" y2="42.6948" gradientUnits="userSpaceOnUse">
<stop stop-color="#48BDFF"/>
<stop offset="1" stop-color="#3A88FE"/>
</linearGradient>
<linearGradient id="paint17_linear_48_142" x1="703.2" y1="13.0165" x2="703.2" y2="42.6948" gradientUnits="userSpaceOnUse">
<stop stop-color="#48BDFF"/>
<stop offset="1" stop-color="#3A88FE"/>
</linearGradient>
<linearGradient id="paint18_linear_48_142" x1="703.2" y1="13.0165" x2="703.2" y2="42.6948" gradientUnits="userSpaceOnUse">
<stop stop-color="#48BDFF"/>
<stop offset="1" stop-color="#3A88FE"/>
</linearGradient>
<linearGradient id="paint19_linear_48_142" x1="703.2" y1="13.0165" x2="703.2" y2="42.6948" gradientUnits="userSpaceOnUse">
<stop stop-color="#48BDFF"/>
<stop offset="1" stop-color="#3A88FE"/>
</linearGradient>
</defs>
</svg>
