<svg width="256" height="256" viewBox="0 0 256 256" fill="none" xmlns="http://www.w3.org/2000/svg">
<path d="M249.201 167.999L249.989 68.5128C249.995 67.6516 249.461 66.8817 248.635 66.6361C231.621 61.5744 188.276 60.7003 156.225 59.1288C155.314 59.0841 154.827 60.1838 155.468 60.8333L166.47 71.977C169.571 75.1182 169.542 80.1777 166.405 83.2831L144.22 105.244C143.587 105.87 144.023 106.949 144.914 106.954C162.984 107.047 186.602 107.106 193.999 107.484C195.011 107.535 195.765 108.376 195.765 109.389V162.643C195.765 163.764 195.389 164.855 194.689 165.731C182.968 180.395 173.837 187.725 155.758 197.602C155.184 197.916 154.478 197.926 153.894 197.63C132.136 186.584 122.945 177.89 114.389 160.516C114.322 160.379 114.286 160.226 114.286 160.074V137.529C114.286 136.671 113.276 136.211 112.629 136.775L90.1939 156.321C87.1246 158.995 82.5365 158.938 79.5348 156.188L62.6755 140.743C62.034 140.156 61 140.611 61 141.481V168.65C61 171.181 61.4696 173.698 62.4534 176.031C78.393 213.826 100.512 229.732 153.35 255.357C154.178 255.758 155.18 255.755 156.007 255.351C215.312 226.341 236.74 209.56 248.325 173.6C248.907 171.794 249.186 169.897 249.201 167.999Z" fill="url(#paint0_linear_48_48)"/>
<path d="M194.445 165.875C182.741 180.6 173.627 187.958 155.576 197.874C155.003 198.189 154.298 198.201 153.714 197.907C133.23 187.598 124.45 180.025 114.122 161.474C113.958 161.18 113.87 160.844 113.868 160.508L113.79 136.829L85.2331 161.15L62 142.666L64.8563 177.112C64.8875 177.489 65.0251 177.849 65.2529 178.151L99.0539 222.946C99.2217 223.169 99.4342 223.354 99.6777 223.489L153.475 253.43C154.107 253.782 154.88 253.765 155.497 253.385L222.622 212.028C223.008 211.791 223.302 211.429 223.455 211.002L247.882 143.085C247.96 142.868 248 142.639 248 142.408V69.0414C248 68.0053 247.209 67.1408 246.177 67.0492L160.348 59.4374C158.556 59.2785 157.482 61.3813 158.661 62.7401L170.645 76.5546C171.335 77.3511 171.289 78.5472 170.539 79.2881L145.413 104.104C144.795 104.715 145.179 105.761 146.048 105.794C155.69 106.16 183.871 106.876 193.665 107.429C194.708 107.487 195.513 108.355 195.513 109.401L195.513 162.797C195.513 163.914 195.14 165.001 194.445 165.875Z" fill="url(#paint1_radial_48_48)"/>
<path d="M155.701 70.5439C159.354 74.1965 159.354 80.1184 155.701 83.7709L141.372 98.1001C137.72 101.753 131.798 101.753 128.145 98.1001L64.2148 34.1697C60.5623 30.5172 60.5623 24.5953 64.2148 20.9427L78.5441 6.61352C82.1966 2.96099 88.1185 2.96098 91.771 6.61351L155.701 70.5439Z" fill="url(#paint2_linear_48_48)"/>
<path d="M91.771 147.701C88.1185 151.354 82.1966 151.354 78.5441 147.701L64.2148 133.372C60.5623 129.72 60.5623 123.798 64.2148 120.145L128.145 56.2147C131.798 52.5622 137.72 52.5622 141.372 56.2147L155.701 70.5439C159.354 74.1965 159.354 80.1184 155.701 83.7709L91.771 147.701Z" fill="url(#paint3_linear_48_48)"/>
<path d="M111.211 84.1719L100.299 84.1719C100.299 84.1719 103.528 79.786 103.345 76.6063C103.184 73.8205 100.299 70.1425 100.299 70.1425L111.211 70.1425L111.211 84.1719Z" fill="url(#paint4_linear_48_48)"/>
<path d="M14.614 83.771C10.9614 80.1185 10.9615 74.1965 14.614 70.544L28.9432 56.2148C32.5957 52.5623 38.5177 52.5623 42.1702 56.2148L106.101 120.145C109.753 123.798 109.753 129.72 106.101 133.372L91.7714 147.701C88.1188 151.354 82.1969 151.354 78.5444 147.701L14.614 83.771Z" fill="url(#paint5_linear_48_48)"/>
<path d="M78.5444 6.61361C82.1969 2.96108 88.1188 2.96108 91.7714 6.61361L106.101 20.9428C109.753 24.5954 109.753 30.5173 106.101 34.1698L42.1702 98.1002C38.5177 101.753 32.5957 101.753 28.9432 98.1002L14.614 83.771C10.9614 80.1185 10.9615 74.1965 14.614 70.544L78.5444 6.61361Z" fill="url(#paint6_linear_48_48)"/>
<path d="M59.1049 70.143L70.0166 70.1431C70.0166 70.1431 66.7874 74.5289 66.9708 77.7086C67.1315 80.4945 70.0166 84.1724 70.0166 84.1724L59.1049 84.1724L59.1049 70.143Z" fill="url(#paint7_linear_48_48)"/>
<defs>
<linearGradient id="paint0_linear_48_48" x1="154.678" y1="126.263" x2="131.342" y2="262.545" gradientUnits="userSpaceOnUse">
<stop stop-color="#48BDFF"/>
<stop offset="1" stop-color="#3A88FE"/>
</linearGradient>
<radialGradient id="paint1_radial_48_48" cx="0" cy="0" r="1" gradientUnits="userSpaceOnUse" gradientTransform="translate(167.046 143.587) rotate(25.8213) scale(74.3328 63.3608)">
<stop stop-color="#3A88FE"/>
<stop offset="1" stop-color="#3A88FE" stop-opacity="0"/>
</radialGradient>
<linearGradient id="paint2_linear_48_48" x1="115.701" y1="108.182" x2="76.3333" y2="68.8136" gradientUnits="userSpaceOnUse">
<stop stop-color="#A8A8A8"/>
<stop offset="1" stop-color="#7A7A7A"/>
</linearGradient>
<linearGradient id="paint3_linear_48_48" x1="115.701" y1="108.182" x2="76.3333" y2="68.8136" gradientUnits="userSpaceOnUse">
<stop stop-color="#A8A8A8"/>
<stop offset="1" stop-color="#7A7A7A"/>
</linearGradient>
<linearGradient id="paint4_linear_48_48" x1="115.701" y1="108.182" x2="76.3333" y2="68.8136" gradientUnits="userSpaceOnUse">
<stop stop-color="#A8A8A8"/>
<stop offset="1" stop-color="#7A7A7A"/>
</linearGradient>
<linearGradient id="paint5_linear_48_48" x1="57.8624" y1="50.3755" x2="108.141" y2="100.654" gradientUnits="userSpaceOnUse">
<stop stop-color="#48BDFF"/>
<stop offset="1" stop-color="#3A88FE"/>
</linearGradient>
<linearGradient id="paint6_linear_48_48" x1="57.8624" y1="50.3755" x2="108.141" y2="100.654" gradientUnits="userSpaceOnUse">
<stop stop-color="#48BDFF"/>
<stop offset="1" stop-color="#3A88FE"/>
</linearGradient>
<linearGradient id="paint7_linear_48_48" x1="57.8624" y1="50.3755" x2="108.141" y2="100.654" gradientUnits="userSpaceOnUse">
<stop stop-color="#48BDFF"/>
<stop offset="1" stop-color="#3A88FE"/>
</linearGradient>
</defs>
</svg>
