<svg width="256" height="256" viewBox="0 0 256 256" fill="none" xmlns="http://www.w3.org/2000/svg">
<path d="M37.078 192.597C39.1541 206.789 40.8169 213.921 51.1071 214.079L91.9736 215.902L112 215.902L111.844 225H90.7534L49.8869 223.627C32.5044 223.411 23.0497 211.095 20 192L37.078 192.597Z" fill="url(#paint0_linear_48_72)"/>
<path d="M96.1745 224.79L58.791 223.852L59.013 215.511L96.3978 216.4L96.1745 224.79Z" fill="url(#paint1_linear_48_72)"/>
<rect width="34.3573" height="27.5704" rx="13" transform="matrix(0.999662 0.0259862 -0.0267931 0.999641 95.3351 205.372)" fill="url(#paint2_linear_48_72)"/>
<path d="M49.8259 139H14C14 79 56.8713 19 118.612 19C161.219 19 191.138 45.6134 206.575 84.9511C209.564 92.5655 210.351 95.3572 211.288 98.3571C211.596 99.3407 210.386 100.151 209.611 99.4719L197.564 88.9313C194.637 86.3699 190.292 86.2853 187.267 88.7306L178.223 96.0419C177.663 96.4945 176.822 96.2258 176.619 95.5354C175.712 92.4652 174.509 88.9546 172.926 84.9511C163.538 61.2051 148.668 49.0497 117.179 49.0497C68.2673 49.0497 49.8259 80.9047 49.8259 139Z" fill="url(#paint3_linear_48_72)"/>
<path d="M0 126C0 114.954 8.9543 106 20 106H55C56.1046 106 57 106.895 57 108V202C57 203.105 56.1046 204 55 204H20C8.9543 204 0 195.046 0 184V126Z" fill="url(#paint4_linear_48_72)"/>
<path d="M250.598 150.46C253.581 153.443 253.581 158.28 250.598 161.263L238.895 172.965C235.912 175.949 231.076 175.949 228.093 172.965L175.88 120.753C172.897 117.77 172.897 112.933 175.88 109.95L187.583 98.2474C190.566 95.2644 195.403 95.2644 198.386 98.2474L250.598 150.46Z" fill="url(#paint5_linear_48_72)"/>
<path d="M198.386 213.475C195.403 216.458 190.566 216.458 187.583 213.475L175.88 201.772C172.897 198.789 172.897 193.953 175.88 190.97L228.093 138.757C231.076 135.774 235.912 135.774 238.895 138.757L250.598 150.46C253.581 153.443 253.581 158.28 250.598 161.263L198.386 213.475Z" fill="url(#paint6_linear_48_72)"/>
<path d="M214.262 161.59L205.35 161.59C205.35 161.59 207.988 158.008 207.838 155.411C207.707 153.136 205.35 150.132 205.35 150.132L214.262 150.132L214.262 161.59Z" fill="url(#paint7_linear_48_72)"/>
<path d="M135.371 161.263C132.388 158.28 132.388 153.443 135.371 150.46L147.074 138.757C150.057 135.774 154.893 135.774 157.876 138.757L210.089 190.97C213.072 193.953 213.072 198.789 210.089 201.772L198.386 213.475C195.403 216.458 190.567 216.458 187.584 213.475L135.371 161.263Z" fill="url(#paint8_linear_48_72)"/>
<path d="M187.584 98.2474C190.567 95.2644 195.403 95.2644 198.386 98.2474L210.089 109.95C213.072 112.933 213.072 117.77 210.089 120.753L157.876 172.965C154.893 175.949 150.057 175.949 147.074 172.965L135.371 161.263C132.388 158.28 132.388 153.443 135.371 150.46L187.584 98.2474Z" fill="url(#paint9_linear_48_72)"/>
<path d="M171.707 150.133L180.619 150.133C180.619 150.133 177.982 153.715 178.131 156.311C178.263 158.587 180.619 161.59 180.619 161.59L171.707 161.59L171.707 150.133Z" fill="url(#paint10_linear_48_72)"/>
<defs>
<linearGradient id="paint0_linear_48_72" x1="33.6257" y1="219.264" x2="21.0923" y2="278.273" gradientUnits="userSpaceOnUse">
<stop stop-color="#48BDFF"/>
<stop offset="1" stop-color="#3A88FE"/>
</linearGradient>
<linearGradient id="paint1_linear_48_72" x1="58.4475" y1="219.919" x2="90.919" y2="233.677" gradientUnits="userSpaceOnUse">
<stop stop-color="#48BDFF" stop-opacity="0"/>
<stop offset="1" stop-color="#3A88FE"/>
</linearGradient>
<linearGradient id="paint2_linear_48_72" x1="12.0887" y1="8.77239" x2="30.9206" y2="23.2695" gradientUnits="userSpaceOnUse">
<stop stop-color="#48BDFF"/>
<stop offset="1" stop-color="#3A88FE"/>
</linearGradient>
<linearGradient id="paint3_linear_48_72" x1="108.492" y1="48.3913" x2="121.411" y2="110.752" gradientUnits="userSpaceOnUse">
<stop stop-color="#48BDFF"/>
<stop offset="1" stop-color="#3A88FE"/>
</linearGradient>
<linearGradient id="paint4_linear_48_72" x1="28.3766" y1="141.913" x2="-4.05556" y2="195.931" gradientUnits="userSpaceOnUse">
<stop stop-color="#48BDFF"/>
<stop offset="1" stop-color="#3A88FE"/>
</linearGradient>
<linearGradient id="paint5_linear_48_72" x1="217.93" y1="181.199" x2="185.777" y2="149.047" gradientUnits="userSpaceOnUse">
<stop stop-color="#A8A8A8"/>
<stop offset="1" stop-color="#7A7A7A"/>
</linearGradient>
<linearGradient id="paint6_linear_48_72" x1="217.93" y1="181.199" x2="185.777" y2="149.047" gradientUnits="userSpaceOnUse">
<stop stop-color="#A8A8A8"/>
<stop offset="1" stop-color="#7A7A7A"/>
</linearGradient>
<linearGradient id="paint7_linear_48_72" x1="217.93" y1="181.199" x2="185.777" y2="149.047" gradientUnits="userSpaceOnUse">
<stop stop-color="#A8A8A8"/>
<stop offset="1" stop-color="#7A7A7A"/>
</linearGradient>
<linearGradient id="paint8_linear_48_72" x1="170.692" y1="133.988" x2="211.755" y2="175.051" gradientUnits="userSpaceOnUse">
<stop stop-color="#48BDFF"/>
<stop offset="1" stop-color="#3A88FE"/>
</linearGradient>
<linearGradient id="paint9_linear_48_72" x1="170.692" y1="133.988" x2="211.755" y2="175.051" gradientUnits="userSpaceOnUse">
<stop stop-color="#48BDFF"/>
<stop offset="1" stop-color="#3A88FE"/>
</linearGradient>
<linearGradient id="paint10_linear_48_72" x1="170.692" y1="133.988" x2="211.755" y2="175.051" gradientUnits="userSpaceOnUse">
<stop stop-color="#48BDFF"/>
<stop offset="1" stop-color="#3A88FE"/>
</linearGradient>
</defs>
</svg>
