<svg width="744" height="60" viewBox="0 0 744 60" fill="none" xmlns="http://www.w3.org/2000/svg">
<path d="M40.7261 50.8911H27.7888L24.1584 40.5281C23.4543 38.4598 22.7943 37.1177 22.1782 36.5016C21.2981 35.5776 19.758 35.1155 17.5578 35.1155H15.0495L12.0132 50.8911H0L8.51485 6.86468C18.2398 6.73267 23.9384 6.66667 25.6106 6.66667C31.3751 6.66667 35.4015 7.41474 37.6898 8.91089C40.7701 10.8911 42.3102 13.7954 42.3102 17.6238C42.3102 20.176 41.6502 22.5303 40.33 24.6865C39.0539 26.8427 37.1837 28.6029 34.7195 29.967C33.3553 30.6711 32.1012 31.1111 30.9571 31.2871C32.3652 31.8152 33.4653 32.6073 34.2574 33.6634C35.0055 34.8075 35.7316 36.3696 36.4356 38.3498L40.7261 50.8911ZM16.8317 26.2046H22.3102C24.2904 26.2046 25.8306 25.8526 26.9307 25.1485C28.7349 23.8724 29.637 22.1342 29.637 19.934C29.637 18.6139 29.1529 17.6458 28.1848 17.0297C27.2607 16.4136 25.8526 16.1056 23.9604 16.1056L18.7459 16.3036L16.8317 26.2046Z" fill="url(#paint0_linear_48_180)"/>
<path d="M45.7065 50.8911L54.2873 6.9967C59.6999 6.86469 64.8924 6.79868 69.8649 6.79868C74.7494 6.79868 78.7538 7.45875 81.8781 8.77888C85.1344 10.143 87.7307 12.2332 89.6669 15.0495C91.6031 17.8658 92.5712 21.2101 92.5712 25.0825C92.5712 36.6117 87.4667 44.4664 77.2576 48.6469C73.5173 50.143 68.1487 50.8911 61.152 50.8911H45.7065ZM59.6999 40.7261H64.9804C68.8528 40.7261 71.7351 40.198 73.6273 39.1419C77.9837 36.6337 80.1619 32.0352 80.1619 25.3465C80.1619 19.714 76.8176 16.8977 70.1289 16.8977C69.5569 16.8977 68.5008 16.9417 66.9606 17.0297C65.4204 17.0737 64.5184 17.0957 64.2543 17.0957L59.6999 40.7261Z" fill="url(#paint1_linear_48_180)"/>
<path d="M92.8507 48.3168L94.8309 38.4818C99.4953 40.9021 104.226 42.1122 109.022 42.1122C113.423 42.1122 115.623 40.7041 115.623 37.8878C115.623 37.1397 115.315 36.5016 114.699 35.9736C114.083 35.4455 112.983 34.7855 111.399 33.9934L107.372 31.8812C104.644 30.5171 102.554 28.9989 101.101 27.3267C99.6493 25.6106 98.9233 23.4763 98.9233 20.9241C98.9233 16.0836 100.727 12.4532 104.336 10.033C107.988 7.56876 112.565 6.33664 118.065 6.33664C122.598 6.33664 127.196 7.19472 131.861 8.91089L129.946 18.4158C125.81 16.6997 121.916 15.8416 118.263 15.8416C114.171 15.8416 112.125 17.1617 112.125 19.802C112.125 20.6381 112.433 21.3201 113.049 21.8482C113.709 22.3762 114.787 22.9923 116.283 23.6964L119.979 25.4125C126.052 28.2288 129.088 31.8372 129.088 36.2376C129.088 39.802 128.12 42.7723 126.184 45.1485C124.248 47.5248 121.784 49.2189 118.791 50.231C115.843 51.1991 112.433 51.6832 108.56 51.6832C102.488 51.6832 97.2511 50.5611 92.8507 48.3168Z" fill="url(#paint2_linear_48_180)"/>
<path d="M154.959 60H145.982L157.665 0H166.708L154.959 60Z" fill="url(#paint3_linear_48_180)"/>
<path d="M224.027 50.8911H212.607L206.667 40.3301C205.391 38.1739 204.313 36.7437 203.432 36.0396C202.2 35.0715 200.506 34.5875 198.35 34.5875H194.918V50.8911H184.555V6.93073C193.795 6.75471 199.23 6.6667 200.858 6.6667C206.359 6.6667 210.407 7.34877 213.003 8.7129C214.94 9.76901 216.436 11.2652 217.492 13.2013C218.592 15.1375 219.142 17.3158 219.142 19.736C219.142 23.8724 217.404 27.1067 213.928 29.439C212.827 30.2311 211.507 30.7811 209.967 31.0891C211.375 31.4852 212.607 32.2553 213.663 33.3994C214.764 34.6315 215.798 36.1496 216.766 37.9538L224.027 50.8911ZM194.918 26.4027H201.188C203.388 26.4027 205.017 26.0286 206.073 25.2806C207.701 24.1804 208.515 22.6623 208.515 20.7261C208.515 18.5259 207.591 16.9857 205.743 16.1056C204.643 15.5336 202.948 15.2476 200.66 15.2476L194.918 15.4456V26.4027Z" fill="url(#paint4_linear_48_180)"/>
<path d="M259.264 42.0462V50.8911H228.967V6.99673H257.878V15.8416H239.132V24.3565H256.162V33.0033H239.132V42.0462H259.264Z" fill="url(#paint5_linear_48_180)"/>
<path d="M311.812 50.8911H301.449V23.3004L301.185 23.7624C301.009 24.0704 300.679 24.6205 300.195 25.4126C299.711 26.2047 299.095 27.1727 298.347 28.3169C297.643 29.417 296.631 30.9571 295.311 32.9373C294.034 34.8735 292.604 37.0077 291.02 39.34H288.116C281.295 29.483 277.753 24.1364 277.489 23.3004V50.8911H267.126V6.99673H276.697L289.502 25.9406L302.241 6.99673H311.812V50.8911Z" fill="url(#paint6_linear_48_180)"/>
<path d="M341.405 51.7492C334.541 51.7492 329.04 49.615 324.904 45.3466C320.811 41.0341 318.765 35.5776 318.765 28.9769C318.765 22.1562 320.965 16.6557 325.366 12.4753C329.81 8.29486 335.421 6.20465 342.197 6.20465C348.842 6.20465 354.277 8.25085 358.501 12.3433C362.769 16.3917 364.904 21.7602 364.904 28.4489C364.904 35.2696 362.725 40.8581 358.369 45.2146C354.057 49.571 348.402 51.7492 341.405 51.7492ZM341.933 42.6403C345.63 42.6403 348.6 41.4302 350.844 39.0099C353.133 36.5897 354.277 33.2454 354.277 28.9769C354.277 24.5765 353.133 21.1882 350.844 18.8119C348.6 16.4357 345.674 15.2476 342.065 15.2476C338.237 15.2476 335.157 16.4577 332.824 18.8779C330.536 21.2982 329.392 24.6645 329.392 28.9769C329.392 33.2014 330.536 36.5457 332.824 39.0099C335.157 41.4302 338.193 42.6403 341.933 42.6403Z" fill="url(#paint7_linear_48_180)"/>
<path d="M389.423 50.8911H379.126V16.1056H366.189V6.99673H402.36V16.1056H389.423V50.8911Z" fill="url(#paint8_linear_48_180)"/>
<path d="M437.044 42.0462V50.8911H406.747V6.99673H435.658V15.8416H416.912V24.3565H433.941V33.0033H416.912V42.0462H437.044Z" fill="url(#paint9_linear_48_180)"/>
<path d="M448.053 48.2509V38.6139C452.981 41.5622 457.734 43.0363 462.31 43.0363C464.819 43.0363 466.689 42.7063 467.921 42.0462C469.153 41.3862 469.769 40.2641 469.769 38.6799C469.769 37.5798 469.351 36.6777 468.515 35.9736C467.679 35.2256 466.161 34.4115 463.96 33.5314L459.736 31.8152C456.26 30.4511 453.597 28.8229 451.749 26.9307C449.901 24.9945 448.977 22.4203 448.977 19.208C448.977 15.1155 450.385 11.9472 453.201 9.703C456.062 7.45878 460 6.33667 465.017 6.33667C470.077 6.33667 474.742 7.17275 479.01 8.84492V18.0858C474.698 15.9736 470.517 14.9175 466.469 14.9175C462.2 14.9175 460.066 16.1717 460.066 18.6799C460.066 20 460.484 21.0121 461.32 21.7162C462.2 22.4203 463.696 23.2124 465.809 24.0924L469.835 25.8086C473.795 27.4808 476.634 29.197 478.35 30.9571C480.066 32.7173 480.924 35.0935 480.924 38.0858C480.924 42.3983 479.406 45.7426 476.37 48.1188C473.333 50.4951 469.021 51.6832 463.432 51.6832C457.756 51.6832 452.629 50.5391 448.053 48.2509Z" fill="url(#paint10_linear_48_180)"/>
<path d="M527.552 6.99673V30.3631C527.552 33.1794 527.398 35.3576 527.09 36.8977C526.121 41.6942 523.921 45.3686 520.489 47.9208C517.057 50.4731 512.634 51.7492 507.222 51.7492C501.721 51.7492 497.255 50.4731 493.822 47.9208C490.39 45.3246 488.41 41.7382 487.882 37.1617C487.662 35.1816 487.552 33.1133 487.552 30.9571V6.99673H497.915V30.7591C497.915 32.6953 498.003 34.2795 498.179 35.5116C498.971 40.2641 502.117 42.6403 507.618 42.6403C510.17 42.6403 512.238 42.0682 513.822 40.9241C515.406 39.736 516.419 37.9978 516.859 35.7096C517.079 34.6975 517.189 33.0473 517.189 30.7591V6.99673H527.552Z" fill="url(#paint11_linear_48_180)"/>
<path d="M546.582 50.8911H536.219V6.99673C546.472 6.82071 552.412 6.7327 554.04 6.7327C559.145 6.7327 562.995 7.6348 565.592 9.43898C569.068 11.7712 570.806 15.4676 570.806 20.5281C570.806 22.9483 570.322 25.1926 569.354 27.2608C568.386 29.329 567.022 30.9791 565.262 32.2113C562.489 34.1474 558.859 35.1155 554.37 35.1155H546.582V50.8911ZM546.582 27.1287H552.39C555.03 27.1287 556.901 26.6887 558.001 25.8086C559.453 24.7525 560.179 23.1023 560.179 20.8581C560.179 17.0297 557.715 15.1155 552.786 15.1155L546.582 15.3136V27.1287Z" fill="url(#paint12_linear_48_180)"/>
<path d="M587.449 50.8911H577.086V6.99673C587.339 6.82071 593.28 6.7327 594.908 6.7327C600.012 6.7327 603.863 7.6348 606.459 9.43898C609.935 11.7712 611.673 15.4676 611.673 20.5281C611.673 22.9483 611.189 25.1926 610.221 27.2608C609.253 29.329 607.889 30.9791 606.129 32.2113C603.357 34.1474 599.726 35.1155 595.238 35.1155H587.449V50.8911ZM587.449 27.1287H593.258C595.898 27.1287 597.768 26.6887 598.868 25.8086C600.32 24.7525 601.046 23.1023 601.046 20.8581C601.046 17.0297 598.582 15.1155 593.654 15.1155L587.449 15.3136V27.1287Z" fill="url(#paint13_linear_48_180)"/>
<path d="M638.151 51.7492C631.287 51.7492 625.786 49.615 621.65 45.3466C617.557 41.0341 615.511 35.5776 615.511 28.9769C615.511 22.1562 617.711 16.6557 622.112 12.4753C626.556 8.29486 632.167 6.20465 638.943 6.20465C645.588 6.20465 651.023 8.25085 655.247 12.3433C659.516 16.3917 661.65 21.7602 661.65 28.4489C661.65 35.2696 659.471 40.8581 655.115 45.2146C650.803 49.571 645.148 51.7492 638.151 51.7492ZM638.679 42.6403C642.376 42.6403 645.346 41.4302 647.59 39.0099C649.879 36.5897 651.023 33.2454 651.023 28.9769C651.023 24.5765 649.879 21.1882 647.59 18.8119C645.346 16.4357 642.42 15.2476 638.811 15.2476C634.983 15.2476 631.903 16.4577 629.57 18.8779C627.282 21.2982 626.138 24.6645 626.138 28.9769C626.138 33.2014 627.282 36.5457 629.57 39.0099C631.903 41.4302 634.939 42.6403 638.679 42.6403Z" fill="url(#paint14_linear_48_180)"/>
<path d="M708.028 50.8911H696.608L690.668 40.3301C689.392 38.1739 688.314 36.7437 687.434 36.0396C686.201 35.0715 684.507 34.5875 682.351 34.5875H678.919V50.8911H668.556V6.93073C677.797 6.75471 683.231 6.6667 684.859 6.6667C690.36 6.6667 694.408 7.34877 697.004 8.7129C698.941 9.76901 700.437 11.2652 701.493 13.2013C702.593 15.1375 703.143 17.3158 703.143 19.736C703.143 23.8724 701.405 27.1067 697.929 29.439C696.828 30.2311 695.508 30.7811 693.968 31.0891C695.376 31.4852 696.608 32.2553 697.665 33.3994C698.765 34.6315 699.799 36.1496 700.767 37.9538L708.028 50.8911ZM678.919 26.4027H685.189C687.39 26.4027 689.018 26.0286 690.074 25.2806C691.702 24.1804 692.516 22.6623 692.516 20.7261C692.516 18.5259 691.592 16.9857 689.744 16.1056C688.644 15.5336 686.949 15.2476 684.661 15.2476L678.919 15.4456V26.4027Z" fill="url(#paint15_linear_48_180)"/>
<path d="M730.904 50.8911H720.607V16.1056H707.67V6.99673H743.841V16.1056H730.904V50.8911Z" fill="url(#paint16_linear_48_180)"/>
<defs>
<linearGradient id="paint0_linear_48_180" x1="82.7992" y1="8.97385" x2="82.7992" y2="48.0718" gradientUnits="userSpaceOnUse">
<stop stop-color="#48BDFF"/>
<stop offset="1" stop-color="#3A88FE"/>
</linearGradient>
<linearGradient id="paint1_linear_48_180" x1="82.7992" y1="8.97385" x2="82.7992" y2="48.0718" gradientUnits="userSpaceOnUse">
<stop stop-color="#48BDFF"/>
<stop offset="1" stop-color="#3A88FE"/>
</linearGradient>
<linearGradient id="paint2_linear_48_180" x1="82.7992" y1="8.97385" x2="82.7992" y2="48.0718" gradientUnits="userSpaceOnUse">
<stop stop-color="#48BDFF"/>
<stop offset="1" stop-color="#3A88FE"/>
</linearGradient>
<linearGradient id="paint3_linear_48_180" x1="82.7992" y1="8.97385" x2="82.7992" y2="48.0718" gradientUnits="userSpaceOnUse">
<stop stop-color="#48BDFF"/>
<stop offset="1" stop-color="#3A88FE"/>
</linearGradient>
<linearGradient id="paint4_linear_48_180" x1="311.585" y1="10.8057" x2="311.585" y2="34.0439" gradientUnits="userSpaceOnUse">
<stop stop-color="#A8A8A8"/>
<stop offset="1" stop-color="#7A7A7A"/>
</linearGradient>
<linearGradient id="paint5_linear_48_180" x1="311.585" y1="10.8057" x2="311.585" y2="34.0439" gradientUnits="userSpaceOnUse">
<stop stop-color="#A8A8A8"/>
<stop offset="1" stop-color="#7A7A7A"/>
</linearGradient>
<linearGradient id="paint6_linear_48_180" x1="311.585" y1="10.8057" x2="311.585" y2="34.0439" gradientUnits="userSpaceOnUse">
<stop stop-color="#A8A8A8"/>
<stop offset="1" stop-color="#7A7A7A"/>
</linearGradient>
<linearGradient id="paint7_linear_48_180" x1="311.585" y1="10.8057" x2="311.585" y2="34.0439" gradientUnits="userSpaceOnUse">
<stop stop-color="#A8A8A8"/>
<stop offset="1" stop-color="#7A7A7A"/>
</linearGradient>
<linearGradient id="paint8_linear_48_180" x1="311.585" y1="10.8057" x2="311.585" y2="34.0439" gradientUnits="userSpaceOnUse">
<stop stop-color="#A8A8A8"/>
<stop offset="1" stop-color="#7A7A7A"/>
</linearGradient>
<linearGradient id="paint9_linear_48_180" x1="311.585" y1="10.8057" x2="311.585" y2="34.0439" gradientUnits="userSpaceOnUse">
<stop stop-color="#A8A8A8"/>
<stop offset="1" stop-color="#7A7A7A"/>
</linearGradient>
<linearGradient id="paint10_linear_48_180" x1="594.963" y1="13.0165" x2="594.963" y2="42.6948" gradientUnits="userSpaceOnUse">
<stop stop-color="#48BDFF"/>
<stop offset="1" stop-color="#3A88FE"/>
</linearGradient>
<linearGradient id="paint11_linear_48_180" x1="594.963" y1="13.0165" x2="594.963" y2="42.6948" gradientUnits="userSpaceOnUse">
<stop stop-color="#48BDFF"/>
<stop offset="1" stop-color="#3A88FE"/>
</linearGradient>
<linearGradient id="paint12_linear_48_180" x1="594.963" y1="13.0165" x2="594.963" y2="42.6948" gradientUnits="userSpaceOnUse">
<stop stop-color="#48BDFF"/>
<stop offset="1" stop-color="#3A88FE"/>
</linearGradient>
<linearGradient id="paint13_linear_48_180" x1="594.963" y1="13.0165" x2="594.963" y2="42.6948" gradientUnits="userSpaceOnUse">
<stop stop-color="#48BDFF"/>
<stop offset="1" stop-color="#3A88FE"/>
</linearGradient>
<linearGradient id="paint14_linear_48_180" x1="594.963" y1="13.0165" x2="594.963" y2="42.6948" gradientUnits="userSpaceOnUse">
<stop stop-color="#48BDFF"/>
<stop offset="1" stop-color="#3A88FE"/>
</linearGradient>
<linearGradient id="paint15_linear_48_180" x1="594.963" y1="13.0165" x2="594.963" y2="42.6948" gradientUnits="userSpaceOnUse">
<stop stop-color="#48BDFF"/>
<stop offset="1" stop-color="#3A88FE"/>
</linearGradient>
<linearGradient id="paint16_linear_48_180" x1="594.963" y1="13.0165" x2="594.963" y2="42.6948" gradientUnits="userSpaceOnUse">
<stop stop-color="#48BDFF"/>
<stop offset="1" stop-color="#3A88FE"/>
</linearGradient>
</defs>
</svg>
