<?xml version="1.0" encoding="UTF-8"?> <svg xmlns="http://www.w3.org/2000/svg" xmlns:xlink="http://www.w3.org/1999/xlink" version="1.1" id="Layer_1" x="0px" y="0px" viewBox="0 0 2448.5 403.4" style="enable-background:new 0 0 2448.5 403.4;" xml:space="preserve"> <style type="text/css"> .st0{fill:#9CA3AF;} </style> <g> <path class="st0" d="M357.9,378.1h106.9V19.7H357.9V378.1L357.9,378.1z M550,378.1h276.7v-71.3H656.9v-73.4h148.8v-69.2H656.9V90.9 h169.8V19.7H550V378.1z M1119.2,232.4l-94.3-212.8H885.4V378h85.9V164.3l94.3,213.8h70.2l101.7-219v219h106.9V19.7h-126.8 L1119.2,232.4L1119.2,232.4z M2023.6,239.8L1889.4,19.7H1772v358.4h75.5V157l135.2,221.1H2099V19.7h-75.5L2023.6,239.8 L2023.6,239.8z M1428.5,378.1h276.7v-71.3h-169.8v-73.4h148.8v-69.2h-148.8V90.9h169.8V19.7h-276.7V378.1L1428.5,378.1z M242.6,184.2c-30.4-13.6-77.6-37.7-110.1-52.4C102,118,101.1,45.9,277.2,99.3V31.2C240.5,18.6,139.9-5.5,64.4,36.5 c-75.5,41.9-57.6,145.7,0,180.3c25.1,13.6,59.7,26.2,103.8,45.1c36.5,15.6,58.7,95.4-149.9,40.9V373c43,15.7,200.2,32.5,246.3-18.9 C322.2,289.9,296.1,206.2,242.6,184.2L242.6,184.2z M2386.7,184.2c-30.4-13.6-77.6-37.7-110-52.4c-30.5-13.8-31.4-85.9,144.6-32.5 V31.2c-36.7-12.6-137.3-36.7-212.7,5.2c-75.5,41.9-57.7,145.7,0,180.3c25.1,13.6,59.7,26.2,103.8,45.1 c36.5,15.6,58.7,95.4-149.9,40.9v70.2c43,15.7,200.2,32.5,246.3-18.9C2466.3,289.9,2440.2,206.2,2386.7,184.2L2386.7,184.2z"></path> </g> </svg> 