<svg width="102" height="17" viewBox="0 0 102 17" fill="none" xmlns="http://www.w3.org/2000/svg">
<path d="M8.33097 0.636614C8.629 -0.212205 9.92345 -0.212205 10.2205 0.636614L11.7295 4.9443C11.7945 5.12907 11.9207 5.29007 12.0902 5.40429C12.2597 5.5185 12.4638 5.58008 12.6733 5.58022H17.556C18.5187 5.58022 18.918 6.72304 18.1402 7.24837L14.1903 9.91003C14.0206 10.0245 13.8943 10.1858 13.8295 10.3709C13.7648 10.556 13.7648 10.7553 13.8296 10.9404L15.3377 15.2481C15.6357 16.0978 14.5876 16.8038 13.8098 16.2785L9.85987 13.6168C9.69011 13.5023 9.48562 13.4407 9.27573 13.4407C9.06585 13.4407 8.86136 13.5023 8.69159 13.6168L4.74168 16.2785C3.96382 16.8038 2.91575 16.0969 3.21378 15.2481L4.72182 10.9404C4.78667 10.7553 4.7867 10.556 4.72192 10.3709C4.65714 10.1858 4.53087 10.0245 4.3612 9.91003L0.411292 7.24837C-0.367562 6.72304 0.0337863 5.58022 0.995433 5.58022H5.87718C6.08685 5.58027 6.29115 5.51878 6.46085 5.40456C6.63055 5.29033 6.75695 5.12922 6.82194 4.9443L8.33097 0.636614V0.636614Z" fill="#FFA44B"/>
<path d="M29.1932 0.636599C29.4912 -0.21222 30.7856 -0.21222 31.0827 0.636599L32.5917 4.94428C32.6567 5.12906 32.7829 5.29006 32.9524 5.40427C33.1219 5.51848 33.326 5.58006 33.5355 5.58021H38.4182C39.3809 5.58021 39.7802 6.72302 39.0024 7.24835L35.0525 9.91001C34.8828 10.0244 34.7565 10.1858 34.6917 10.3709C34.627 10.556 34.627 10.7553 34.6918 10.9404L36.1999 15.2481C36.4979 16.0978 35.4498 16.8038 34.672 16.2785L30.7221 13.6168C30.5523 13.5023 30.3478 13.4406 30.1379 13.4406C29.928 13.4406 29.7236 13.5023 29.5538 13.6168L25.6039 16.2785C24.826 16.8038 23.7779 16.0969 24.076 15.2481L25.584 10.9404C25.6489 10.7553 25.6489 10.556 25.5841 10.3709C25.5193 10.1858 25.3931 10.0244 25.2234 9.91001L21.2735 7.24835C20.4946 6.72302 20.896 5.58021 21.8576 5.58021H26.7394C26.949 5.58026 27.1533 5.51877 27.323 5.40454C27.4927 5.29032 27.6191 5.12921 27.6841 4.94428L29.1932 0.636599V0.636599Z" fill="#FFA44B"/>
<path d="M50.0553 0.636599C50.3534 -0.21222 51.6478 -0.21222 51.9448 0.636599L53.4539 4.94428C53.5188 5.12906 53.6451 5.29006 53.8146 5.40427C53.9841 5.51848 54.1881 5.58006 54.3976 5.58021H59.2804C60.243 5.58021 60.6424 6.72302 59.8645 7.24835L55.9146 9.91001C55.7449 10.0244 55.6187 10.1858 55.5539 10.3709C55.4891 10.556 55.4892 10.7553 55.554 10.9404L57.062 15.2481C57.3601 16.0978 56.312 16.8038 55.5341 16.2785L51.5842 13.6168C51.4145 13.5023 51.21 13.4406 51.0001 13.4406C50.7902 13.4406 50.5857 13.5023 50.4159 13.6168L46.466 16.2785C45.6882 16.8038 44.6401 16.0969 44.9381 15.2481L46.4462 10.9404C46.511 10.7553 46.5111 10.556 46.4463 10.3709C46.3815 10.1858 46.2552 10.0244 46.0856 9.91001L42.1356 7.24835C41.3568 6.72302 41.7581 5.58021 42.7198 5.58021H47.6015C47.8112 5.58026 48.0155 5.51877 48.1852 5.40454C48.3549 5.29032 48.4813 5.12921 48.5463 4.94428L50.0553 0.636599V0.636599Z" fill="#FFA44B"/>
<path d="M70.9175 0.636599C71.2156 -0.21222 72.51 -0.21222 72.807 0.636599L74.3161 4.94428C74.381 5.12906 74.5073 5.29006 74.6768 5.40427C74.8463 5.51848 75.0503 5.58006 75.2598 5.58021H80.1426C81.1052 5.58021 81.5046 6.72302 80.7267 7.24835L76.7768 9.91001C76.6071 10.0244 76.4809 10.1858 76.4161 10.3709C76.3513 10.556 76.3513 10.7553 76.4162 10.9404L77.9242 15.2481C78.2223 16.0978 77.1742 16.8038 76.3963 16.2785L72.4464 13.6168C72.2767 13.5023 72.0722 13.4406 71.8623 13.4406C71.6524 13.4406 71.4479 13.5023 71.2781 13.6168L67.3282 16.2785C66.5504 16.8038 65.5023 16.0969 65.8003 15.2481L67.3084 10.9404C67.3732 10.7553 67.3733 10.556 67.3085 10.3709C67.2437 10.1858 67.1174 10.0244 66.9477 9.91001L62.9978 7.24835C62.219 6.72302 62.6203 5.58021 63.582 5.58021H68.4637C68.6734 5.58026 68.8777 5.51877 69.0474 5.40454C69.2171 5.29032 69.3435 5.12921 69.4085 4.94428L70.9175 0.636599V0.636599Z" fill="#FFA44B"/>
<path d="M91.7797 0.636599C92.0777 -0.21222 93.3722 -0.21222 93.6692 0.636599L95.1782 4.94428C95.2432 5.12906 95.3694 5.29006 95.5389 5.40427C95.7084 5.51848 95.9125 5.58006 96.122 5.58021H101.005C101.967 5.58021 102.367 6.72302 101.589 7.24835L97.639 9.91001C97.4693 10.0244 97.343 10.1858 97.2782 10.3709C97.2135 10.556 97.2135 10.7553 97.2784 10.9404L98.7864 15.2481C99.0844 16.0978 98.0363 16.8038 97.2585 16.2785L93.3086 13.6168C93.1388 13.5023 92.9343 13.4406 92.7244 13.4406C92.5146 13.4406 92.3101 13.5023 92.1403 13.6168L88.1904 16.2785C87.4125 16.8038 86.3645 16.0969 86.6625 15.2481L88.1705 10.9404C88.2354 10.7553 88.2354 10.556 88.1706 10.3709C88.1059 10.1858 87.9796 10.0244 87.8099 9.91001L83.86 7.24835C83.0811 6.72302 83.4825 5.58021 84.4441 5.58021H89.3259C89.5356 5.58026 89.7399 5.51877 89.9096 5.40454C90.0793 5.29032 90.2057 5.12921 90.2706 4.94428L91.7797 0.636599V0.636599Z" fill="#FFA44B"/>
</svg>
