<svg width="110" height="47" viewBox="0 0 110 47" fill="none" xmlns="http://www.w3.org/2000/svg">
<path d="M8.98438 29.6865C9.30579 28.7712 10.7018 28.7712 11.0221 29.6865L12.6495 34.3321C12.7195 34.5314 12.8557 34.705 13.0385 34.8282C13.2213 34.9513 13.4413 35.0177 13.6673 35.0179H18.933C19.9711 35.0179 20.4018 36.2503 19.5629 36.8169L15.3032 39.6873C15.1202 39.8107 14.9841 39.9847 14.9142 40.1843C14.8444 40.3839 14.8444 40.5989 14.9143 40.7985L16.5406 45.444C16.862 46.3604 15.7318 47.1217 14.8929 46.5552L10.6332 43.6848C10.4501 43.5613 10.2296 43.4948 10.0032 43.4948C9.7769 43.4948 9.55637 43.5613 9.37328 43.6848L5.11358 46.5552C4.27471 47.1217 3.14443 46.3594 3.46584 45.444L5.09215 40.7985C5.16209 40.5989 5.16213 40.3839 5.09227 40.1843C5.02241 39.9847 4.88623 39.8107 4.70325 39.6873L0.443551 36.8169C-0.396391 36.2503 0.0364362 35.0179 1.07351 35.0179H6.33814C6.56425 35.0179 6.78457 34.9516 6.96759 34.8284C7.1506 34.7053 7.2869 34.5315 7.357 34.3321L8.98438 29.6865V29.6865Z" fill="#FFA44B"/>
<path d="M31.4828 29.6865C31.8042 28.7711 33.2002 28.7711 33.5205 29.6865L35.1479 34.3321C35.218 34.5313 35.3541 34.705 35.5369 34.8281C35.7197 34.9513 35.9398 35.0177 36.1657 35.0179H41.4314C42.4696 35.0179 42.9002 36.2503 42.0614 36.8169L37.8017 39.6873C37.6187 39.8107 37.4825 39.9847 37.4127 40.1843C37.3428 40.3839 37.3428 40.5989 37.4128 40.7985L39.0391 45.444C39.3605 46.3604 38.2302 47.1217 37.3913 46.5552L33.1316 43.6848C32.9486 43.5613 32.728 43.4948 32.5017 43.4948C32.2753 43.4948 32.0548 43.5613 31.8717 43.6848L27.612 46.5552C26.7732 47.1217 25.6429 46.3594 25.9643 45.444L27.5906 40.7985C27.6605 40.5989 27.6606 40.3839 27.5907 40.1843C27.5209 39.9847 27.3847 39.8107 27.2017 39.6873L22.942 36.8169C22.1021 36.2503 22.5349 35.0179 23.572 35.0179H28.8366C29.0627 35.0179 29.283 34.9516 29.466 34.8284C29.649 34.7052 29.7853 34.5315 29.8554 34.3321L31.4828 29.6865V29.6865Z" fill="#FFA44B"/>
<path d="M53.9812 29.6865C54.3026 28.7711 55.6986 28.7711 56.019 29.6865L57.6463 34.3321C57.7164 34.5313 57.8525 34.705 58.0353 34.8281C58.2181 34.9513 58.4382 35.0177 58.6641 35.0179H63.9298C64.968 35.0179 65.3987 36.2503 64.5598 36.8169L60.3001 39.6873C60.1171 39.8107 59.9809 39.9847 59.9111 40.1843C59.8412 40.3839 59.8412 40.5989 59.9112 40.7985L61.5375 45.444C61.8589 46.3604 60.7286 47.1217 59.8898 46.5552L55.6301 43.6848C55.447 43.5613 55.2264 43.4948 55.0001 43.4948C54.7738 43.4948 54.5532 43.5613 54.3701 43.6848L50.1104 46.5552C49.2716 47.1217 48.1413 46.3594 48.4627 45.444L50.089 40.7985C50.1589 40.5989 50.159 40.3839 50.0891 40.1843C50.0193 39.9847 49.8831 39.8107 49.7001 39.6873L45.4404 36.8169C44.6005 36.2503 45.0333 35.0179 46.0704 35.0179H51.335C51.5611 35.0179 51.7814 34.9516 51.9644 34.8284C52.1475 34.7052 52.2838 34.5315 52.3539 34.3321L53.9812 29.6865V29.6865Z" fill="#FFA44B"/>
<path d="M76.4797 29.6865C76.8011 28.7711 78.1971 28.7711 78.5174 29.6865L80.1448 34.3321C80.2148 34.5313 80.351 34.705 80.5338 34.8281C80.7166 34.9513 80.9366 35.0177 81.1626 35.0179H86.4283C87.4664 35.0179 87.8971 36.2503 87.0582 36.8169L82.7985 39.6873C82.6155 39.8107 82.4794 39.9847 82.4095 40.1843C82.3397 40.3839 82.3397 40.5989 82.4096 40.7985L84.0359 45.444C84.3573 46.3604 83.2271 47.1217 82.3882 46.5552L78.1285 43.6848C77.9454 43.5613 77.7249 43.4948 77.4985 43.4948C77.2722 43.4948 77.0517 43.5613 76.8686 43.6848L72.6089 46.5552C71.77 47.1217 70.6397 46.3594 70.9611 45.444L72.5875 40.7985C72.6574 40.5989 72.6574 40.3839 72.5876 40.1843C72.5177 39.9847 72.3815 39.8107 72.1986 39.6873L67.9389 36.8169C67.0989 36.2503 67.5317 35.0179 68.5688 35.0179H73.8334C74.0595 35.0179 74.2799 34.9516 74.4629 34.8284C74.6459 34.7052 74.7822 34.5315 74.8523 34.3321L76.4797 29.6865V29.6865Z" fill="#FFA44B"/>
<path d="M98.9781 29.6865C99.2995 28.7711 100.695 28.7711 101.016 29.6865L102.643 34.3321C102.713 34.5313 102.849 34.705 103.032 34.8281C103.215 34.9513 103.435 35.0177 103.661 35.0179H108.927C109.965 35.0179 110.396 36.2503 109.557 36.8169L105.297 39.6873C105.114 39.8107 104.978 39.9847 104.908 40.1843C104.838 40.3839 104.838 40.5989 104.908 40.7985L106.534 45.444C106.856 46.3604 105.725 47.1217 104.887 46.5552L100.627 43.6848C100.444 43.5613 100.223 43.4948 99.997 43.4948C99.7706 43.4948 99.5501 43.5613 99.367 43.6848L95.1073 46.5552C94.2684 47.1217 93.1381 46.3594 93.4596 45.444L95.0859 40.7985C95.1558 40.5989 95.1558 40.3839 95.086 40.1843C95.0161 39.9847 94.8799 39.8107 94.697 39.6873L90.4373 36.8169C89.5973 36.2503 90.0301 35.0179 91.0672 35.0179H96.3319C96.558 35.0179 96.7783 34.9516 96.9613 34.8284C97.1443 34.7052 97.2806 34.5315 97.3507 34.3321L98.9781 29.6865V29.6865Z" fill="#FFA44B"/>
<path d="M11.2832 9.18424C11.2832 5.95784 10.1467 4.50962 9.52337 3.94134C9.41338 3.83135 9.21173 3.923 9.23006 4.08799C9.34006 5.90284 7.04858 6.36113 7.04858 9.20256V9.2209C7.04858 10.9624 8.36847 12.374 9.98167 12.374C11.5949 12.374 12.9148 10.9624 12.9148 9.2209V9.20256C12.9148 8.39596 12.6031 7.62603 12.3098 7.03941C12.2365 6.92942 12.0715 6.96609 12.0898 7.07608C12.6581 9.5692 11.2832 11.0724 11.2832 9.18424ZM7.78185 15.9853C7.70852 15.9853 7.6352 15.9487 7.5802 15.8937L0.0824931 8.39597C-0.0274977 8.28597 -0.0274977 8.10266 0.0824931 7.99267L8.00183 0.0733261C8.05683 0.0366625 8.11182 0 8.18515 0H10.4583C10.5866 0 10.6783 0.0916579 10.7149 0.164985C10.7516 0.256644 10.7516 0.366634 10.6416 0.476625L3.21723 7.91934C3.07058 8.06599 3.07058 8.30431 3.21723 8.45096L9.10174 14.3538C9.21173 14.4638 9.21173 14.6471 9.10174 14.7571L7.96517 15.8937C7.92851 15.9487 7.85518 15.9853 7.78185 15.9853ZM9.28506 17.2869C9.15674 17.2869 9.06508 17.1952 9.02841 17.1219C8.99175 17.0302 8.99175 16.9203 9.10174 16.8103L16.5445 9.36755C16.6178 9.29423 16.6544 9.20257 16.6544 9.09258C16.6544 8.98259 16.6178 8.89093 16.5445 8.8176L10.6416 2.91476C10.5316 2.80477 10.5316 2.62145 10.6416 2.51146L11.7782 1.37489C11.8332 1.31989 11.8882 1.28323 11.9798 1.28323C12.0715 1.28323 12.1082 1.33822 12.1632 1.39322L19.6425 8.89093C19.6975 8.94592 19.7342 9.00092 19.7342 9.09258C19.7342 9.18424 19.6975 9.23923 19.6425 9.29422L11.7232 17.2136C11.6682 17.2686 11.6132 17.3052 11.5215 17.3052L9.28506 17.2869Z" fill="#FF6600"/>
<path d="M28.1668 5.40788C28.1301 5.48121 28.0752 5.51788 28.0018 5.51788C27.9468 5.51788 27.8918 5.48121 27.8002 5.40788C27.7085 5.33456 27.5985 5.2429 27.4702 5.15124C27.3235 5.04125 27.1586 4.96792 26.9386 4.89459C26.7186 4.80293 26.4436 4.7846 26.132 4.7846C25.8203 4.7846 25.5454 4.83959 25.2887 4.91292C25.0504 5.00458 24.8488 5.1329 24.6838 5.27956C24.5188 5.42621 24.3905 5.60953 24.3171 5.81118C24.2255 6.01283 24.1888 6.23281 24.1888 6.45279C24.1888 6.76443 24.2621 6.98442 24.3721 7.18607C24.4821 7.36938 24.6654 7.53437 24.8854 7.68103C25.0871 7.80935 25.3254 7.93767 25.6004 8.011C25.8753 8.12099 26.132 8.19431 26.407 8.28597C26.6819 8.37763 26.9386 8.46929 27.2136 8.59762C27.4885 8.70761 27.7085 8.85426 27.9285 9.00092C28.1485 9.14757 28.2951 9.36755 28.4418 9.60587C28.5518 9.84418 28.6251 10.1375 28.6251 10.5041C28.6251 10.8708 28.5518 11.2191 28.4418 11.5307C28.3318 11.8423 28.1301 12.1357 27.9102 12.374C27.6902 12.6123 27.3785 12.7956 27.0302 12.9423C26.6819 13.0706 26.297 13.1439 25.857 13.1439C25.2887 13.1439 24.7754 13.0339 24.3721 12.8323C23.9505 12.6306 23.6022 12.3373 23.2722 11.989L23.3822 11.714C23.4372 11.6407 23.4922 11.6224 23.5472 11.6224C23.5839 11.6224 23.6389 11.6407 23.6755 11.6957C23.7305 11.7507 23.8038 11.8057 23.8772 11.879C23.9688 11.9523 24.0605 12.0257 24.1888 12.1173C24.3171 12.209 24.4455 12.2823 24.5921 12.3556C24.7388 12.429 24.9037 12.484 25.1054 12.539C25.307 12.594 25.527 12.6123 25.7837 12.6123C26.132 12.6123 26.4436 12.5573 26.7186 12.4656C26.9936 12.3556 27.2319 12.209 27.4152 12.044C27.5985 11.879 27.7452 11.6407 27.8552 11.4024C27.9652 11.1457 28.0018 10.8891 28.0018 10.6141C28.0018 10.3025 27.9285 10.0642 27.8185 9.86251C27.7085 9.66086 27.5252 9.49588 27.3052 9.34922C27.1036 9.2209 26.8653 9.09257 26.5903 9.01925C26.3153 8.92759 26.0587 8.83593 25.7837 8.74427C25.5087 8.65261 25.2521 8.56096 24.9771 8.45096C24.7021 8.34097 24.4821 8.21265 24.2621 8.04766C24.0605 7.88268 23.8955 7.68103 23.7488 7.42438C23.6389 7.16774 23.5655 6.87443 23.5655 6.48946C23.5655 6.19615 23.6205 5.92117 23.7305 5.64619C23.8405 5.37122 24.0055 5.1329 24.2255 4.91292C24.4455 4.71127 24.7021 4.54629 25.0137 4.39963C25.3254 4.28964 25.692 4.21632 26.0953 4.21632C26.5536 4.21632 26.9569 4.28964 27.3235 4.43629C27.6719 4.58295 28.0202 4.80293 28.3135 5.09624L28.1668 5.40788ZM25.7653 13.2906C25.1787 13.2906 24.6471 13.1806 24.2255 12.9789C23.8038 12.7773 23.4189 12.4656 23.0889 12.1173L23.0339 12.0623L23.2539 11.7324C23.3639 11.6224 23.4372 11.604 23.5105 11.604C23.5839 11.604 23.6389 11.6407 23.7122 11.714C23.7672 11.769 23.8405 11.824 23.9322 11.8973C24.0238 11.9707 24.1155 12.044 24.2255 12.1357C24.3355 12.2273 24.4638 12.2823 24.6104 12.3556C24.7571 12.429 24.9221 12.484 25.1237 12.5206C25.307 12.5756 25.527 12.5939 25.7837 12.5939C26.1136 12.5939 26.4253 12.539 26.6819 12.4473C26.9386 12.3373 27.1586 12.209 27.3419 12.044C27.5069 11.879 27.6535 11.6774 27.7452 11.439C27.8552 11.2007 27.8735 10.9441 27.8735 10.6874C27.8735 10.3941 27.8185 10.1742 27.7085 9.9725C27.5985 9.77085 27.4335 9.64253 27.2319 9.49587C27.0302 9.36755 26.8103 9.25756 26.5536 9.18424C26.297 9.09258 26.0403 9.00092 25.747 8.90926C25.4537 8.8176 25.1971 8.72594 24.9404 8.61595C24.6654 8.50596 24.4271 8.3593 24.2071 8.19431C23.9872 8.02933 23.8222 7.79102 23.6939 7.53437C23.5655 7.2594 23.4922 6.94775 23.4922 6.56278C23.4922 6.25114 23.5472 5.95784 23.6572 5.66453C23.7672 5.37122 23.9505 5.1329 24.1705 4.91292C24.3905 4.69294 24.6838 4.52796 24.9954 4.39963C25.307 4.27131 25.7103 4.19798 26.1136 4.19798C26.5903 4.19798 27.0119 4.27131 27.3785 4.41797C27.7452 4.56462 28.0935 4.80293 28.4051 5.11457L28.4601 5.16957L28.2768 5.51788C28.1668 5.70119 27.9835 5.75618 27.7635 5.5362C27.6719 5.46288 27.5802 5.38955 27.4335 5.29789C27.3052 5.20623 27.1219 5.13291 26.9202 5.04125C26.7186 4.96792 26.462 4.93126 26.1503 4.93126C25.8387 4.93126 25.582 4.98625 25.3437 5.05958C25.1237 5.15124 24.9221 5.26123 24.7754 5.40788C24.6288 5.55454 24.5004 5.71952 24.4271 5.92117C24.3538 6.12282 24.3171 6.32447 24.3171 6.52612C24.3171 6.8011 24.3721 7.03941 24.4821 7.2044C24.5921 7.38772 24.7571 7.53437 24.9587 7.68103C25.1604 7.80935 25.3804 7.91934 25.637 8.011C25.8937 8.10266 26.1503 8.19431 26.4436 8.28597C26.7186 8.37763 26.9936 8.46929 27.2502 8.59762C27.5252 8.70761 27.7635 8.85426 27.9835 9.01925C28.2035 9.18423 28.3685 9.40421 28.4968 9.66086C28.6251 9.9175 28.6984 10.2291 28.6984 10.5958C28.6984 10.9624 28.6251 11.3291 28.4968 11.6774C28.3685 12.0073 28.1851 12.3006 27.9285 12.5573C27.6719 12.8139 27.3785 12.9972 27.0119 13.1439C26.6453 13.1989 26.2236 13.2906 25.7653 13.2906ZM23.3272 12.0257C23.6205 12.3373 23.9505 12.5939 24.3355 12.7773C24.7388 12.9789 25.2337 13.0889 25.7837 13.0889C26.2053 13.0889 26.5903 13.0156 26.9202 12.8873C27.2502 12.7589 27.5252 12.5756 27.7635 12.3556C27.9835 12.1357 28.1668 11.8423 28.2768 11.549C28.3868 11.2374 28.4601 10.9074 28.4601 10.5591C28.4601 10.2291 28.3868 9.93584 28.2951 9.69753C28.1851 9.47754 28.0202 9.27589 27.8185 9.12924C27.6169 8.98258 27.3969 8.83593 27.1402 8.72594C26.8836 8.61595 26.6269 8.52429 26.352 8.4143C26.077 8.32264 25.8203 8.23098 25.5454 8.13932C25.2704 8.02933 25.0321 7.91934 24.8121 7.79102C24.5921 7.6627 24.4271 7.47937 24.2988 7.27772C24.1705 7.07607 24.0971 6.8011 24.0971 6.48946C24.0971 6.25115 24.1521 6.01283 24.2255 5.79285C24.2988 5.57287 24.4455 5.37122 24.6104 5.22457C24.7754 5.05958 24.9954 4.91292 25.2521 4.8396C25.5087 4.72961 25.802 4.71127 26.132 4.71127C26.462 4.71127 26.7369 4.74794 26.9752 4.82126C27.1952 4.91292 27.3969 4.98625 27.5252 5.09624C27.6719 5.20623 27.8002 5.27956 27.8735 5.37122C27.9835 5.46288 28.0018 5.46288 28.0018 5.46288C28.0202 5.46288 28.0568 5.46288 28.0752 5.40788L28.1851 5.1879C27.9102 4.93125 27.6169 4.72961 27.2869 4.60128C26.9386 4.47296 26.5536 4.39963 26.1136 4.39963C25.7287 4.39963 25.3804 4.47296 25.0687 4.58295C24.7571 4.69294 24.5188 4.87626 24.3171 5.05958C24.1155 5.26123 23.9688 5.48121 23.8405 5.75619C23.7305 6.01283 23.6939 6.26948 23.6939 6.56278C23.6939 6.91109 23.7672 7.22273 23.8772 7.46104C23.9872 7.69936 24.1521 7.90101 24.3538 8.04766C24.5554 8.19432 24.7754 8.34097 25.0321 8.43263C25.2887 8.54262 25.5454 8.63428 25.8203 8.72594C26.0953 8.8176 26.352 8.89093 26.6269 9.00092C26.9019 9.11091 27.1402 9.20257 27.3602 9.34922C27.5802 9.47754 27.7635 9.66086 27.8735 9.88084C28.0018 10.1008 28.0752 10.3758 28.0752 10.7058C28.0752 11.0174 28.0202 11.2741 27.9285 11.549C27.8185 11.824 27.6719 12.044 27.4702 12.2273C27.2686 12.4106 27.0302 12.5573 26.7369 12.6856C26.4436 12.7956 26.132 12.8506 25.7837 12.8506C25.527 12.8506 25.2887 12.8139 25.0687 12.7589C24.8671 12.7039 24.6838 12.6489 24.5371 12.5756C24.3905 12.5023 24.2255 12.429 24.1155 12.319C24.0055 12.2273 23.8955 12.154 23.8038 12.0807C23.7122 12.0073 23.6572 11.9523 23.6022 11.8973C23.5472 11.8423 23.5105 11.8423 23.5105 11.8423C23.4922 11.8423 23.4555 11.8423 23.4189 11.8973L23.3272 12.0257ZM38.1943 8.70761C38.1943 9.38589 38.0843 9.99084 37.8827 10.5408C37.681 11.0907 37.3877 11.5674 37.0211 11.9523C36.6544 12.3373 36.2145 12.6489 35.7012 12.8689C35.1879 13.0889 34.6196 13.1806 33.9963 13.1806C33.3914 13.1806 32.8231 13.0706 32.3098 12.8689C31.7965 12.6489 31.3749 12.3556 30.9899 11.9523C30.6233 11.5674 30.33 11.0907 30.1283 10.5408C29.9267 9.99084 29.8167 9.38589 29.8167 8.70761C29.8167 8.02933 29.9267 7.42438 30.1283 6.87443C30.33 6.32447 30.6233 5.84784 30.9899 5.46288C31.3565 5.07791 31.7965 4.76627 32.3098 4.54629C32.8231 4.3263 33.3914 4.23465 33.9963 4.23465C34.6196 4.23465 35.1879 4.34464 35.7012 4.54629C36.2145 4.76627 36.6361 5.05958 37.0211 5.46288C37.3877 5.84784 37.681 6.32447 37.8827 6.87443C38.0843 7.42438 38.1943 8.02933 38.1943 8.70761ZM37.5344 8.70761C37.5344 8.10266 37.4427 7.5527 37.2777 7.05775C37.1127 6.56279 36.8744 6.15949 36.5628 5.82951C36.2511 5.49954 35.8845 5.2429 35.4445 5.05958C35.0046 4.87626 34.5279 4.7846 34.0147 4.7846C33.5014 4.7846 33.0247 4.87626 32.5848 5.05958C32.1448 5.2429 31.7782 5.49954 31.4665 5.82951C31.1549 6.15949 30.9166 6.56279 30.7333 7.05775C30.5499 7.5527 30.4766 8.08433 30.4766 8.70761C30.4766 9.31256 30.5683 9.86251 30.7333 10.3575C30.8982 10.8524 31.1366 11.2557 31.4665 11.5857C31.7782 11.9157 32.1448 12.1723 32.5848 12.3556C33.0247 12.539 33.5014 12.6306 34.0147 12.6306C34.5279 12.6306 35.0229 12.539 35.4445 12.3556C35.8845 12.1907 36.2511 11.9157 36.5628 11.5857C36.8744 11.2557 37.0944 10.8524 37.2777 10.3575C37.461 9.86251 37.5344 9.33089 37.5344 8.70761ZM34.033 13.2722C33.4097 13.2722 32.8231 13.1622 32.3098 12.9606C31.7965 12.7406 31.3382 12.4473 30.9532 12.0257C30.5866 11.6224 30.275 11.1457 30.0733 10.5774C29.8717 10.0275 29.7617 9.38589 29.7617 8.70761C29.7617 8.02933 29.8717 7.38772 30.0733 6.83776C30.275 6.28781 30.5866 5.79285 30.9532 5.38955C31.3199 4.98625 31.7782 4.67461 32.3098 4.45463C32.8231 4.23465 33.4097 4.12466 34.033 4.12466C34.6746 4.12466 35.2429 4.23464 35.7745 4.43629C36.2878 4.65628 36.7461 4.94959 37.1311 5.37122C37.516 5.79285 37.8093 6.26947 38.011 6.81943C38.2126 7.36938 38.3226 7.99267 38.3226 8.68928C38.3226 9.38588 38.2126 10.0092 38.011 10.5591C37.8093 11.1091 37.4977 11.604 37.1311 12.0073C36.7644 12.4106 36.3061 12.7223 35.7745 12.9423C35.2429 13.1622 34.6563 13.2722 34.033 13.2722ZM34.033 4.34464C33.4464 4.34464 32.8964 4.45463 32.3831 4.65628C31.8882 4.85793 31.4482 5.16957 31.0999 5.5362C30.7516 5.90284 30.4583 6.37947 30.275 6.91109C30.0733 7.44271 29.9633 8.04766 29.9633 8.70761C29.9633 9.36755 30.0733 9.9725 30.275 10.5041C30.4766 11.0357 30.7516 11.494 31.0999 11.879C31.4482 12.2456 31.8882 12.5573 32.3831 12.7589C32.8781 12.9606 33.428 13.0706 34.033 13.0706C34.6379 13.0706 35.1879 12.9606 35.6829 12.7589C36.1778 12.5573 36.6178 12.2456 36.9661 11.879C37.3144 11.5124 37.6077 11.0357 37.791 10.5225C37.9927 9.99083 38.1027 9.38589 38.1027 8.72594C38.1027 8.066 37.9927 7.46104 37.791 6.92942C37.5894 6.3978 37.3144 5.9395 36.9661 5.55454C36.6178 5.1879 36.1778 4.87626 35.6829 4.67461C35.1879 4.4363 34.6379 4.34464 34.033 4.34464ZM43.1989 12.6306C43.6205 12.6306 43.9872 12.5573 44.3355 12.4106C44.6654 12.264 44.9404 12.0623 45.1787 11.8057C45.417 11.549 45.582 11.2374 45.692 10.8891C45.802 10.5408 45.8753 10.1558 45.8753 9.75252V4.34464H46.4986V9.75252C46.4986 10.2475 46.407 10.6874 46.2603 11.1091C46.1137 11.5307 45.8937 11.879 45.6004 12.209C45.307 12.5206 44.9587 12.7589 44.5554 12.9423C44.1521 13.1072 43.6755 13.2172 43.1806 13.2172C42.6673 13.2172 42.209 13.1256 41.8057 12.9423C41.4024 12.7589 41.0541 12.5206 40.7608 12.209C40.4675 11.8973 40.2475 11.5307 40.1008 11.1091C39.9542 10.6874 39.8625 10.2291 39.8625 9.75252V4.34464H40.5041V9.73419C40.5041 10.1375 40.5774 10.5225 40.6874 10.8708C40.7974 11.2191 40.9991 11.5307 41.2007 11.7874C41.439 12.044 41.714 12.2456 42.044 12.3923C42.3923 12.5573 42.7773 12.6306 43.1989 12.6306ZM43.1989 13.2906C42.6856 13.2906 42.209 13.1989 41.7873 13.0156C41.3657 12.8323 40.9991 12.5756 40.7058 12.264C40.4125 11.9523 40.1925 11.549 40.0275 11.1274C39.8808 10.7058 39.7892 10.2291 39.7892 9.75252V4.25298H40.6324V9.75252C40.6324 10.1375 40.7058 10.5041 40.7974 10.8708C40.9074 11.2007 41.0907 11.5124 41.3107 11.7507C41.5307 12.0073 41.8057 12.1906 42.1173 12.3373C42.429 12.4656 42.7956 12.5573 43.1989 12.5573C43.6022 12.5573 43.9688 12.484 44.2805 12.3556C44.5921 12.2273 44.8671 12.0257 45.0871 11.769C45.3071 11.5124 45.472 11.2374 45.6004 10.8891C45.7103 10.5591 45.7653 10.1742 45.7653 9.77085V4.25298H46.6086V9.75252C46.6086 10.2475 46.5169 10.7058 46.3703 11.1274C46.2236 11.549 45.9853 11.934 45.692 12.264C45.3987 12.5756 45.0321 12.8323 44.6104 13.0156C44.1888 13.1989 43.7122 13.2906 43.1989 13.2906ZM39.9725 4.43629V9.73419C39.9725 10.2108 40.0458 10.6508 40.1925 11.0541C40.3391 11.4574 40.5408 11.8057 40.8341 12.1173C41.1091 12.429 41.439 12.6489 41.8423 12.8323C42.2273 12.9973 42.6856 13.0889 43.1989 13.0889C43.6939 13.0889 44.1338 12.9973 44.5554 12.8323C44.9404 12.6673 45.2887 12.429 45.5637 12.1173C45.8387 11.8057 46.0587 11.4574 46.2053 11.0541C46.352 10.6508 46.4253 10.2108 46.4253 9.73419V4.43629H46.0037V9.73419C46.0037 10.1558 45.9303 10.5408 45.8203 10.9074C45.7104 11.2741 45.5087 11.604 45.2704 11.8607C45.0321 12.1357 44.7388 12.3556 44.3905 12.5023C44.0422 12.6489 43.6572 12.7406 43.2356 12.7406C42.7956 12.7406 42.4106 12.6489 42.0807 12.5023C41.7507 12.3556 41.439 12.1357 41.2007 11.8607C40.9624 11.5857 40.7791 11.2741 40.6691 10.9074C40.5591 10.5591 40.4858 10.1558 40.4858 9.73419V4.43629H39.9725ZM50.1283 8.65261C50.2933 8.65261 50.275 8.65261 50.275 8.65261H50.6416C51.0266 8.65261 51.3749 8.59762 51.6865 8.52429C51.9982 8.4143 52.2548 8.30431 52.4565 8.12099C52.6764 7.956 52.8231 7.73602 52.9514 7.49771C53.0614 7.25939 53.1164 6.98442 53.1164 6.67278C53.1164 6.0495 52.9147 5.5912 52.5114 5.29789C52.1081 4.98625 51.5215 4.8396 50.7333 4.8396H49.1384V8.67094V9.14757V13.1072H48.4968V4.36297H50.7149C51.7232 4.36297 52.4748 4.56462 52.9697 4.94959C53.483 5.33456 53.703 5.90284 53.703 6.67278C53.703 7.00275 53.648 7.31439 53.538 7.58937C53.428 7.86434 53.2447 8.10266 53.0247 8.32264C52.8048 8.52429 52.5481 8.70761 52.2548 8.83593C51.9432 8.96425 51.5949 9.05591 51.2282 9.11091C51.3382 9.18423 51.4115 9.25756 51.5032 9.36755L54.5096 13.1439H53.9597C53.8863 13.1439 53.8497 13.1256 53.7947 13.1072C53.7397 13.0889 53.6847 13.0339 53.6664 12.9973L50.8799 9.38588C50.8066 9.29422 50.7333 9.23923 50.6599 9.20256C50.5683 9.1659 50.0917 9.14757 49.9267 9.14757C49.9267 8.70761 49.9817 8.65261 50.1283 8.65261ZM54.7479 13.1806H53.9963C53.9047 13.1806 53.8497 13.1622 53.7763 13.1256C53.703 13.0889 53.6664 13.0339 53.6114 12.9789L50.8066 9.44088C50.7333 9.34922 50.6966 9.31256 50.6233 9.2759C50.5499 9.25756 50.1466 9.2209 49.9267 9.2209H49.8167V8.78093C49.8167 8.63428 49.8533 8.54262 50.1283 8.54262C50.275 8.54262 50.2933 8.54262 50.2933 8.54262H50.6599C51.0266 8.54262 51.3749 8.48763 51.6682 8.4143C51.9615 8.32264 52.1998 8.19432 52.4015 8.02933C52.6031 7.86434 52.7498 7.68103 52.8598 7.44272C52.9697 7.2044 53.0064 6.94775 53.0064 6.67278C53.0064 6.08616 52.8231 5.66453 52.4381 5.37122C52.0532 5.07791 51.4849 4.93126 50.7149 4.93126H49.2117V13.1622H48.3685V4.23465H50.7149C51.7415 4.23465 52.5114 4.4363 53.0431 4.8396C53.5564 5.2429 53.8313 5.84784 53.8313 6.63611C53.8313 6.98442 53.758 7.31439 53.648 7.58937C53.538 7.86434 53.3364 8.12099 53.1347 8.34097C52.9147 8.56095 52.6214 8.72594 52.3281 8.87259C52.0715 8.98258 51.8148 9.05591 51.5032 9.11091C51.5399 9.14757 51.5765 9.18423 51.6132 9.2209L54.7479 13.1806ZM50.0183 9.01925C50.2016 9.01925 50.5866 9.03758 50.6966 9.09258C50.8066 9.14757 50.8799 9.20257 50.9716 9.31256L53.7763 12.8506C53.813 12.9056 53.8497 12.9423 53.8863 12.9606C53.923 12.9789 53.9597 12.9973 53.9963 12.9973H54.3263L51.4299 9.38588C51.3565 9.27589 51.2832 9.2209 51.1916 9.1659L50.9349 9.01925L51.2466 8.98259C51.6132 8.94592 51.9615 8.8726 52.2365 8.72594C52.5298 8.59762 52.7681 8.43263 52.9881 8.23098C53.1897 8.02933 53.3547 7.80935 53.4647 7.53437C53.5747 7.2594 53.6297 6.98442 53.6297 6.65444C53.6297 5.92117 53.3914 5.38955 52.9147 5.02291C52.4381 4.65628 51.7048 4.47296 50.7333 4.47296H48.6068V12.9789H49.0284V4.7296H50.7333C51.5215 4.7296 52.1448 4.87626 52.5664 5.20623C53.0064 5.51787 53.2264 6.01283 53.2264 6.67278C53.2264 6.98442 53.1531 7.27773 53.0614 7.53437C52.9514 7.79102 52.7681 8.011 52.5481 8.19431C52.3281 8.37763 52.0532 8.50596 51.7415 8.61595C51.4299 8.72594 51.0632 8.7626 50.6599 8.7626H50.2933C50.275 8.7626 50.2566 8.7626 50.1466 8.7626C50.0917 8.7626 50.0367 8.7626 50.0183 9.01925ZM61.934 11.604C61.9707 11.604 62.0257 11.6224 62.044 11.659L62.3006 11.934C62.1173 12.1173 61.934 12.3006 61.714 12.4473C61.494 12.594 61.2557 12.7406 60.9991 12.8323C60.7424 12.9423 60.4675 13.0156 60.1741 13.0889C59.8625 13.1622 59.5325 13.1806 59.1842 13.1806C58.5793 13.1806 58.0293 13.0706 57.516 12.8689C57.0027 12.6489 56.5811 12.3556 56.2145 11.9523C55.8662 11.5674 55.5729 11.0907 55.3712 10.5408C55.1696 9.99084 55.0596 9.38589 55.0596 8.70761C55.0596 8.04766 55.1696 7.44272 55.3712 6.89276C55.5729 6.34281 55.8845 5.88451 56.2511 5.48121C56.6178 5.09624 57.0761 4.7846 57.6077 4.56462C58.121 4.34464 58.7259 4.25298 59.3492 4.25298C59.6609 4.25298 59.9542 4.27131 60.2291 4.3263C60.5041 4.3813 60.7424 4.43629 60.9624 4.52795C61.2007 4.61961 61.4024 4.72961 61.604 4.85793C61.8057 4.98625 62.0073 5.15124 62.1906 5.31622L62.0073 5.5912C61.9707 5.6462 61.9157 5.66453 61.8607 5.66453C61.824 5.66453 61.769 5.6462 61.7323 5.5912C61.6957 5.53621 61.604 5.48121 61.5124 5.42622C61.4207 5.35289 61.3107 5.29789 61.2007 5.22457C61.0907 5.13291 60.9257 5.07791 60.7424 5.02291C60.5774 4.94959 60.3758 4.91292 60.1375 4.85793C59.9175 4.80293 59.6425 4.7846 59.3675 4.7846C58.8359 4.7846 58.341 4.87626 57.901 5.05958C57.461 5.2429 57.0761 5.49954 56.7644 5.84785C56.4528 6.17782 56.1961 6.59945 56.0128 7.07608C55.8295 7.55271 55.7378 8.10266 55.7378 8.70761C55.7378 9.33089 55.8295 9.86251 56.0128 10.3575C56.1961 10.8524 56.4345 11.2557 56.7461 11.5857C57.0577 11.9157 57.4427 12.1723 57.8643 12.3556C58.286 12.539 58.7626 12.6306 59.2392 12.6306C59.5509 12.6306 59.8258 12.6123 60.0825 12.5573C60.3391 12.5206 60.5591 12.4473 60.7608 12.374C60.9624 12.2823 61.1641 12.1906 61.329 12.0623C61.5124 11.9523 61.6774 11.8057 61.8423 11.6407C61.8607 11.6224 61.879 11.604 61.8973 11.604C61.879 11.6224 61.9157 11.604 61.934 11.604ZM59.1476 13.2906C58.5243 13.2906 57.956 13.1806 57.4427 12.9789C56.9294 12.7589 56.4895 12.4656 56.1045 12.044C55.7378 11.6407 55.4445 11.1641 55.2429 10.5958C55.0412 10.0458 54.9312 9.40422 54.9312 8.72594C54.9312 8.04766 55.0412 7.42438 55.2429 6.87443C55.4629 6.32447 55.7562 5.82952 56.1411 5.42622C56.5261 5.02292 57.0027 4.69294 57.516 4.49129C58.0477 4.27131 58.6526 4.16132 59.2942 4.16132C59.6059 4.16132 59.9175 4.17965 60.1925 4.23465C60.4675 4.28964 60.7058 4.34464 60.9441 4.43629C61.1824 4.52795 61.4024 4.63795 61.604 4.76627C61.8057 4.89459 62.0073 5.05958 62.209 5.2429L62.2823 5.31622L62.044 5.66453C62.0073 5.71952 61.934 5.77452 61.8057 5.77452C61.7323 5.77452 61.6957 5.73786 61.604 5.68286C61.549 5.62786 61.4757 5.57287 61.384 5.5362C61.2924 5.46288 61.2007 5.40788 61.0724 5.33456C60.9624 5.26123 60.7974 5.20623 60.6324 5.13291C60.4675 5.05958 60.2658 5.02291 60.0458 4.98625C59.8258 4.94958 59.5692 4.91292 59.2942 4.91292C58.7809 4.91292 58.3043 5.00458 57.8643 5.1879C57.4427 5.37122 57.0577 5.62786 56.7461 5.9395C56.4345 6.25115 56.1961 6.67278 56.0128 7.13107C55.8478 7.6077 55.7378 8.13932 55.7378 8.70761C55.7378 9.31256 55.8295 9.84418 55.9945 10.3208C56.1595 10.7974 56.3978 11.2007 56.7094 11.5124C57.0211 11.824 57.3694 12.0807 57.791 12.2456C58.1943 12.4106 58.6526 12.5023 59.1476 12.5023C59.4592 12.5023 59.7342 12.484 59.9725 12.429C60.2108 12.3923 60.4308 12.319 60.6324 12.2456C60.8341 12.154 61.0174 12.0623 61.1824 11.9523C61.3474 11.8423 61.5124 11.6957 61.6957 11.549C61.7323 11.5124 61.7507 11.5124 61.7873 11.494C61.879 11.439 62.0073 11.4574 62.0807 11.549L62.3923 11.879L62.319 11.9523C62.1356 12.154 61.934 12.319 61.714 12.484C61.494 12.6306 61.2557 12.7956 60.9807 12.8873C60.7241 12.9972 60.4491 13.0889 60.1191 13.1439C59.8625 13.2539 59.5142 13.2906 59.1476 13.2906ZM59.3309 4.34464C58.7076 4.34464 58.1393 4.45463 57.626 4.65628C57.1127 4.85793 56.6728 5.16957 56.3061 5.55454C55.9395 5.9395 55.6462 6.3978 55.4445 6.92942C55.2429 7.46104 55.1329 8.066 55.1329 8.70761C55.1329 9.34922 55.2429 9.9725 55.4445 10.5041C55.6462 11.0357 55.9212 11.494 56.2695 11.879C56.6178 12.2456 57.0394 12.5573 57.5344 12.7589C58.0293 12.9606 58.5609 13.0706 59.1476 13.0706C59.4959 13.0706 59.8258 13.0339 60.1191 12.9789C60.4125 12.9239 60.6874 12.8506 60.9257 12.7223C61.1824 12.6123 61.4024 12.484 61.604 12.3373C61.7873 12.209 61.9523 12.044 62.1173 11.8973L61.934 11.6957C61.9157 11.6774 61.8973 11.6774 61.879 11.6957C61.8607 11.6957 61.8423 11.714 61.824 11.7324C61.659 11.879 61.4757 12.044 61.2924 12.154C61.1091 12.264 60.9074 12.3923 60.7058 12.4656C60.4858 12.5573 60.2475 12.6123 60.0092 12.6489C59.7525 12.6856 59.4775 12.7223 59.1476 12.7223C58.6343 12.7223 58.1576 12.6123 57.7177 12.4473C57.2777 12.264 56.8928 11.989 56.5811 11.659C56.2695 11.3291 56.0128 10.8891 55.8295 10.3941C55.6462 9.89917 55.5545 9.33089 55.5545 8.70761C55.5545 8.10266 55.6462 7.5527 55.8295 7.03941C56.0128 6.54445 56.2695 6.10449 56.5994 5.77452C56.9294 5.42622 57.3327 5.15124 57.7727 4.96792C58.2126 4.7846 58.7259 4.67461 59.2759 4.67461C59.5692 4.67461 59.8258 4.69294 60.0642 4.74794C60.3025 4.80293 60.5041 4.85793 60.6874 4.91292C60.8708 4.98625 61.0174 5.04125 61.1641 5.13291C61.2924 5.22457 61.4024 5.27956 61.4757 5.35288C61.5674 5.42621 61.6407 5.46288 61.6957 5.51788C61.7507 5.57287 61.7873 5.57287 61.7873 5.57287C61.8423 5.57287 61.8607 5.55453 61.8607 5.5362L61.989 5.33456C61.824 5.1879 61.659 5.05958 61.4757 4.94959C61.2741 4.82127 61.0724 4.71127 60.8524 4.63795C60.6324 4.54629 60.3758 4.49129 60.1191 4.43629C59.9175 4.3813 59.6425 4.34464 59.3309 4.34464ZM69.1201 4.34464V4.85793H64.5188V8.39597H68.3501V8.90926H64.5188V12.539H69.1201V13.0522H63.8772V4.3263H69.1201V4.34464ZM69.2301 13.1806H63.7855V4.23465H69.2301V4.96792H64.6288V8.28597H68.4601V9.01925H64.6288V12.4473H69.2301V13.1806ZM63.9872 12.9789H69.0284V12.6673H64.4271V8.8176H68.2585V8.50596H64.4271V4.76627H69.0284V4.45463H63.9872V12.9789Z" fill="black"/>
<path d="M76.9478 4.23465V5.57287H72.9881V8.21265H76.3245V9.55088H72.9881V13.1806H71.3199V4.25298L76.9478 4.23465ZM86.6453 8.70761C86.6453 9.36756 86.5353 9.97251 86.3336 10.5225C86.1137 11.0724 85.8203 11.5674 85.3987 11.9707C85.0137 12.374 84.5188 12.7039 83.9688 12.9239C83.4189 13.1622 82.7956 13.2539 82.1173 13.2539C81.439 13.2539 80.8158 13.1439 80.2658 12.9239C79.7159 12.6856 79.2392 12.3923 78.8359 11.9707C78.4326 11.5674 78.121 11.0724 77.901 10.5225C77.681 9.97251 77.5894 9.36756 77.5894 8.70761C77.5894 8.04767 77.6994 7.44272 77.901 6.89276C78.121 6.34281 78.4143 5.84785 78.8359 5.44455C79.2392 5.04125 79.7159 4.71128 80.2658 4.4913C80.8158 4.25298 81.439 4.16132 82.1173 4.16132C82.7956 4.16132 83.4189 4.27132 83.9688 4.50963C84.5188 4.74794 84.9954 5.05958 85.3987 5.46288C85.7837 5.86618 86.1137 6.36114 86.3336 6.91109C86.517 7.44271 86.6453 8.04767 86.6453 8.70761ZM84.9404 8.70761C84.9404 8.21265 84.8671 7.77269 84.7388 7.38772C84.6104 7.00275 84.4271 6.65445 84.1888 6.3978C83.9505 6.12283 83.6572 5.92118 83.2906 5.77452C82.9422 5.62787 82.5573 5.55454 82.1173 5.55454C81.6774 5.55454 81.2924 5.62787 80.9441 5.77452C80.5958 5.92118 80.3025 6.12283 80.0458 6.3978C79.7892 6.67278 79.6059 7.00275 79.4775 7.38772C79.3492 7.77269 79.2759 8.21265 79.2759 8.70761C79.2759 9.20257 79.3492 9.64253 79.4775 10.0275C79.6059 10.4125 79.7892 10.7608 80.0458 11.0174C80.3025 11.2741 80.5774 11.494 80.9441 11.6407C81.2924 11.7874 81.6774 11.8607 82.1173 11.8607C82.5573 11.8607 82.9422 11.7874 83.2906 11.6407C83.6389 11.494 83.9322 11.2924 84.1888 11.0174C84.4271 10.7424 84.6104 10.4125 84.7388 10.0275C84.8671 9.64253 84.9404 9.18424 84.9404 8.70761ZM90.11 8.50596H90.495C90.8066 8.50596 91.0816 8.4693 91.3199 8.39597C91.5582 8.30431 91.7415 8.21265 91.8882 8.08433C92.0348 7.95601 92.1631 7.77269 92.2181 7.58937C92.2915 7.40605 92.3281 7.18607 92.3281 6.96609C92.3281 6.50779 92.1815 6.15949 91.8698 5.92117C91.5582 5.68286 91.1182 5.55454 90.5133 5.55454H89.4317V8.52429V9.71586V13.1989H87.7635V4.27131H90.495C91.0999 4.27131 91.6315 4.34464 92.0532 4.45463C92.4931 4.56462 92.8414 4.76627 93.1164 4.96792C93.3914 5.18791 93.6114 5.48121 93.7214 5.77452C93.8497 6.08616 93.923 6.43446 93.923 6.81943C93.923 7.13107 93.868 7.40605 93.7947 7.68103C93.7214 7.95601 93.5747 8.19432 93.4097 8.4143C93.2447 8.63428 93.0431 8.8176 92.7864 8.98259C92.5298 9.14757 92.2731 9.29423 91.9432 9.36756C92.1448 9.47755 92.3281 9.66086 92.4748 9.88085L94.7113 13.1806H93.2081C93.0614 13.1806 92.9331 13.1439 92.8414 13.0889C92.7314 13.0339 92.6581 12.9606 92.5848 12.8323L90.7149 9.97251C90.6599 9.89918 90.5683 9.75253 90.4583 9.73419C90.2566 9.73419 90.055 9.73419 89.8717 9.73419C89.8717 9.73419 89.8717 8.72594 89.8717 8.65261C89.9267 8.50596 90.11 8.50596 90.11 8.50596ZM99.6242 11.9523C99.9908 11.9523 100.339 11.9157 100.596 11.8424C100.871 11.769 101.127 11.6774 101.384 11.549V9.53254H100.266C100.156 9.53254 100.082 9.49588 100.009 9.44088C99.9358 9.36756 99.8992 9.31256 99.8992 9.2209V8.28598H102.869V12.3006C102.649 12.4656 102.411 12.6123 102.154 12.7223C101.897 12.8323 101.641 12.9423 101.366 13.0339C101.072 13.1256 100.797 13.1622 100.467 13.1989C100.156 13.2356 99.8075 13.2539 99.4409 13.2539C98.7809 13.2539 98.1943 13.1439 97.6444 12.9239C97.0944 12.7039 96.6178 12.3923 96.2328 11.989C95.8295 11.5857 95.5179 11.0907 95.2979 10.5408C95.0779 9.99084 94.9679 9.36756 94.9679 8.70761C94.9679 8.02933 95.0779 7.42438 95.2796 6.8561C95.4995 6.30614 95.7928 5.81119 96.2145 5.40789C96.6178 5.00459 97.1127 4.67461 97.681 4.47296C98.2493 4.25298 98.8909 4.14299 99.6059 4.14299C100.339 4.14299 100.962 4.25298 101.494 4.45463C102.026 4.67461 102.466 4.96792 102.851 5.29789L102.356 6.0495C102.246 6.19615 102.136 6.28781 101.989 6.28781C101.879 6.28781 101.787 6.25115 101.677 6.17782C101.549 6.08616 101.402 6.03117 101.274 5.93951C101.146 5.84785 100.981 5.79285 100.816 5.73786C100.651 5.68286 100.467 5.62787 100.266 5.60954C100.064 5.57287 99.8075 5.55454 99.5325 5.55454C99.0926 5.55454 98.6893 5.62787 98.341 5.77452C97.9927 5.92118 97.681 6.12283 97.4244 6.41614C97.1677 6.69111 96.9844 7.02108 96.8561 7.40605C96.7278 7.79102 96.6544 8.23098 96.6544 8.70761C96.6544 9.2209 96.7278 9.6792 96.8744 10.0825C97.0211 10.4858 97.2227 10.8158 97.4794 11.0907C97.736 11.3657 98.0477 11.5857 98.4143 11.7324C98.7626 11.879 99.2026 11.9523 99.6242 11.9523ZM108.772 9.58754H106.059V11.8424H110V13.1806H104.372V4.25298H110V5.5912H106.04V8.34098H109.157V9.31256C109.157 9.29423 109.138 9.58754 108.772 9.58754Z" fill="black"/>
</svg>
