<?xml version="1.0" encoding="UTF-8"?> <svg xmlns="http://www.w3.org/2000/svg" xmlns:xlink="http://www.w3.org/1999/xlink" version="1.1" id="Layer_1" x="0px" y="0px" viewBox="0 0 615.4 173.6" style="enable-background:new 0 0 615.4 173.6;" xml:space="preserve"> <style type="text/css"> .st0{fill:#9CA3AF;} </style> <g> <g> <polygon class="st0" points="315.6,74.2 328.4,74.2 328.4,51.3 337.6,51.3 337.6,42 306.4,42 306.4,51.3 315.6,51.3 "></polygon> <polygon class="st0" points="347.1,74.2 353.6,55 360.2,74.2 372.8,74.2 360.4,42 346.8,42 334.5,74.2 "></polygon> <polygon class="st0" points="378.8,74.2 391.7,74.2 391.7,51.3 400.8,51.3 400.8,42 369.7,42 369.7,51.3 378.8,51.3 "></polygon> <polygon class="st0" points="410.3,74.2 416.9,55 423.4,74.2 436,74.2 423.7,42 410,42 397.7,74.2 "></polygon> <path class="st0" d="M533.8,97.3c1.6,3.6,3.7,7.6,5.8,11.1l8.4,14.2h6.1V90.4h-5.5v11.2c0,4.9,0.1,9.1,0.5,13.4H549 c-1.5-3.5-3.4-7.2-5.5-10.8l-8.3-13.8h-6.7v32.2h5.4v-11.5c0-5.3-0.1-9.6-0.3-13.7L533.8,97.3z"></path> <path class="st0" d="M504.6,113.5h10.2l2.9,9.1h6.3l-10.5-32.2H506l-10.3,32.2h6.1L504.6,113.5z M508,101.1c0.6-1.9,1.1-4.1,1.5-6 h0.1c0.5,1.9,1,4.1,1.6,6.1l2.5,7.9h-8.3L508,101.1z"></path> <path class="st0" d="M408.6,118.2c-3,0-5.9-1-7.8-2.1l-1.3,4.9c1.8,1.1,5.3,2.1,8.7,2.1c8.3,0,12.2-4.5,12.2-9.7 c0-4.6-2.7-7.4-8.3-9.6c-4.3-1.6-6.2-2.8-6.2-5.3c0-1.9,1.6-3.9,5.3-3.9c3,0,5.3,0.9,6.4,1.5l1.4-4.8c-1.7-0.9-4.2-1.6-7.7-1.6 c-7,0-11.4,4-11.4,9.3c0,4.6,3.4,7.5,8.7,9.4c4.1,1.5,5.7,2.9,5.7,5.4C414.5,116.5,412.3,118.2,408.6,118.2z"></path> <path class="st0" d="M324,94.7c2.6,0,4.8,0.6,6.3,1.3l1.3-4.7c-1.2-0.6-3.9-1.4-7.8-1.4c-9.9,0-17.3,6.4-17.3,17 c0,9.8,6.2,16.2,16.5,16.2c3.9,0,7-0.8,8.4-1.5l-1-4.6c-1.5,0.7-4,1.2-6.4,1.2c-7.1,0-11.2-4.5-11.2-11.6 C312.6,98.8,317.4,94.7,324,94.7z"></path> <polygon class="st0" points="488.6,122.6 488.6,95.3 497.9,95.3 497.9,90.4 473.5,90.4 473.5,95.3 482.7,95.3 482.7,122.6 "></polygon> <path class="st0" d="M606.3,90.4l-3.9,8.3c-1.1,2.3-2,4.3-2.8,6.4h-0.1c-0.9-2.2-1.7-4-2.8-6.4l-3.8-8.3h-6.7l10.2,18.8v13.4h5.9 V109L613,90.4H606.3L606.3,90.4z"></path> <path class="st0" d="M348.6,89.8c-9.1,0-15.4,7-15.4,16.9c0,9.4,5.8,16.4,14.9,16.4l0,0c8.8,0,15.4-6.2,15.4-17 C363.5,96.9,358,89.8,348.6,89.8z M348.4,118.4L348.4,118.4c-5.7,0-9-5.4-8.9-11.8c0-6.4,3.1-12,9-12s8.9,5.8,8.9,11.8 C357.3,113.1,354,118.4,348.4,118.4z"></path> <path class="st0" d="M576.7,94.7c2.6,0,4.8,0.6,6.3,1.3l1.3-4.7c-1.2-0.6-3.9-1.4-7.8-1.4c-9.8,0-17.3,6.4-17.3,17 c0,9.8,6.2,16.2,16.5,16.2c3.9,0,7-0.8,8.4-1.5l-1-4.6c-1.5,0.7-4,1.2-6.4,1.2c-7.1,0-11.2-4.5-11.2-11.6 C565.4,98.8,570.1,94.7,576.7,94.7z"></path> <polygon class="st0" points="463.5,90.4 457.6,90.4 457.6,122.6 476.7,122.6 476.7,117.7 463.5,117.7 "></polygon> <path class="st0" d="M450.9,108.8V90.4H445v18.8c0,6.3-2.5,9.2-6.8,9.2c-4,0-6.6-2.9-6.6-9.2V90.4h-5.9v18.4 c0,10.1,4.9,14.3,12.3,14.3C445.8,123.1,450.9,118.7,450.9,108.8z"></path> <path class="st0" d="M394.2,90.4h-5.5v11.2c0,4.9,0.1,9.1,0.5,13.4h-0.1c-1.5-3.5-3.4-7.2-5.5-10.8l-8.3-13.8h-6.7v32.2h5.5v-11.5 c0-5.3-0.1-9.6-0.3-13.7h0.1c1.6,3.6,3.7,7.6,5.8,11.1l8.4,14.2h6.1V90.4L394.2,90.4z"></path> <rect x="413.5" y="138.7" class="st0" width="5.9" height="32.2"></rect> <path class="st0" d="M373,155.8v-0.1c3-1.1,5.8-3.9,5.8-8c0-2.7-1-5-2.8-6.4c-2.2-1.8-5.9-2.6-9.9-2.6s-6.6,0.3-8.9,0.7V171h5.8 v-13.1h2.9c3.3,0.1,4.8,1.4,5.8,5.6c0.9,4,1.7,6.6,2.1,7.6h6c-0.6-1.2-1.5-4.9-2.5-8.9C376.6,158.9,375.3,156.7,373,155.8z M366.6,153.5h-3.5v-10.1c0.6-0.1,1.8-0.3,3.6-0.3c3.8,0,6.2,1.6,6.2,5.1C373,151.4,370.5,153.5,366.6,153.5z"></path> <path class="st0" d="M399,153.5c-1.2,3.9-2.4,7.9-3.3,11.6h-0.1c-0.8-3.9-1.9-7.7-3.2-11.7l-4.4-14.7h-6.4l10.4,32.2h6.8 l11.1-32.2h-6.3L399,153.5z"></path> <polygon class="st0" points="460.1,156.6 472.3,156.6 472.3,151.8 460.1,151.8 460.1,143.6 473,143.6 473,138.7 454.2,138.7 454.2,170.9 473.7,170.9 473.7,166.1 460.1,166.1 "></polygon> <path class="st0" d="M441.9,143.1c2.6,0,4.8,0.6,6.3,1.3l1.3-4.7c-1.2-0.6-3.9-1.4-7.8-1.4c-9.9,0-17.3,6.4-17.3,17 c0,9.8,6.2,16.2,16.5,16.2c3.9,0,7-0.8,8.4-1.5l-1-4.6c-1.6,0.7-4,1.2-6.4,1.2c-7.1,0-11.2-4.5-11.2-11.6 C430.6,147.2,435.3,143.1,441.9,143.1z"></path> <path class="st0" d="M319.1,152.2c-4.3-1.6-6.2-2.8-6.2-5.3c0-1.9,1.6-3.9,5.3-3.9c3,0,5.3,0.9,6.4,1.5l1.4-4.8 c-1.7-0.9-4.2-1.6-7.7-1.6c-7,0-11.4,4-11.4,9.3c0,4.6,3.4,7.5,8.7,9.4c4.1,1.5,5.7,2.9,5.7,5.4c0,2.6-2.1,4.4-5.9,4.4 c-3,0-5.9-1-7.8-2.1l-1.3,4.9c1.8,1.1,5.3,2.1,8.7,2.1c8.3,0,12.2-4.5,12.2-9.7C327.4,157.1,324.7,154.3,319.1,152.2z"></path> <polygon class="st0" points="338.6,156.6 350.7,156.6 350.7,151.8 338.6,151.8 338.6,143.6 351.4,143.6 351.4,138.7 332.7,138.7 332.7,170.9 352.2,170.9 352.2,166.1 338.6,166.1 "></polygon> <path class="st0" d="M490.1,152.2c-4.3-1.6-6.2-2.8-6.2-5.3c0-1.9,1.6-3.9,5.3-3.9c3,0,5.3,0.9,6.4,1.5l1.4-4.8 c-1.7-0.9-4.2-1.6-7.7-1.6c-7,0-11.4,4-11.4,9.3c0,4.6,3.4,7.5,8.7,9.4c4.1,1.5,5.7,2.9,5.7,5.4c0,2.6-2.1,4.4-5.9,4.4 c-3,0-5.9-1-7.8-2.1l-1.3,4.9c1.8,1.1,5.3,2.1,8.7,2.1c8.3,0,12.2-4.5,12.2-9.7C498.4,157.1,495.7,154.3,490.1,152.2z"></path> </g> <g> <path class="st0" d="M2.8,64.1c0-14.6,9.5-23.4,23.4-23.4V15.9c0-7.3-4.9-12.2-11.7-12.2S2.8,8.6,2.8,15.9V64.1z"></path> <path class="st0" d="M44.2,171.8c5.8,0,11.2-1,16.1-2.7c-24.6,4.1-34.1-12.6-34.1-31.6V59.7h28.5c6.6,0,10.9-3.9,10.9-9.5 s-4.4-9.5-10.9-9.5H26.2c-13.9,0-23.4,8.8-23.4,23.4V131C2.8,157.7,18.2,171.8,44.2,171.8z"></path> <path class="st0" d="M60.3,169.2c9.7-3.6,17.3-10.5,22.1-20.4l-11-19.8c-4.9,14.6-13.4,22.4-25.1,22.4c-12.2,0-20.2-7.1-20.2-23.1 v9.2C26.2,156.5,35.7,173.3,60.3,169.2z"></path> <path class="st0" d="M160.3,165.3c-55.5,8.3-73-21.4-73-59.6c0-27.7,17-46.7,41.6-46.7c9,0,16.6,1.9,23.4,5.1 c3.2,1.5,5.8,1.9,8.3,1.9c5.8,0,9.7-3.9,9.7-9.7c0-3.7-2.2-7.3-7.3-9.7c-9.2-4.6-21.2-7.3-34.1-7.3c-38.4,0-65,27.3-65,66.9 c0,38.9,25.6,65.9,66.7,65.9C141.8,172.1,151.5,169.9,160.3,165.3z"></path> <path class="st0" d="M63.9,106.1c0-39.7,26.5-66.9,65-66.9c12.9,0,24.8,2.7,34.1,7.3c5.1,2.4,7.3,6.1,7.3,9.7 c0,5.8-3.9,9.7-9.7,9.7c-2.4,0-5.1-0.5-8.3-1.9c-8.3-3.9-16.3-5.1-23.4-5.1C95,58.9,63.9,80.4,63.9,106.1z"></path> <path class="st0" d="M209.2,47c-2.2,2.2-3.4,4.9-3.4,8c0,8,7.5,20,25.1,32.1l20,13.9c14.6,10.2,20.4,19.9,20.4,34.6 c0,10.5-4.1,19.5-11,25.8c2.4-2.2,3.9-5.1,3.9-9c0-8.5-8.5-21.9-26.8-34.6l-18.2-12.6c-15.3-10.7-21.4-20.7-21.4-34.3 c0-8,2.9-15.3,7.8-20.7C206.7,49,207.9,48,209.2,47z"></path> <path class="st0" d="M193.4,156.3c0,3.9,1.9,7.1,7.1,9.5c7.1,3.4,18.5,6.3,28.7,6.3c12.9,0,23.6-3.9,31.1-10.7 c2.4-2.2,3.9-5.1,3.9-9c0-8.5-8.5-21.9-26.8-34.6c8.3,5.8,11.7,10.7,11.7,17.8c0,10.5-8.3,17.5-20.2,17.5 c-11.4,0-21.2-5.8-26.5-5.8C197,147.3,193.4,150.9,193.4,156.3z"></path> <path class="st0" d="M230.8,87.2c-7.8-5.6-11.2-10.7-11.2-16.8c0-7.8,6.3-12.7,15.3-12.7c11.4,0,16.8,5.3,23.6,5.3 c5.4,0,9-3.7,9-9c0-3.9-2-7.1-7.1-9.5c-8-3.9-16.8-5.3-26.3-5.3c-10,0-18.7,2.9-25.1,7.8c-2.2,2.2-3.4,4.9-3.4,8 C205.8,63.1,213.3,75,230.8,87.2z"></path> <path class="st0" d="M87.3,105.7c0,38.2,17.5,67.9,73,59.6c17.8-9.2,30.4-28,39.2-56.7l5.1-16.8c-4.9-6.3-6.8-13.4-6.8-20.9 c0-8,2.9-15.3,7.8-20.7c-7.3,7.8-13.4,19.2-18.2,35.3l-5.6,18.5c-10,32.6-25.8,48.2-50.4,48.2C104.3,152.1,87.3,133.4,87.3,105.7z "></path> </g> </g> </svg> 