<svg width="123" height="60" viewBox="0 0 123 60" fill="none" xmlns="http://www.w3.org/2000/svg">
<path d="M18.386 42.6908C18.686 41.7697 19.989 41.7697 20.288 42.6908L21.807 47.3647C21.8724 47.5652 21.9995 47.7399 22.1701 47.8639C22.3407 47.9878 22.5461 48.0546 22.757 48.0548H27.672C28.641 48.0548 29.043 49.2947 28.26 49.8647L24.284 52.7528C24.1132 52.8769 23.9861 53.052 23.9209 53.2528C23.8557 53.4536 23.8557 53.6699 23.921 53.8708L25.439 58.5448C25.739 59.4668 24.684 60.2328 23.901 59.6628L19.925 56.7747C19.7541 56.6505 19.5483 56.5836 19.337 56.5836C19.1257 56.5836 18.9199 56.6505 18.749 56.7747L14.773 59.6628C13.99 60.2328 12.935 59.4658 13.235 58.5448L14.753 53.8708C14.8183 53.6699 14.8183 53.4536 14.7531 53.2528C14.6879 53.052 14.5608 52.8769 14.39 52.7528L10.414 49.8647C9.63001 49.2947 10.034 48.0548 11.002 48.0548H15.916C16.1271 48.0548 16.3327 47.9881 16.5035 47.8641C16.6744 47.7402 16.8016 47.5654 16.867 47.3647L18.386 42.6908V42.6908Z" fill="#FFA44B"/>
<path d="M39.386 42.6908C39.686 41.7697 40.989 41.7697 41.288 42.6908L42.807 47.3647C42.8724 47.5652 42.9995 47.7399 43.1701 47.8639C43.3407 47.9878 43.5461 48.0546 43.757 48.0548H48.672C49.641 48.0548 50.043 49.2947 49.26 49.8647L45.284 52.7528C45.1132 52.8769 44.9861 53.052 44.9209 53.2528C44.8557 53.4536 44.8557 53.6699 44.921 53.8708L46.439 58.5448C46.739 59.4668 45.684 60.2328 44.901 59.6628L40.925 56.7747C40.7541 56.6505 40.5483 56.5836 40.337 56.5836C40.1257 56.5836 39.9199 56.6505 39.749 56.7747L35.773 59.6628C34.99 60.2328 33.935 59.4658 34.235 58.5448L35.753 53.8708C35.8183 53.6699 35.8183 53.4536 35.7531 53.2528C35.6879 53.052 35.5608 52.8769 35.39 52.7528L31.414 49.8647C30.63 49.2947 31.034 48.0548 32.002 48.0548H36.916C37.1271 48.0548 37.3327 47.9881 37.5035 47.8641C37.6744 47.7402 37.8016 47.5654 37.867 47.3647L39.386 42.6908V42.6908Z" fill="#FFA44B"/>
<path d="M60.386 42.6908C60.686 41.7697 61.989 41.7697 62.288 42.6908L63.807 47.3647C63.8724 47.5652 63.9995 47.7399 64.1701 47.8639C64.3407 47.9878 64.5461 48.0546 64.757 48.0548H69.672C70.641 48.0548 71.043 49.2947 70.26 49.8647L66.284 52.7528C66.1132 52.8769 65.9861 53.052 65.9209 53.2528C65.8557 53.4536 65.8557 53.6699 65.921 53.8708L67.439 58.5448C67.739 59.4668 66.684 60.2328 65.901 59.6628L61.925 56.7747C61.7541 56.6505 61.5483 56.5836 61.337 56.5836C61.1257 56.5836 60.9199 56.6505 60.749 56.7747L56.773 59.6628C55.99 60.2328 54.935 59.4658 55.235 58.5448L56.753 53.8708C56.8183 53.6699 56.8183 53.4536 56.7531 53.2528C56.6879 53.052 56.5608 52.8769 56.39 52.7528L52.414 49.8647C51.63 49.2947 52.034 48.0548 53.002 48.0548H57.916C58.1271 48.0548 58.3327 47.9881 58.5035 47.8641C58.6744 47.7402 58.8016 47.5654 58.867 47.3647L60.386 42.6908V42.6908Z" fill="#FFA44B"/>
<path d="M81.386 42.6908C81.686 41.7697 82.989 41.7697 83.288 42.6908L84.807 47.3647C84.8724 47.5652 84.9995 47.7399 85.1701 47.8639C85.3407 47.9878 85.5461 48.0546 85.757 48.0548H90.672C91.641 48.0548 92.043 49.2947 91.26 49.8647L87.284 52.7528C87.1132 52.8769 86.9861 53.052 86.9209 53.2528C86.8557 53.4536 86.8557 53.6699 86.921 53.8708L88.439 58.5448C88.739 59.4668 87.684 60.2328 86.901 59.6628L82.925 56.7747C82.7541 56.6505 82.5483 56.5836 82.337 56.5836C82.1257 56.5836 81.9199 56.6505 81.749 56.7747L77.773 59.6628C76.99 60.2328 75.935 59.4658 76.235 58.5448L77.753 53.8708C77.8183 53.6699 77.8183 53.4536 77.7531 53.2528C77.6879 53.052 77.5608 52.8769 77.39 52.7528L73.414 49.8647C72.63 49.2947 73.034 48.0548 74.002 48.0548H78.916C79.1271 48.0548 79.3327 47.9881 79.5035 47.8641C79.6744 47.7402 79.8016 47.5654 79.867 47.3647L81.386 42.6908V42.6908Z" fill="#FFA44B"/>
<path d="M102.386 42.6908C102.686 41.7697 103.989 41.7697 104.288 42.6908L105.807 47.3647C105.872 47.5652 105.999 47.7399 106.17 47.8639C106.341 47.9878 106.546 48.0546 106.757 48.0548H111.672C112.641 48.0548 113.043 49.2947 112.26 49.8647L108.284 52.7528C108.113 52.8769 107.986 53.052 107.921 53.2528C107.856 53.4536 107.856 53.6699 107.921 53.8708L109.439 58.5448C109.739 59.4668 108.684 60.2328 107.901 59.6628L103.925 56.7747C103.754 56.6505 103.548 56.5836 103.337 56.5836C103.126 56.5836 102.92 56.6505 102.749 56.7747L98.773 59.6628C97.99 60.2328 96.935 59.4658 97.235 58.5448L98.753 53.8708C98.8183 53.6699 98.8183 53.4536 98.7531 53.2528C98.6879 53.052 98.5608 52.8769 98.39 52.7528L94.414 49.8647C93.63 49.2947 94.034 48.0548 95.002 48.0548H99.916C100.127 48.0548 100.333 47.9881 100.504 47.8641C100.674 47.7402 100.802 47.5654 100.867 47.3647L102.386 42.6908V42.6908Z" fill="#FFA44B"/>
<path d="M32.1181 10.6314H44.4806V12.9328H39.613V25.9063H36.945V12.9328H32.0977L32.1181 10.6314ZM43.9511 14.8473H46.2322V16.9857H46.2729C46.3544 16.6802 46.4969 16.3951 46.7006 16.11C46.9043 15.8249 47.1487 15.5601 47.4542 15.336C47.7393 15.0916 48.0652 14.9084 48.4318 14.7658C48.778 14.6232 49.1446 14.5418 49.5112 14.5418C49.7963 14.5418 50 14.5621 50.1018 14.5621C50.2037 14.5825 50.3259 14.6029 50.4277 14.6029V16.945C50.2648 16.9043 50.0815 16.8839 49.8982 16.8635C49.7149 16.8432 49.5519 16.8228 49.3686 16.8228C48.9613 16.8228 48.5743 16.9043 48.2077 17.0672C47.8411 17.2301 47.5356 17.4745 47.2505 17.78C46.9857 18.1059 46.7617 18.4929 46.5988 18.9613C46.4358 19.4297 46.3544 19.9796 46.3544 20.5906V25.8452H43.9104L43.9511 14.8473ZM61.6293 25.9063H59.2261V24.3585H59.1853C58.8798 24.9287 58.4318 25.3564 57.8411 25.7027C57.2505 26.0489 56.6395 26.2118 56.0285 26.2118C54.5825 26.2118 53.5234 25.8656 52.8717 25.1324C52.2199 24.4196 51.8941 23.3198 51.8941 21.8737V14.8473H54.3381V21.6293C54.3381 22.6069 54.5214 23.2994 54.9083 23.6864C55.2749 24.0937 55.8045 24.2974 56.4766 24.2974C56.9857 24.2974 57.4134 24.2159 57.7597 24.053C58.1059 23.89 58.391 23.6864 58.5947 23.4216C58.8187 23.1568 58.9613 22.831 59.0631 22.4644C59.165 22.0978 59.2057 21.6904 59.2057 21.2627V14.8473H61.6497V25.9063H61.6293ZM65.7841 22.3625C65.8656 23.0754 66.1303 23.5642 66.5988 23.8697C67.0672 24.1548 67.6375 24.2974 68.2892 24.2974C68.5132 24.2974 68.778 24.277 69.0631 24.2363C69.3483 24.1955 69.6334 24.1344 69.8778 24.0326C70.1426 23.9308 70.3462 23.7882 70.5092 23.5845C70.6721 23.3809 70.7536 23.1365 70.7332 22.831C70.7128 22.5255 70.611 22.2607 70.387 22.057C70.1629 21.8534 69.8982 21.7108 69.5723 21.5682C69.2464 21.446 68.8595 21.3442 68.4318 21.2627C68.0041 21.1813 67.5764 21.0794 67.1283 20.9776C66.6802 20.8758 66.2322 20.7536 65.8045 20.611C65.3768 20.4684 65.0102 20.2851 64.6639 20.0204C64.3381 19.776 64.0529 19.4705 63.8696 19.0835C63.666 18.6965 63.5641 18.2485 63.5641 17.6782C63.5641 17.0672 63.7067 16.5784 64.0122 16.1711C64.2973 15.7637 64.6843 15.4379 65.1324 15.1935C65.5804 14.9491 66.0896 14.7658 66.6395 14.664C67.1894 14.5621 67.7189 14.5214 68.2077 14.5214C68.778 14.5214 69.3279 14.5825 69.8371 14.7047C70.3462 14.8269 70.835 15.0102 71.2423 15.2953C71.67 15.5601 72.0163 15.9267 72.281 16.3544C72.5662 16.7821 72.7291 17.3116 72.8106 17.9226H70.2648C70.1426 17.332 69.8778 16.945 69.4705 16.7413C69.0428 16.5377 68.5743 16.4358 68.0244 16.4358C67.8615 16.4358 67.6375 16.4562 67.4134 16.4766C67.169 16.5173 66.9654 16.558 66.7413 16.6395C66.5377 16.721 66.3544 16.8432 66.2118 16.9857C66.0692 17.1283 65.9878 17.332 65.9878 17.5764C65.9878 17.8819 66.0896 18.1059 66.2933 18.2892C66.4969 18.4725 66.7617 18.6151 67.1079 18.7576C67.4338 18.8798 67.8208 18.9817 68.2485 19.0631C68.6762 19.1446 69.1242 19.2464 69.5723 19.3483C70.0204 19.4501 70.4481 19.5723 70.8758 19.7149C71.3035 19.8574 71.6904 20.0407 72.0163 20.3055C72.3421 20.5499 72.6273 20.8554 72.8309 21.222C73.0346 21.5886 73.1364 22.057 73.1364 22.5866C73.1364 23.2383 72.9939 23.7882 72.6884 24.2566C72.3829 24.7047 71.9959 25.0917 71.5275 25.3768C71.0591 25.6619 70.5092 25.8656 69.9389 26.0082C69.3483 26.1304 68.778 26.2118 68.2077 26.2118C67.5153 26.2118 66.8635 26.1303 66.2729 25.9674C65.6823 25.8045 65.1527 25.5601 64.725 25.2546C64.2973 24.9287 63.9511 24.5418 63.7067 24.053C63.4623 23.5845 63.3197 23.0143 63.2994 22.3422H65.7637V22.3625H65.7841ZM73.8289 14.8473H75.6823V11.5071H78.1263V14.8269H80.3259V16.6395H78.1263V22.5458C78.1263 22.8106 78.1466 23.0143 78.167 23.2179C78.1874 23.4012 78.2485 23.5642 78.3096 23.6864C78.391 23.8086 78.5132 23.9104 78.6558 23.9715C78.8187 24.0326 79.0224 24.0733 79.3075 24.0733C79.4705 24.0733 79.6538 24.0733 79.8167 24.053C79.9796 24.0326 80.1629 24.0122 80.3259 23.9715V25.8656C80.0611 25.9063 79.7963 25.9267 79.5316 25.947C79.2668 25.9878 79.0224 25.9878 78.7373 25.9878C78.0855 25.9878 77.5764 25.9267 77.1894 25.8045C76.8024 25.6823 76.4969 25.499 76.2729 25.275C76.0489 25.0306 75.9063 24.7454 75.8248 24.3992C75.7434 24.053 75.7026 23.6253 75.6823 23.1772V16.6599H73.8289V14.8065V14.8473ZM82.0366 14.8473H84.3381V16.3544H84.3788C84.725 15.7026 85.1935 15.2546 85.8045 14.9695C86.4155 14.6843 87.0672 14.5418 87.8004 14.5418C88.6762 14.5418 89.4297 14.6843 90.0815 15.0102C90.7332 15.3157 91.2627 15.723 91.6904 16.2729C92.1181 16.8024 92.444 17.4338 92.6476 18.1466C92.8513 18.8595 92.9735 19.6334 92.9735 20.4277C92.9735 21.1813 92.8717 21.8941 92.6884 22.5866C92.4847 23.279 92.1996 23.9104 91.8126 24.4399C91.4257 24.9695 90.9369 25.3971 90.3259 25.723C89.7149 26.0489 89.0224 26.2118 88.2077 26.2118C87.8615 26.2118 87.4949 26.1711 87.1487 26.11C86.8024 26.0489 86.4562 25.9471 86.1303 25.8045C85.8045 25.6619 85.499 25.4786 85.2342 25.2546C84.9491 25.0306 84.725 24.7658 84.5417 24.4807H84.501V30H82.057V14.8473H82.0366ZM90.5703 20.387C90.5703 19.8982 90.5092 19.4094 90.3666 18.9409C90.2444 18.4725 90.0407 18.0652 89.776 17.6986C89.5112 17.332 89.1853 17.0468 88.8187 16.8228C88.4318 16.5988 87.9837 16.4969 87.4949 16.4969C86.4766 16.4969 85.7026 16.8432 85.1731 17.556C84.6639 18.2688 84.3992 19.2261 84.3992 20.4073C84.3992 20.9776 84.4603 21.4868 84.6028 21.9552C84.7454 22.4236 84.9287 22.831 85.2138 23.1772C85.4786 23.5234 85.8045 23.7882 86.1914 23.9919C86.5784 24.1955 87.0061 24.2974 87.5153 24.2974C88.0855 24.2974 88.5336 24.1752 88.9206 23.9511C89.3075 23.7271 89.613 23.4216 89.8778 23.0754C90.1222 22.7088 90.3055 22.3014 90.4073 21.833C90.5092 21.3442 90.5703 20.8758 90.5703 20.387ZM94.8676 10.6314H97.3116V12.9328H94.8676V10.6314ZM94.8676 14.8473H97.3116V25.9063H94.8676V14.8473ZM99.4908 10.6314H101.935V25.9063H99.4908V10.6314ZM109.389 26.2118C108.513 26.2118 107.719 26.0692 107.026 25.7638C106.334 25.4583 105.764 25.0713 105.275 24.5621C104.807 24.053 104.44 23.4216 104.196 22.7088C103.951 21.9959 103.809 21.2016 103.809 20.3666C103.809 19.5316 103.931 18.7576 104.196 18.0448C104.44 17.332 104.807 16.721 105.275 16.1914C105.743 15.6823 106.334 15.275 107.026 14.9898C107.719 14.7047 108.513 14.5418 109.389 14.5418C110.265 14.5418 111.059 14.6843 111.752 14.9898C112.444 15.275 113.014 15.6823 113.503 16.1914C113.971 16.7006 114.338 17.332 114.582 18.0448C114.827 18.7576 114.969 19.5316 114.969 20.3666C114.969 21.222 114.847 21.9959 114.582 22.7088C114.318 23.4216 113.971 24.0326 113.503 24.5621C113.035 25.0713 112.444 25.4786 111.752 25.7638C111.059 26.0489 110.285 26.2118 109.389 26.2118ZM109.389 24.277C109.919 24.277 110.407 24.1548 110.794 23.9308C111.202 23.7067 111.507 23.4012 111.772 23.0346C112.037 22.668 112.22 22.2403 112.342 21.7923C112.464 21.3238 112.525 20.8554 112.525 20.3666C112.525 19.8982 112.464 19.4297 112.342 18.9613C112.22 18.4929 112.037 18.0855 111.772 17.7189C111.507 17.3523 111.181 17.0672 110.794 16.8432C110.387 16.6191 109.919 16.4969 109.389 16.4969C108.859 16.4969 108.371 16.6191 107.984 16.8432C107.576 17.0672 107.271 17.3727 107.006 17.7189C106.741 18.0855 106.558 18.4929 106.436 18.9613C106.314 19.4297 106.253 19.8982 106.253 20.3666C106.253 20.8554 106.314 21.3238 106.436 21.7923C106.558 22.2607 106.741 22.668 107.006 23.0346C107.271 23.4012 107.597 23.7067 107.984 23.9308C108.391 24.1752 108.859 24.277 109.389 24.277ZM115.703 14.8473H117.556V11.5071H120V14.8269H122.2V16.6395H120V22.5458C120 22.8106 120.02 23.0143 120.041 23.2179C120.061 23.4012 120.122 23.5642 120.183 23.6864C120.265 23.8086 120.387 23.9104 120.53 23.9715C120.692 24.0326 120.896 24.0733 121.181 24.0733C121.344 24.0733 121.527 24.0733 121.69 24.053C121.853 24.0326 122.037 24.0122 122.2 23.9715V25.8656C121.935 25.9063 121.67 25.9267 121.405 25.947C121.141 25.9878 120.896 25.9878 120.611 25.9878C119.959 25.9878 119.45 25.9267 119.063 25.8045C118.676 25.6823 118.371 25.499 118.147 25.275C117.923 25.0306 117.78 24.7454 117.699 24.3992C117.617 24.053 117.576 23.6253 117.556 23.1772V16.6599H115.703V14.8065V14.8065V14.8473Z" fill="black"/>
<path d="M29.2668 10.6314H18.0855L14.6436 0L11.1813 10.6314L0 10.611L9.04277 17.1894L5.58045 27.8208L14.6232 21.2424L23.666 27.8208L20.224 17.1894L29.2668 10.6314Z" fill="#00B67A"/>
<path d="M20.998 19.5927L20.224 17.1894L14.6436 21.2424L20.998 19.5927Z" fill="#005128"/>
</svg>
