<svg width="388" height="30" viewBox="0 0 388 30" fill="none" xmlns="http://www.w3.org/2000/svg">
<path d="M233.517 29L217.595 2.552C217.025 1.602 216.341 0.993996 215.277 0.993996C214.213 0.993996 213.491 1.602 212.921 2.552L197.037 29H202.547L215.087 7.796L221.243 18.132H212.769L210.489 22.046H223.561L227.703 29H233.517Z" fill="url(#paint0_linear_118_51)"/>
<path d="M260.405 29V24.174H245.433C240.455 24.174 236.845 20.336 236.845 15.13C236.845 9.886 240.493 6.2 245.433 6.2H260.405V1.37399H245.433C237.719 1.37399 232.019 6.76999 232.019 14.902C232.019 22.92 237.719 29 245.433 29H260.405Z" fill="url(#paint1_linear_118_51)"/>
<path d="M291.911 29V24.174H276.939C271.961 24.174 268.351 20.336 268.351 15.13C268.351 9.886 271.999 6.2 276.939 6.2H291.911V1.37399H276.939C269.225 1.37399 263.525 6.76999 263.525 14.902C263.525 22.92 269.225 29 276.939 29H291.911Z" fill="url(#paint2_linear_118_51)"/>
<path d="M320.529 29V24.174H300.617V6.2H320.491V1.37399H295.829V29H320.529ZM319.465 16.992V12.926H304.151V16.992H319.465Z" fill="url(#paint3_linear_118_51)"/>
<path d="M345.373 29C351.149 29 353.961 25.542 353.961 20.906C353.961 15.548 350.959 12.926 345.373 12.926H332.719C330.591 12.926 329.261 11.672 329.261 9.582C329.261 7.492 330.553 6.2 332.757 6.2H352.593V1.37399H332.757C327.247 1.37399 324.245 4.68 324.245 9.126C324.245 13.686 327.475 16.992 332.681 16.992H345.373C347.957 16.992 349.401 18.208 349.401 20.564C349.401 22.73 347.957 24.174 345.373 24.174H324.663V29H345.373Z" fill="url(#paint4_linear_118_51)"/>
<path d="M378.808 29C384.584 29 387.396 25.542 387.396 20.906C387.396 15.548 384.394 12.926 378.808 12.926H366.154C364.026 12.926 362.696 11.672 362.696 9.582C362.696 7.492 363.988 6.2 366.192 6.2H386.028V1.37399H366.192C360.682 1.37399 357.68 4.68 357.68 9.126C357.68 13.686 360.91 16.992 366.116 16.992H378.808C381.392 16.992 382.836 18.208 382.836 20.564C382.836 22.73 381.392 24.174 378.808 24.174H358.098V29H378.808Z" fill="url(#paint5_linear_118_51)"/>
<path d="M33.3306 29L25.0086 20.602C28.5806 19.234 30.7086 16.004 30.7086 11.444C30.7086 5.288 26.9846 1.374 20.6766 1.374H0.840576V29H5.62858V6.2H20.6766C23.9826 6.2 25.9586 7.948 25.9586 11.52C25.9586 15.092 24.1346 17.068 20.6766 17.068H9.16258V21.324H19.4986L26.4906 29H33.3306Z" fill="url(#paint6_linear_118_51)"/>
<path d="M60.5347 29V24.174H40.6227V6.2H60.4967V1.374H35.8347V29H60.5347ZM59.4707 16.992V12.926H44.1567V16.992H59.4707Z" fill="url(#paint7_linear_118_51)"/>
<path d="M103.847 29L96.7787 3.008C96.3987 1.678 95.6387 1.032 94.4607 1.032C93.4347 1.032 92.5987 1.602 92.1427 2.666L83.6307 22.198L75.1187 2.666C74.6627 1.602 73.7127 1.032 72.6867 1.032C71.3947 1.032 70.6347 1.678 70.2927 3.008L63.1867 29H67.9367L73.2187 9.582L81.0087 27.556C81.5027 28.734 82.3387 29.38 83.4787 29.38C84.6567 29.38 85.4167 28.734 85.9487 27.556L93.7767 9.582L99.0587 29H103.847Z" fill="url(#paint8_linear_118_51)"/>
<path d="M124.868 29C132.734 29 138.396 22.92 138.396 14.902C138.396 6.884 132.848 1.374 124.868 1.374H118.142C110.428 1.374 104.728 6.77 104.728 14.902C104.728 22.92 110.428 29 118.142 29H124.868ZM118.142 24.174C113.164 24.174 109.554 20.336 109.554 15.13C109.554 9.886 113.202 6.2 118.142 6.2H124.868C129.96 6.2 133.57 9.924 133.57 15.13C133.57 20.336 129.96 24.174 124.868 24.174H118.142Z" fill="url(#paint9_linear_118_51)"/>
<path d="M155.351 29V6.2H165.839V1.374H140.037V6.2H150.525V29H155.351Z" fill="url(#paint10_linear_118_51)"/>
<path d="M193.72 29V24.174H173.808V6.2H193.682V1.374H169.02V29H193.72ZM192.656 16.992V12.926H177.342V16.992H192.656Z" fill="url(#paint11_linear_118_51)"/>
<defs>
<linearGradient id="paint0_linear_118_51" x1="292.217" y1="7.69108" x2="292.217" y2="24.1294" gradientUnits="userSpaceOnUse">
<stop stop-color="#FFAF48"/>
<stop offset="1" stop-color="#FE813A"/>
</linearGradient>
<linearGradient id="paint1_linear_118_51" x1="292.217" y1="7.69108" x2="292.217" y2="24.1294" gradientUnits="userSpaceOnUse">
<stop stop-color="#FFAF48"/>
<stop offset="1" stop-color="#FE813A"/>
</linearGradient>
<linearGradient id="paint2_linear_118_51" x1="292.217" y1="7.69108" x2="292.217" y2="24.1294" gradientUnits="userSpaceOnUse">
<stop stop-color="#FFAF48"/>
<stop offset="1" stop-color="#FE813A"/>
</linearGradient>
<linearGradient id="paint3_linear_118_51" x1="292.217" y1="7.69108" x2="292.217" y2="24.1294" gradientUnits="userSpaceOnUse">
<stop stop-color="#FFAF48"/>
<stop offset="1" stop-color="#FE813A"/>
</linearGradient>
<linearGradient id="paint4_linear_118_51" x1="292.217" y1="7.69108" x2="292.217" y2="24.1294" gradientUnits="userSpaceOnUse">
<stop stop-color="#FFAF48"/>
<stop offset="1" stop-color="#FE813A"/>
</linearGradient>
<linearGradient id="paint5_linear_118_51" x1="292.217" y1="7.69108" x2="292.217" y2="24.1294" gradientUnits="userSpaceOnUse">
<stop stop-color="#FFAF48"/>
<stop offset="1" stop-color="#FE813A"/>
</linearGradient>
<linearGradient id="paint6_linear_118_51" x1="55.6981" y1="24.4499" x2="55.6981" y2="7.19461" gradientUnits="userSpaceOnUse">
<stop stop-color="#7A7A7A"/>
<stop offset="1" stop-color="#A8A8A8"/>
</linearGradient>
<linearGradient id="paint7_linear_118_51" x1="55.6981" y1="24.4499" x2="55.6981" y2="7.19461" gradientUnits="userSpaceOnUse">
<stop stop-color="#7A7A7A"/>
<stop offset="1" stop-color="#A8A8A8"/>
</linearGradient>
<linearGradient id="paint8_linear_118_51" x1="55.6981" y1="24.4499" x2="55.6981" y2="7.19461" gradientUnits="userSpaceOnUse">
<stop stop-color="#7A7A7A"/>
<stop offset="1" stop-color="#A8A8A8"/>
</linearGradient>
<linearGradient id="paint9_linear_118_51" x1="55.6981" y1="24.4499" x2="55.6981" y2="7.19461" gradientUnits="userSpaceOnUse">
<stop stop-color="#7A7A7A"/>
<stop offset="1" stop-color="#A8A8A8"/>
</linearGradient>
<linearGradient id="paint10_linear_118_51" x1="55.6981" y1="24.4499" x2="55.6981" y2="7.19461" gradientUnits="userSpaceOnUse">
<stop stop-color="#7A7A7A"/>
<stop offset="1" stop-color="#A8A8A8"/>
</linearGradient>
<linearGradient id="paint11_linear_118_51" x1="55.6981" y1="24.4499" x2="55.6981" y2="7.19461" gradientUnits="userSpaceOnUse">
<stop stop-color="#7A7A7A"/>
<stop offset="1" stop-color="#A8A8A8"/>
</linearGradient>
</defs>
</svg>
