<svg width="345" height="29" viewBox="0 0 345 29" fill="none" xmlns="http://www.w3.org/2000/svg">
<path d="M223.853 26.86C224.385 27.886 225.297 28.38 226.323 28.38C227.349 28.38 228.261 27.886 228.831 26.86L243.119 0.374023H237.723L226.475 21.616L215.797 0.374023H209.983L217.165 14.092L212.985 21.616L201.813 0.374023H196.037L210.325 26.86C210.895 27.886 211.769 28.38 212.833 28.38C213.821 28.38 214.771 27.886 215.303 26.86L219.597 18.766L223.853 26.86Z" fill="url(#paint0_linear_118_27)"/>
<path d="M261.735 28C269.601 28 275.263 21.92 275.263 13.902C275.263 5.88402 269.715 0.374023 261.735 0.374023H255.009C247.295 0.374023 241.595 5.77002 241.595 13.902C241.595 21.92 247.295 28 255.009 28H261.735ZM255.009 23.174C250.031 23.174 246.421 19.336 246.421 14.13C246.421 8.88602 250.069 5.20002 255.009 5.20002H261.735C266.827 5.20002 270.437 8.92402 270.437 14.13C270.437 19.336 266.827 23.174 261.735 23.174H255.009Z" fill="url(#paint1_linear_118_27)"/>
<path d="M311.659 28L303.337 19.602C306.909 18.234 309.037 15.004 309.037 10.444C309.037 4.28803 305.313 0.374023 299.005 0.374023H279.169V28H283.957V5.20002H299.005C302.311 5.20002 304.287 6.94803 304.287 10.52C304.287 14.092 302.463 16.068 299.005 16.068H287.491V20.324H297.827L304.819 28H311.659Z" fill="url(#paint2_linear_118_27)"/>
<path d="M344.297 28L325.639 13.864L343.727 0.374023H336.317L321.687 11.622C320.699 12.382 320.471 12.99 320.471 13.826C320.471 14.586 320.623 15.194 321.459 15.84L336.925 28H344.297ZM318.989 28V0.374023H314.163V28H318.989Z" fill="url(#paint3_linear_118_27)"/>
<path d="M33.3306 28L25.0086 19.602C28.5806 18.234 30.7086 15.004 30.7086 10.444C30.7086 4.28802 26.9846 0.374013 20.6766 0.374013H0.840576V28H5.62858V5.20001H20.6766C23.9826 5.20001 25.9586 6.94802 25.9586 10.52C25.9586 14.092 24.1346 16.068 20.6766 16.068H9.16258V20.324H19.4986L26.4906 28H33.3306Z" fill="url(#paint4_linear_118_27)"/>
<path d="M60.5347 28V23.174H40.6227V5.20001H60.4967V0.374013H35.8347V28H60.5347ZM59.4707 15.992V11.926H44.1567V15.992H59.4707Z" fill="url(#paint5_linear_118_27)"/>
<path d="M103.847 28L96.7787 2.00801C96.3987 0.678014 95.6387 0.0320129 94.4607 0.0320129C93.4347 0.0320129 92.5987 0.602015 92.1427 1.66601L83.6307 21.198L75.1187 1.66601C74.6627 0.602015 73.7127 0.0320129 72.6867 0.0320129C71.3947 0.0320129 70.6347 0.678014 70.2927 2.00801L63.1867 28H67.9367L73.2187 8.58201L81.0087 26.556C81.5027 27.734 82.3387 28.38 83.4787 28.38C84.6567 28.38 85.4167 27.734 85.9487 26.556L93.7767 8.58201L99.0587 28H103.847Z" fill="url(#paint6_linear_118_27)"/>
<path d="M124.868 28C132.734 28 138.396 21.92 138.396 13.902C138.396 5.88401 132.848 0.374013 124.868 0.374013H118.142C110.428 0.374013 104.728 5.77001 104.728 13.902C104.728 21.92 110.428 28 118.142 28H124.868ZM118.142 23.174C113.164 23.174 109.554 19.336 109.554 14.13C109.554 8.88601 113.202 5.20001 118.142 5.20001H124.868C129.96 5.20001 133.57 8.92401 133.57 14.13C133.57 19.336 129.96 23.174 124.868 23.174H118.142Z" fill="url(#paint7_linear_118_27)"/>
<path d="M155.351 28V5.20001H165.839V0.374013H140.037V5.20001H150.525V28H155.351Z" fill="url(#paint8_linear_118_27)"/>
<path d="M193.72 28V23.174H173.808V5.20001H193.682V0.374013H169.02V28H193.72ZM192.656 15.992V11.926H177.342V15.992H192.656Z" fill="url(#paint9_linear_118_27)"/>
<defs>
<linearGradient id="paint0_linear_118_27" x1="270.167" y1="7.07111" x2="270.167" y2="23.5094" gradientUnits="userSpaceOnUse">
<stop stop-color="#FFAF48"/>
<stop offset="1" stop-color="#FE813A"/>
</linearGradient>
<linearGradient id="paint1_linear_118_27" x1="270.167" y1="7.07111" x2="270.167" y2="23.5094" gradientUnits="userSpaceOnUse">
<stop stop-color="#FFAF48"/>
<stop offset="1" stop-color="#FE813A"/>
</linearGradient>
<linearGradient id="paint2_linear_118_27" x1="270.167" y1="7.07111" x2="270.167" y2="23.5094" gradientUnits="userSpaceOnUse">
<stop stop-color="#FFAF48"/>
<stop offset="1" stop-color="#FE813A"/>
</linearGradient>
<linearGradient id="paint3_linear_118_27" x1="270.167" y1="7.07111" x2="270.167" y2="23.5094" gradientUnits="userSpaceOnUse">
<stop stop-color="#FFAF48"/>
<stop offset="1" stop-color="#FE813A"/>
</linearGradient>
<linearGradient id="paint4_linear_118_27" x1="55.6981" y1="23.4499" x2="55.6981" y2="6.19462" gradientUnits="userSpaceOnUse">
<stop stop-color="#7A7A7A"/>
<stop offset="1" stop-color="#A8A8A8"/>
</linearGradient>
<linearGradient id="paint5_linear_118_27" x1="55.6981" y1="23.4499" x2="55.6981" y2="6.19462" gradientUnits="userSpaceOnUse">
<stop stop-color="#7A7A7A"/>
<stop offset="1" stop-color="#A8A8A8"/>
</linearGradient>
<linearGradient id="paint6_linear_118_27" x1="55.6981" y1="23.4499" x2="55.6981" y2="6.19462" gradientUnits="userSpaceOnUse">
<stop stop-color="#7A7A7A"/>
<stop offset="1" stop-color="#A8A8A8"/>
</linearGradient>
<linearGradient id="paint7_linear_118_27" x1="55.6981" y1="23.4499" x2="55.6981" y2="6.19462" gradientUnits="userSpaceOnUse">
<stop stop-color="#7A7A7A"/>
<stop offset="1" stop-color="#A8A8A8"/>
</linearGradient>
<linearGradient id="paint8_linear_118_27" x1="55.6981" y1="23.4499" x2="55.6981" y2="6.19462" gradientUnits="userSpaceOnUse">
<stop stop-color="#7A7A7A"/>
<stop offset="1" stop-color="#A8A8A8"/>
</linearGradient>
<linearGradient id="paint9_linear_118_27" x1="55.6981" y1="23.4499" x2="55.6981" y2="6.19462" gradientUnits="userSpaceOnUse">
<stop stop-color="#7A7A7A"/>
<stop offset="1" stop-color="#A8A8A8"/>
</linearGradient>
</defs>
</svg>
