<svg width="489" height="29" viewBox="0 0 489 29" fill="none" xmlns="http://www.w3.org/2000/svg">
<path d="M235.907 28L228.839 2.00801C228.459 0.678014 227.699 0.0320129 226.521 0.0320129C225.495 0.0320129 224.659 0.602015 224.203 1.66601L215.691 21.198L207.179 1.66601C206.723 0.602015 205.773 0.0320129 204.747 0.0320129C203.455 0.0320129 202.695 0.678014 202.353 2.00801L195.247 28H199.997L205.279 8.58201L213.069 26.556C213.563 27.734 214.399 28.38 215.539 28.38C216.717 28.38 217.477 27.734 218.009 26.556L225.837 8.58201L231.119 28H235.907Z" fill="url(#paint0_linear_118_33)"/>
<path d="M256.929 28C264.795 28 270.457 21.92 270.457 13.902C270.457 5.88401 264.909 0.374013 256.929 0.374013H250.203C242.489 0.374013 236.789 5.77001 236.789 13.902C236.789 21.92 242.489 28 250.203 28H256.929ZM250.203 23.174C245.225 23.174 241.615 19.336 241.615 14.13C241.615 8.88601 245.263 5.20001 250.203 5.20001H256.929C262.021 5.20001 265.631 8.92401 265.631 14.13C265.631 19.336 262.021 23.174 256.929 23.174H250.203Z" fill="url(#paint1_linear_118_33)"/>
<path d="M298.264 27.316C298.948 28 299.67 28.342 300.468 28.342C301.874 28.342 302.862 27.278 302.862 25.454V0.146013H298.264V20.362L278.77 1.02001C278.048 0.298014 277.44 0.0320129 276.718 0.0320129C275.198 0.0320129 274.248 1.13401 274.248 2.92001V28H278.846V7.78402L298.264 27.316Z" fill="url(#paint2_linear_118_33)"/>
<path d="M312.63 28V0.374013H307.804V28H312.63Z" fill="url(#paint3_linear_118_33)"/>
<path d="M331.349 28V5.20001H341.837V0.374013H316.035V5.20001H326.523V28H331.349Z" fill="url(#paint4_linear_118_33)"/>
<path d="M363.729 28C371.595 28 377.257 21.92 377.257 13.902C377.257 5.88401 371.709 0.374013 363.729 0.374013H357.003C349.289 0.374013 343.589 5.77001 343.589 13.902C343.589 21.92 349.289 28 357.003 28H363.729ZM357.003 23.174C352.025 23.174 348.415 19.336 348.415 14.13C348.415 8.88601 352.063 5.20001 357.003 5.20001H363.729C368.821 5.20001 372.431 8.92401 372.431 14.13C372.431 19.336 368.821 23.174 363.729 23.174H357.003Z" fill="url(#paint5_linear_118_33)"/>
<path d="M413.653 28L405.331 19.602C408.903 18.234 411.031 15.004 411.031 10.444C411.031 4.28802 407.307 0.374013 400.999 0.374013H381.163V28H385.951V5.20001H400.999C404.305 5.20001 406.281 6.94802 406.281 10.52C406.281 14.092 404.457 16.068 400.999 16.068H389.485V20.324H399.821L406.813 28H413.653Z" fill="url(#paint6_linear_118_33)"/>
<path d="M421.249 28V0.374013H416.423V28H421.249Z" fill="url(#paint7_linear_118_33)"/>
<path d="M450.19 27.316C450.874 28 451.596 28.342 452.394 28.342C453.8 28.342 454.788 27.278 454.788 25.454V0.146013H450.19V20.362L430.696 1.02001C429.974 0.298014 429.366 0.0320129 428.644 0.0320129C427.124 0.0320129 426.174 1.13401 426.174 2.92001V28H430.772V7.78402L450.19 27.316Z" fill="url(#paint8_linear_118_33)"/>
<path d="M488.762 28V11.926H471.434V15.992H483.898V23.174H472.08C467.102 23.174 463.492 19.336 463.492 14.13C463.492 8.88601 467.14 5.20001 472.08 5.20001H487.052V0.374013H472.08C464.366 0.374013 458.666 5.77001 458.666 13.902C458.666 21.92 464.366 28 472.08 28H488.762Z" fill="url(#paint9_linear_118_33)"/>
<path d="M21.5505 28C27.3265 28 30.1385 24.542 30.1385 19.906C30.1385 14.548 27.1365 11.926 21.5505 11.926H8.89655C6.76855 11.926 5.43855 10.672 5.43855 8.58202C5.43855 6.49202 6.73055 5.20002 8.93455 5.20002H28.7705V0.374023H8.93455C3.42455 0.374023 0.422546 3.68002 0.422546 8.12603C0.422546 12.686 3.65255 15.992 8.85855 15.992H21.5505C24.1345 15.992 25.5785 17.208 25.5785 19.564C25.5785 21.73 24.1345 23.174 21.5505 23.174H0.840546V28H21.5505Z" fill="url(#paint10_linear_118_33)"/>
<path d="M58.9761 28V23.174H39.0641V5.20002H58.9381V0.374023H34.2761V28H58.9761ZM57.9121 15.992V11.926H42.5981V15.992H57.9121Z" fill="url(#paint11_linear_118_33)"/>
<path d="M95.6001 28L87.2781 19.602C90.8501 18.234 92.9781 15.004 92.9781 10.444C92.9781 4.28803 89.2541 0.374023 82.9461 0.374023H63.1101V28H67.8981V5.20002H82.9461C86.2521 5.20002 88.2281 6.94803 88.2281 10.52C88.2281 14.092 86.4041 16.068 82.9461 16.068H71.4321V20.324H81.7681L88.7601 28H95.6001Z" fill="url(#paint12_linear_118_33)"/>
<path d="M108.898 26.822C109.468 27.772 110.19 28.38 111.254 28.38C112.242 28.38 113.002 27.772 113.572 26.822L129.494 0.374023H123.946L111.444 21.654L98.9037 0.374023H93.0137L108.898 26.822Z" fill="url(#paint13_linear_118_33)"/>
<path d="M157.168 28V23.174H137.256V5.20002H157.13V0.374023H132.467V28H157.168ZM156.104 15.992V11.926H140.79V15.992H156.104Z" fill="url(#paint14_linear_118_33)"/>
<path d="M193.791 28L185.469 19.602C189.041 18.234 191.169 15.004 191.169 10.444C191.169 4.28803 187.445 0.374023 181.137 0.374023H161.301V28H166.089V5.20002H181.137C184.443 5.20002 186.419 6.94803 186.419 10.52C186.419 14.092 184.595 16.068 181.137 16.068H169.623V20.324H179.959L186.951 28H193.791Z" fill="url(#paint15_linear_118_33)"/>
<defs>
<linearGradient id="paint0_linear_118_33" x1="342.004" y1="6.81088" x2="342.004" y2="23.4499" gradientUnits="userSpaceOnUse">
<stop stop-color="#FFAF48"/>
<stop offset="1" stop-color="#FE813A"/>
</linearGradient>
<linearGradient id="paint1_linear_118_33" x1="342.004" y1="6.81088" x2="342.004" y2="23.4499" gradientUnits="userSpaceOnUse">
<stop stop-color="#FFAF48"/>
<stop offset="1" stop-color="#FE813A"/>
</linearGradient>
<linearGradient id="paint2_linear_118_33" x1="342.004" y1="6.81088" x2="342.004" y2="23.4499" gradientUnits="userSpaceOnUse">
<stop stop-color="#FFAF48"/>
<stop offset="1" stop-color="#FE813A"/>
</linearGradient>
<linearGradient id="paint3_linear_118_33" x1="342.004" y1="6.81088" x2="342.004" y2="23.4499" gradientUnits="userSpaceOnUse">
<stop stop-color="#FFAF48"/>
<stop offset="1" stop-color="#FE813A"/>
</linearGradient>
<linearGradient id="paint4_linear_118_33" x1="342.004" y1="6.81088" x2="342.004" y2="23.4499" gradientUnits="userSpaceOnUse">
<stop stop-color="#FFAF48"/>
<stop offset="1" stop-color="#FE813A"/>
</linearGradient>
<linearGradient id="paint5_linear_118_33" x1="342.004" y1="6.81088" x2="342.004" y2="23.4499" gradientUnits="userSpaceOnUse">
<stop stop-color="#FFAF48"/>
<stop offset="1" stop-color="#FE813A"/>
</linearGradient>
<linearGradient id="paint6_linear_118_33" x1="342.004" y1="6.81088" x2="342.004" y2="23.4499" gradientUnits="userSpaceOnUse">
<stop stop-color="#FFAF48"/>
<stop offset="1" stop-color="#FE813A"/>
</linearGradient>
<linearGradient id="paint7_linear_118_33" x1="342.004" y1="6.81088" x2="342.004" y2="23.4499" gradientUnits="userSpaceOnUse">
<stop stop-color="#FFAF48"/>
<stop offset="1" stop-color="#FE813A"/>
</linearGradient>
<linearGradient id="paint8_linear_118_33" x1="342.004" y1="6.81088" x2="342.004" y2="23.4499" gradientUnits="userSpaceOnUse">
<stop stop-color="#FFAF48"/>
<stop offset="1" stop-color="#FE813A"/>
</linearGradient>
<linearGradient id="paint9_linear_118_33" x1="342.004" y1="6.81088" x2="342.004" y2="23.4499" gradientUnits="userSpaceOnUse">
<stop stop-color="#FFAF48"/>
<stop offset="1" stop-color="#FE813A"/>
</linearGradient>
<linearGradient id="paint10_linear_118_33" x1="55.4192" y1="23.5094" x2="55.4192" y2="6.46229" gradientUnits="userSpaceOnUse">
<stop stop-color="#7A7A7A"/>
<stop offset="1" stop-color="#A8A8A8"/>
</linearGradient>
<linearGradient id="paint11_linear_118_33" x1="55.4192" y1="23.5094" x2="55.4192" y2="6.46229" gradientUnits="userSpaceOnUse">
<stop stop-color="#7A7A7A"/>
<stop offset="1" stop-color="#A8A8A8"/>
</linearGradient>
<linearGradient id="paint12_linear_118_33" x1="55.4192" y1="23.5094" x2="55.4192" y2="6.46229" gradientUnits="userSpaceOnUse">
<stop stop-color="#7A7A7A"/>
<stop offset="1" stop-color="#A8A8A8"/>
</linearGradient>
<linearGradient id="paint13_linear_118_33" x1="55.4192" y1="23.5094" x2="55.4192" y2="6.46229" gradientUnits="userSpaceOnUse">
<stop stop-color="#7A7A7A"/>
<stop offset="1" stop-color="#A8A8A8"/>
</linearGradient>
<linearGradient id="paint14_linear_118_33" x1="55.4192" y1="23.5094" x2="55.4192" y2="6.46229" gradientUnits="userSpaceOnUse">
<stop stop-color="#7A7A7A"/>
<stop offset="1" stop-color="#A8A8A8"/>
</linearGradient>
<linearGradient id="paint15_linear_118_33" x1="55.4192" y1="23.5094" x2="55.4192" y2="6.46229" gradientUnits="userSpaceOnUse">
<stop stop-color="#7A7A7A"/>
<stop offset="1" stop-color="#A8A8A8"/>
</linearGradient>
</defs>
</svg>
