<svg width="503" height="50" viewBox="0 0 503 50" fill="none" xmlns="http://www.w3.org/2000/svg">
<path d="M294.609 40C300.385 40 303.197 36.542 303.197 31.906C303.197 26.548 300.195 23.926 294.609 23.926H281.955C279.827 23.926 278.497 22.672 278.497 20.582C278.497 18.492 279.789 17.2 281.993 17.2H301.829V12.374H281.993C276.483 12.374 273.481 15.68 273.481 20.126C273.481 24.686 276.711 27.992 281.917 27.992H294.609C297.193 27.992 298.637 29.208 298.637 31.564C298.637 33.73 297.193 35.174 294.609 35.174H273.899V40H294.609Z" fill="url(#paint0_linear_33_508)"/>
<path d="M332.035 27.802C332.035 33.35 329.565 35.63 321.965 35.63C314.365 35.63 311.895 33.35 311.895 27.802V12.374H306.917V27.802C306.917 36.352 311.173 40.38 321.813 40.38C332.529 40.38 336.747 36.352 336.747 27.802V12.374H332.035V27.802Z" fill="url(#paint1_linear_33_508)"/>
<path d="M360.522 32.324C366.906 32.324 370.63 28.22 370.63 22.254C370.63 16.212 366.906 12.374 360.522 12.374H341.104V40H345.892V17.2H360.522C363.904 17.2 365.918 19.214 365.918 22.406C365.918 25.522 363.904 27.65 360.522 27.65H349.426V32.324H360.522Z" fill="url(#paint2_linear_33_508)"/>
<path d="M393.475 32.324C399.859 32.324 403.583 28.22 403.583 22.254C403.583 16.212 399.859 12.374 393.475 12.374H374.057V40H378.845V17.2H393.475C396.857 17.2 398.871 19.214 398.871 22.406C398.871 25.522 396.857 27.65 393.475 27.65H382.379V32.324H393.475Z" fill="url(#paint3_linear_33_508)"/>
<path d="M426.352 40C434.218 40 439.881 33.92 439.881 25.902C439.881 17.884 434.332 12.374 426.352 12.374H419.627C411.913 12.374 406.213 17.77 406.213 25.902C406.213 33.92 411.913 40 419.627 40H426.352ZM419.627 35.174C414.649 35.174 411.038 31.336 411.038 26.13C411.038 20.886 414.687 17.2 419.627 17.2H426.352C431.444 17.2 435.054 20.924 435.054 26.13C435.054 31.336 431.444 35.174 426.352 35.174H419.627Z" fill="url(#paint4_linear_33_508)"/>
<path d="M476.276 40L467.954 31.602C471.526 30.234 473.654 27.004 473.654 22.444C473.654 16.288 469.93 12.374 463.622 12.374H443.786V40H448.574V17.2H463.622C466.928 17.2 468.904 18.948 468.904 22.52C468.904 26.092 467.08 28.068 463.622 28.068H452.108V32.324H462.444L469.436 40H476.276Z" fill="url(#paint5_linear_33_508)"/>
<path d="M491.866 40V17.2H502.354V12.374H476.552V17.2H487.04V40H491.866Z" fill="url(#paint6_linear_33_508)"/>
<path d="M108.331 40L100.009 31.602C103.581 30.234 105.709 27.004 105.709 22.444C105.709 16.288 101.985 12.374 95.6766 12.374H75.8406V40H80.6286V17.2H95.6766C98.9826 17.2 100.959 18.948 100.959 22.52C100.959 26.092 99.1346 28.068 95.6766 28.068H84.1626V32.324H94.4986L101.491 40H108.331Z" fill="url(#paint7_linear_33_508)"/>
<path d="M135.535 40V35.174H115.623V17.2H135.497V12.374H110.835V40H135.535ZM134.471 27.992V23.926H119.157V27.992H134.471Z" fill="url(#paint8_linear_33_508)"/>
<path d="M178.847 40L171.779 14.008C171.399 12.678 170.639 12.032 169.461 12.032C168.435 12.032 167.599 12.602 167.143 13.666L158.631 33.198L150.119 13.666C149.663 12.602 148.713 12.032 147.687 12.032C146.395 12.032 145.635 12.678 145.293 14.008L138.187 40H142.937L148.219 20.582L156.009 38.556C156.503 39.734 157.339 40.38 158.479 40.38C159.657 40.38 160.417 39.734 160.949 38.556L168.777 20.582L174.059 40H178.847Z" fill="url(#paint9_linear_33_508)"/>
<path d="M199.868 40C207.734 40 213.396 33.92 213.396 25.902C213.396 17.884 207.848 12.374 199.868 12.374H193.142C185.428 12.374 179.728 17.77 179.728 25.902C179.728 33.92 185.428 40 193.142 40H199.868ZM193.142 35.174C188.164 35.174 184.554 31.336 184.554 26.13C184.554 20.886 188.202 17.2 193.142 17.2H199.868C204.96 17.2 208.57 20.924 208.57 26.13C208.57 31.336 204.96 35.174 199.868 35.174H193.142Z" fill="url(#paint10_linear_33_508)"/>
<path d="M230.351 40V17.2H240.839V12.374H215.037V17.2H225.525V40H230.351Z" fill="url(#paint11_linear_33_508)"/>
<path d="M268.72 40V35.174H248.808V17.2H268.682V12.374H244.02V40H268.72ZM267.656 27.992V23.926H252.342V27.992H267.656Z" fill="url(#paint12_linear_33_508)"/>
<path d="M67.4254 0H69.4325V50H67.4254V0Z" fill="url(#paint13_linear_33_508)"/>
<path d="M15.4748 31V8.19999H25.9628V3.37399H0.160828V8.19999H10.6488V31H15.4748Z" fill="url(#paint14_linear_33_508)"/>
<path d="M49.8544 31C55.6304 31 58.4424 27.542 58.4424 22.906C58.4424 17.548 55.4404 14.926 49.8544 14.926H37.2004C35.0724 14.926 33.7424 13.672 33.7424 11.582C33.7424 9.49199 35.0344 8.19999 37.2384 8.19999H57.0744V3.37399H37.2384C31.7284 3.37399 28.7264 6.67999 28.7264 11.126C28.7264 15.686 31.9564 18.992 37.1624 18.992H49.8544C52.4384 18.992 53.8824 20.208 53.8824 22.564C53.8824 24.73 52.4384 26.174 49.8544 26.174H29.1444V31H49.8544Z" fill="url(#paint15_linear_33_508)"/>
<path d="M11.044 43.364C14.068 43.364 15.832 41.42 15.832 38.594C15.832 35.732 14.068 33.914 11.044 33.914H1.84598V47H4.11398V36.2H11.044C12.646 36.2 13.6 37.154 13.6 38.666C13.6 40.142 12.646 41.15 11.044 41.15H5.78798V43.364H11.044Z" fill="url(#paint16_linear_33_508)"/>
<path d="M28.5434 47V44.714H19.7414V33.914H17.4554V47H28.5434Z" fill="url(#paint17_linear_33_508)"/>
<path d="M41.8819 41.222C41.8819 43.85 40.7119 44.93 37.1119 44.93C33.5119 44.93 32.3419 43.85 32.3419 41.222V33.914H29.9839V41.222C29.9839 45.272 31.9999 47.18 37.0399 47.18C42.1159 47.18 44.1139 45.272 44.1139 41.222V33.914H41.8819V41.222Z" fill="url(#paint18_linear_33_508)"/>
<path d="M55.988 47C58.724 47 60.056 45.362 60.056 43.166C60.056 40.628 58.634 39.386 55.988 39.386H49.994C48.986 39.386 48.356 38.792 48.356 37.802C48.356 36.812 48.968 36.2 50.012 36.2H59.408V33.914H50.012C47.402 33.914 45.98 35.48 45.98 37.586C45.98 39.746 47.51 41.312 49.976 41.312H55.988C57.212 41.312 57.896 41.888 57.896 43.004C57.896 44.03 57.212 44.714 55.988 44.714H46.178V47H55.988Z" fill="url(#paint19_linear_33_508)"/>
<defs>
<linearGradient id="paint0_linear_33_508" x1="387.918" y1="19.0711" x2="387.918" y2="35.5094" gradientUnits="userSpaceOnUse">
<stop stop-color="#FFAF48"/>
<stop offset="1" stop-color="#FE813A"/>
</linearGradient>
<linearGradient id="paint1_linear_33_508" x1="387.918" y1="19.0711" x2="387.918" y2="35.5094" gradientUnits="userSpaceOnUse">
<stop stop-color="#FFAF48"/>
<stop offset="1" stop-color="#FE813A"/>
</linearGradient>
<linearGradient id="paint2_linear_33_508" x1="387.918" y1="19.0711" x2="387.918" y2="35.5094" gradientUnits="userSpaceOnUse">
<stop stop-color="#FFAF48"/>
<stop offset="1" stop-color="#FE813A"/>
</linearGradient>
<linearGradient id="paint3_linear_33_508" x1="387.918" y1="19.0711" x2="387.918" y2="35.5094" gradientUnits="userSpaceOnUse">
<stop stop-color="#FFAF48"/>
<stop offset="1" stop-color="#FE813A"/>
</linearGradient>
<linearGradient id="paint4_linear_33_508" x1="387.918" y1="19.0711" x2="387.918" y2="35.5094" gradientUnits="userSpaceOnUse">
<stop stop-color="#FFAF48"/>
<stop offset="1" stop-color="#FE813A"/>
</linearGradient>
<linearGradient id="paint5_linear_33_508" x1="387.918" y1="19.0711" x2="387.918" y2="35.5094" gradientUnits="userSpaceOnUse">
<stop stop-color="#FFAF48"/>
<stop offset="1" stop-color="#FE813A"/>
</linearGradient>
<linearGradient id="paint6_linear_33_508" x1="387.918" y1="19.0711" x2="387.918" y2="35.5094" gradientUnits="userSpaceOnUse">
<stop stop-color="#FFAF48"/>
<stop offset="1" stop-color="#FE813A"/>
</linearGradient>
<linearGradient id="paint7_linear_33_508" x1="130.698" y1="35.4499" x2="130.698" y2="18.1946" gradientUnits="userSpaceOnUse">
<stop stop-color="#7A7A7A"/>
<stop offset="1" stop-color="#A8A8A8"/>
</linearGradient>
<linearGradient id="paint8_linear_33_508" x1="130.698" y1="35.4499" x2="130.698" y2="18.1946" gradientUnits="userSpaceOnUse">
<stop stop-color="#7A7A7A"/>
<stop offset="1" stop-color="#A8A8A8"/>
</linearGradient>
<linearGradient id="paint9_linear_33_508" x1="130.698" y1="35.4499" x2="130.698" y2="18.1946" gradientUnits="userSpaceOnUse">
<stop stop-color="#7A7A7A"/>
<stop offset="1" stop-color="#A8A8A8"/>
</linearGradient>
<linearGradient id="paint10_linear_33_508" x1="130.698" y1="35.4499" x2="130.698" y2="18.1946" gradientUnits="userSpaceOnUse">
<stop stop-color="#7A7A7A"/>
<stop offset="1" stop-color="#A8A8A8"/>
</linearGradient>
<linearGradient id="paint11_linear_33_508" x1="130.698" y1="35.4499" x2="130.698" y2="18.1946" gradientUnits="userSpaceOnUse">
<stop stop-color="#7A7A7A"/>
<stop offset="1" stop-color="#A8A8A8"/>
</linearGradient>
<linearGradient id="paint12_linear_33_508" x1="130.698" y1="35.4499" x2="130.698" y2="18.1946" gradientUnits="userSpaceOnUse">
<stop stop-color="#7A7A7A"/>
<stop offset="1" stop-color="#A8A8A8"/>
</linearGradient>
<linearGradient id="paint13_linear_33_508" x1="68.429" y1="11.9565" x2="68.429" y2="41.3043" gradientUnits="userSpaceOnUse">
<stop stop-color="#FFAF48"/>
<stop offset="1" stop-color="#FE813A"/>
</linearGradient>
<linearGradient id="paint14_linear_33_508" x1="29.3016" y1="9.98021" x2="29.3016" y2="26.1955" gradientUnits="userSpaceOnUse">
<stop stop-color="#FFAF48"/>
<stop offset="1" stop-color="#FE813A"/>
</linearGradient>
<linearGradient id="paint15_linear_33_508" x1="29.3016" y1="9.98021" x2="29.3016" y2="26.1955" gradientUnits="userSpaceOnUse">
<stop stop-color="#FFAF48"/>
<stop offset="1" stop-color="#FE813A"/>
</linearGradient>
<linearGradient id="paint16_linear_33_508" x1="18.4017" y1="44.8729" x2="18.4017" y2="36.7979" gradientUnits="userSpaceOnUse">
<stop stop-color="#7A7A7A"/>
<stop offset="1" stop-color="#A8A8A8"/>
</linearGradient>
<linearGradient id="paint17_linear_33_508" x1="18.4017" y1="44.8729" x2="18.4017" y2="36.7979" gradientUnits="userSpaceOnUse">
<stop stop-color="#7A7A7A"/>
<stop offset="1" stop-color="#A8A8A8"/>
</linearGradient>
<linearGradient id="paint18_linear_33_508" x1="18.4017" y1="44.8729" x2="18.4017" y2="36.7979" gradientUnits="userSpaceOnUse">
<stop stop-color="#7A7A7A"/>
<stop offset="1" stop-color="#A8A8A8"/>
</linearGradient>
<linearGradient id="paint19_linear_33_508" x1="18.4017" y1="44.8729" x2="18.4017" y2="36.7979" gradientUnits="userSpaceOnUse">
<stop stop-color="#7A7A7A"/>
<stop offset="1" stop-color="#A8A8A8"/>
</linearGradient>
</defs>
</svg>
