<svg width="247" height="24" viewBox="0 0 247 24" fill="none" xmlns="http://www.w3.org/2000/svg">
<path d="M135.905 12.8764C135.905 15.4459 134.761 16.5019 131.241 16.5019C127.721 16.5019 126.577 15.4459 126.577 12.8764V5.73096H124.271V12.8764C124.271 16.8363 126.242 18.7018 131.17 18.7018C136.133 18.7018 138.087 16.8363 138.087 12.8764V5.73096H135.905V12.8764Z" fill="url(#paint0_linear_203_12)"/>
<path d="M149.098 14.9707C152.055 14.9707 153.78 13.07 153.78 10.3068C153.78 7.50851 152.055 5.73096 149.098 5.73096H140.105V18.5258H142.323V7.9661H149.098C150.665 7.9661 151.598 8.89887 151.598 10.3772C151.598 11.8204 150.665 12.806 149.098 12.806H143.959V14.9707H149.098Z" fill="url(#paint1_linear_203_12)"/>
<path d="M168.936 18.5258V11.0812H160.911V12.9644H166.684V16.2907H161.21C158.905 16.2907 157.233 14.5131 157.233 12.102C157.233 9.67325 158.922 7.9661 161.21 7.9661H168.144V5.73096H161.21C157.637 5.73096 154.998 8.23009 154.998 11.9964C154.998 15.7099 157.637 18.5258 161.21 18.5258H168.936Z" fill="url(#paint2_linear_203_12)"/>
<path d="M186.038 18.5258L182.183 14.6363C183.838 14.0027 184.823 12.5068 184.823 10.3948C184.823 7.54371 183.099 5.73096 180.177 5.73096H170.99V18.5258H173.208V7.9661H180.177C181.708 7.9661 182.623 8.77568 182.623 10.43C182.623 12.0844 181.779 12.9996 180.177 12.9996H174.844V14.9707H179.632L182.87 18.5258H186.038Z" fill="url(#paint3_linear_203_12)"/>
<path d="M203.231 18.5258L195.856 6.27654C195.592 5.83655 195.276 5.55496 194.783 5.55496C194.29 5.55496 193.956 5.83655 193.692 6.27654L186.335 18.5258H188.887L194.695 8.70528L197.546 13.4923H193.621L192.565 15.3051H198.62L200.538 18.5258H203.231Z" fill="url(#paint4_linear_203_12)"/>
<path d="M212.017 18.5258C215.625 18.5258 218.248 15.7099 218.248 11.9964C218.248 8.28289 215.625 5.73096 212.017 5.73096H204.608V18.5258H212.017ZM206.826 16.2907V7.9661H212.017C214.323 7.9661 216.012 9.69085 216.012 12.102C216.012 14.5131 214.323 16.2907 212.017 16.2907H206.826Z" fill="url(#paint5_linear_203_12)"/>
<path d="M231.516 18.5258V16.2907H222.294V7.9661H231.498V5.73096H220.076V18.5258H231.516ZM231.023 12.9644V11.0812H223.931V12.9644H231.023Z" fill="url(#paint6_linear_203_12)"/>
<path d="M243.022 18.5258C245.698 18.5258 247 16.9243 247 14.7771C247 12.2956 245.61 11.0812 243.022 11.0812H237.162C236.176 11.0812 235.56 10.5004 235.56 9.53246C235.56 8.56448 236.159 7.9661 237.179 7.9661H246.366V5.73096H237.179C234.627 5.73096 233.237 7.26212 233.237 9.32126C233.237 11.4332 234.733 12.9644 237.144 12.9644H243.022C244.219 12.9644 244.888 13.5275 244.888 14.6187C244.888 15.6219 244.219 16.2907 243.022 16.2907H233.431V18.5258H243.022Z" fill="url(#paint7_linear_203_12)"/>
<path d="M45.892 18.5258V16.2907H37.2858V5.73097H35.0507V18.5258H45.892Z" fill="url(#paint8_linear_203_12)"/>
<path d="M49.8524 18.5258V5.73097H47.6173V18.5258H49.8524Z" fill="url(#paint9_linear_203_12)"/>
<path d="M64.9634 18.5258V16.2907H58.0292C55.7236 16.2907 54.0517 14.5131 54.0517 12.102C54.0517 9.67326 55.7412 7.96611 58.0292 7.96611H64.9634V5.73097H58.0292C54.4565 5.73097 51.8165 8.2301 51.8165 11.9964C51.8165 15.7099 54.4565 18.5258 58.0292 18.5258H64.9634Z" fill="url(#paint10_linear_203_12)"/>
<path d="M78.2176 18.5258V16.2907H68.9955V7.96611H78.2V5.73097H66.7779V18.5258H78.2176ZM77.7248 12.9644V11.0812H70.6322V12.9644H77.7248Z" fill="url(#paint11_linear_203_12)"/>
<path d="M91.2024 18.209C91.5192 18.5258 91.8535 18.6842 92.2231 18.6842C92.8743 18.6842 93.3319 18.1914 93.3319 17.3467V5.62537H91.2024V14.9883L82.1738 6.03016C81.8394 5.69577 81.5578 5.57257 81.2234 5.57257C80.5195 5.57257 80.0795 6.08296 80.0795 6.91014V18.5258H82.209V9.16288L91.2024 18.209Z" fill="url(#paint12_linear_203_12)"/>
<path d="M105.089 18.5258C107.764 18.5258 109.067 16.9243 109.067 14.7771C109.067 12.2956 107.676 11.0812 105.089 11.0812H99.2286C98.243 11.0812 97.627 10.5004 97.627 9.53246C97.627 8.56449 98.2254 7.96611 99.2462 7.96611H108.433V5.73097H99.2462C96.6942 5.73097 95.3039 7.26213 95.3039 9.32127C95.3039 11.4332 96.7998 12.9644 99.211 12.9644H105.089C106.286 12.9644 106.955 13.5276 106.955 14.6187C106.955 15.6219 106.286 16.2907 105.089 16.2907H95.4975V18.5258H105.089Z" fill="url(#paint13_linear_203_12)"/>
<path d="M122.423 18.5258V16.2907H113.201V7.96611H122.405V5.73097H110.983V18.5258H122.423ZM121.93 12.9644V11.0812H114.837V12.9644H121.93Z" fill="url(#paint14_linear_203_12)"/>
<path d="M31.1533 0H32.0829V23.1573H31.1533V0Z" fill="url(#paint15_linear_203_12)"/>
<path d="M7.09261 14.3575V3.79778H11.9501V1.56264H0V3.79778H4.85747V14.3575H7.09261Z" fill="url(#paint16_linear_203_12)"/>
<path d="M23.0154 14.3575C25.6905 14.3575 26.9929 12.7559 26.9929 10.6088C26.9929 8.12726 25.6025 6.91289 23.0154 6.91289H17.1547C16.1692 6.91289 15.5532 6.33211 15.5532 5.36414C15.5532 4.39616 16.1516 3.79778 17.1723 3.79778H26.3593V1.56264H17.1723C14.6204 1.56264 13.23 3.0938 13.23 5.15294C13.23 7.26488 14.726 8.79604 17.1371 8.79604H23.0154C24.2121 8.79604 24.8809 9.35923 24.8809 10.4504C24.8809 11.4536 24.2121 12.1224 23.0154 12.1224H13.4236V14.3575H23.0154Z" fill="url(#paint17_linear_203_12)"/>
<path d="M5.04053 20.0838C6.44108 20.0838 7.25807 19.1835 7.25807 17.8746C7.25807 16.5491 6.44108 15.7071 5.04053 15.7071H0.780518V21.7678H1.83093V16.7659H5.04053C5.78249 16.7659 6.22433 17.2077 6.22433 17.908C6.22433 18.5916 5.78249 19.0584 5.04053 19.0584H2.60624V20.0838H5.04053Z" fill="url(#paint18_linear_203_12)"/>
<path d="M13.1453 21.7678V20.7091H9.06868V15.7071H8.00993V21.7678H13.1453Z" fill="url(#paint19_linear_203_12)"/>
<path d="M19.323 19.0918C19.323 20.3089 18.7811 20.8091 17.1138 20.8091C15.4465 20.8091 14.9046 20.3089 14.9046 19.0918V15.7071H13.8125V19.0918C13.8125 20.9675 14.7462 21.8512 17.0804 21.8512C19.4314 21.8512 20.3567 20.9675 20.3567 19.0918V15.7071H19.323V19.0918Z" fill="url(#paint20_linear_203_12)"/>
<path d="M25.8562 21.7678C27.1233 21.7678 27.7402 21.0092 27.7402 19.9921C27.7402 18.8167 27.0816 18.2415 25.8562 18.2415H23.0801C22.6132 18.2415 22.3214 17.9663 22.3214 17.5078C22.3214 17.0493 22.6049 16.7659 23.0884 16.7659H27.4401V15.7071H23.0884C21.8796 15.7071 21.221 16.4324 21.221 17.4078C21.221 18.4082 21.9296 19.1335 23.0717 19.1335H25.8562C26.423 19.1335 26.7398 19.4002 26.7398 19.9171C26.7398 20.3923 26.423 20.7091 25.8562 20.7091H21.3127V21.7678H25.8562Z" fill="url(#paint21_linear_203_12)"/>
<defs>
<linearGradient id="paint0_linear_203_12" x1="185.636" y1="8.69877" x2="185.636" y2="16.4154" gradientUnits="userSpaceOnUse">
<stop stop-color="#FFAF48"/>
<stop offset="1" stop-color="#FE813A"/>
</linearGradient>
<linearGradient id="paint1_linear_203_12" x1="185.636" y1="8.69877" x2="185.636" y2="16.4154" gradientUnits="userSpaceOnUse">
<stop stop-color="#FFAF48"/>
<stop offset="1" stop-color="#FE813A"/>
</linearGradient>
<linearGradient id="paint2_linear_203_12" x1="185.636" y1="8.69877" x2="185.636" y2="16.4154" gradientUnits="userSpaceOnUse">
<stop stop-color="#FFAF48"/>
<stop offset="1" stop-color="#FE813A"/>
</linearGradient>
<linearGradient id="paint3_linear_203_12" x1="185.636" y1="8.69877" x2="185.636" y2="16.4154" gradientUnits="userSpaceOnUse">
<stop stop-color="#FFAF48"/>
<stop offset="1" stop-color="#FE813A"/>
</linearGradient>
<linearGradient id="paint4_linear_203_12" x1="185.636" y1="8.69877" x2="185.636" y2="16.4154" gradientUnits="userSpaceOnUse">
<stop stop-color="#FFAF48"/>
<stop offset="1" stop-color="#FE813A"/>
</linearGradient>
<linearGradient id="paint5_linear_203_12" x1="185.636" y1="8.69877" x2="185.636" y2="16.4154" gradientUnits="userSpaceOnUse">
<stop stop-color="#FFAF48"/>
<stop offset="1" stop-color="#FE813A"/>
</linearGradient>
<linearGradient id="paint6_linear_203_12" x1="185.636" y1="8.69877" x2="185.636" y2="16.4154" gradientUnits="userSpaceOnUse">
<stop stop-color="#FFAF48"/>
<stop offset="1" stop-color="#FE813A"/>
</linearGradient>
<linearGradient id="paint7_linear_203_12" x1="185.636" y1="8.69877" x2="185.636" y2="16.4154" gradientUnits="userSpaceOnUse">
<stop stop-color="#FFAF48"/>
<stop offset="1" stop-color="#FE813A"/>
</linearGradient>
<linearGradient id="paint8_linear_203_12" x1="59.9004" y1="16.4039" x2="59.9004" y2="8.42293" gradientUnits="userSpaceOnUse">
<stop stop-color="#7A7A7A"/>
<stop offset="1" stop-color="#A8A8A8"/>
</linearGradient>
<linearGradient id="paint9_linear_203_12" x1="59.9004" y1="16.4039" x2="59.9004" y2="8.42293" gradientUnits="userSpaceOnUse">
<stop stop-color="#7A7A7A"/>
<stop offset="1" stop-color="#A8A8A8"/>
</linearGradient>
<linearGradient id="paint10_linear_203_12" x1="59.9004" y1="16.4039" x2="59.9004" y2="8.42293" gradientUnits="userSpaceOnUse">
<stop stop-color="#7A7A7A"/>
<stop offset="1" stop-color="#A8A8A8"/>
</linearGradient>
<linearGradient id="paint11_linear_203_12" x1="59.9004" y1="16.4039" x2="59.9004" y2="8.42293" gradientUnits="userSpaceOnUse">
<stop stop-color="#7A7A7A"/>
<stop offset="1" stop-color="#A8A8A8"/>
</linearGradient>
<linearGradient id="paint12_linear_203_12" x1="59.9004" y1="16.4039" x2="59.9004" y2="8.42293" gradientUnits="userSpaceOnUse">
<stop stop-color="#7A7A7A"/>
<stop offset="1" stop-color="#A8A8A8"/>
</linearGradient>
<linearGradient id="paint13_linear_203_12" x1="59.9004" y1="16.4039" x2="59.9004" y2="8.42293" gradientUnits="userSpaceOnUse">
<stop stop-color="#7A7A7A"/>
<stop offset="1" stop-color="#A8A8A8"/>
</linearGradient>
<linearGradient id="paint14_linear_203_12" x1="59.9004" y1="16.4039" x2="59.9004" y2="8.42293" gradientUnits="userSpaceOnUse">
<stop stop-color="#7A7A7A"/>
<stop offset="1" stop-color="#A8A8A8"/>
</linearGradient>
<linearGradient id="paint15_linear_203_12" x1="31.6181" y1="5.53761" x2="31.6181" y2="19.1299" gradientUnits="userSpaceOnUse">
<stop stop-color="#FFAF48"/>
<stop offset="1" stop-color="#FE813A"/>
</linearGradient>
<linearGradient id="paint16_linear_203_12" x1="13.4964" y1="4.62228" x2="13.4964" y2="12.1323" gradientUnits="userSpaceOnUse">
<stop stop-color="#FFAF48"/>
<stop offset="1" stop-color="#FE813A"/>
</linearGradient>
<linearGradient id="paint17_linear_203_12" x1="13.4964" y1="4.62228" x2="13.4964" y2="12.1323" gradientUnits="userSpaceOnUse">
<stop stop-color="#FFAF48"/>
<stop offset="1" stop-color="#FE813A"/>
</linearGradient>
<linearGradient id="paint18_linear_203_12" x1="8.44821" y1="20.7827" x2="8.44821" y2="17.0428" gradientUnits="userSpaceOnUse">
<stop stop-color="#7A7A7A"/>
<stop offset="1" stop-color="#A8A8A8"/>
</linearGradient>
<linearGradient id="paint19_linear_203_12" x1="8.44821" y1="20.7827" x2="8.44821" y2="17.0428" gradientUnits="userSpaceOnUse">
<stop stop-color="#7A7A7A"/>
<stop offset="1" stop-color="#A8A8A8"/>
</linearGradient>
<linearGradient id="paint20_linear_203_12" x1="8.44821" y1="20.7827" x2="8.44821" y2="17.0428" gradientUnits="userSpaceOnUse">
<stop stop-color="#7A7A7A"/>
<stop offset="1" stop-color="#A8A8A8"/>
</linearGradient>
<linearGradient id="paint21_linear_203_12" x1="8.44821" y1="20.7827" x2="8.44821" y2="17.0428" gradientUnits="userSpaceOnUse">
<stop stop-color="#7A7A7A"/>
<stop offset="1" stop-color="#A8A8A8"/>
</linearGradient>
</defs>
</svg>
