<svg width="569" height="50" viewBox="0 0 569 50" fill="none" xmlns="http://www.w3.org/2000/svg">
<path d="M357.069 40C362.845 40 365.657 36.542 365.657 31.906C365.657 26.548 362.655 23.926 357.069 23.926H344.415C342.287 23.926 340.957 22.672 340.957 20.582C340.957 18.492 342.249 17.2 344.453 17.2H364.289V12.374H344.453C338.943 12.374 335.941 15.68 335.941 20.126C335.941 24.686 339.171 27.992 344.377 27.992H357.069C359.653 27.992 361.097 29.208 361.097 31.564C361.097 33.73 359.653 35.174 357.069 35.174H336.359V40H357.069Z" fill="url(#paint0_linear_33_514)"/>
<path d="M394.494 40V35.174H374.582V17.2H394.456V12.374H369.794V40H394.494ZM393.43 27.992V23.926H378.116V27.992H393.43Z" fill="url(#paint1_linear_33_514)"/>
<path d="M426.216 40V35.174H411.244C406.266 35.174 402.656 31.336 402.656 26.13C402.656 20.886 406.304 17.2 411.244 17.2H426.216V12.374H411.244C403.53 12.374 397.83 17.77 397.83 25.902C397.83 33.92 403.53 40 411.244 40H426.216Z" fill="url(#paint2_linear_33_514)"/>
<path d="M454.834 27.802C454.834 33.35 452.364 35.63 444.764 35.63C437.164 35.63 434.694 33.35 434.694 27.802V12.374H429.716V27.802C429.716 36.352 433.972 40.38 444.612 40.38C455.328 40.38 459.546 36.352 459.546 27.802V12.374H454.834V27.802Z" fill="url(#paint3_linear_33_514)"/>
<path d="M496.394 40L488.072 31.602C491.644 30.234 493.772 27.004 493.772 22.444C493.772 16.288 490.048 12.374 483.74 12.374H463.904V40H468.692V17.2H483.74C487.046 17.2 489.022 18.948 489.022 22.52C489.022 26.092 487.198 28.068 483.74 28.068H472.226V32.324H482.562L489.554 40H496.394Z" fill="url(#paint4_linear_33_514)"/>
<path d="M503.99 40V12.374H499.164V40H503.99Z" fill="url(#paint5_linear_33_514)"/>
<path d="M522.709 40V17.2H533.197V12.374H507.395V17.2H517.883V40H522.709Z" fill="url(#paint6_linear_33_514)"/>
<path d="M553.972 40V29.512L568.678 12.374H562.522L551.73 25.104L540.976 12.374H534.478L549.146 29.512V40H553.972Z" fill="url(#paint7_linear_33_514)"/>
<path d="M110.068 40L94.1464 13.552C93.5764 12.602 92.8924 11.994 91.8284 11.994C90.7644 11.994 90.0424 12.602 89.4724 13.552L73.5884 40H79.0984L91.6384 18.796L97.7944 29.132H89.3204L87.0404 33.046H100.112L104.254 40H110.068Z" fill="url(#paint8_linear_33_514)"/>
<path d="M129.04 40C136.83 40 142.492 33.92 142.492 25.902C142.492 17.884 136.83 12.374 129.04 12.374H113.042V40H129.04ZM117.83 35.174V17.2H129.04C134.018 17.2 137.666 20.924 137.666 26.13C137.666 31.336 134.018 35.174 129.04 35.174H117.83Z" fill="url(#paint9_linear_33_514)"/>
<path d="M156.789 38.822C157.359 39.772 158.081 40.38 159.145 40.38C160.133 40.38 160.893 39.772 161.463 38.822L177.385 12.374H171.837L159.335 33.654L146.795 12.374H140.905L156.789 38.822Z" fill="url(#paint10_linear_33_514)"/>
<path d="M206.404 40L190.482 13.552C189.912 12.602 189.228 11.994 188.164 11.994C187.1 11.994 186.378 12.602 185.808 13.552L169.924 40H175.434L187.974 18.796L194.13 29.132H185.656L183.376 33.046H196.448L200.59 40H206.404Z" fill="url(#paint11_linear_33_514)"/>
<path d="M233.28 39.316C233.964 40 234.686 40.342 235.484 40.342C236.89 40.342 237.878 39.278 237.878 37.454V12.146H233.28V32.362L213.786 13.02C213.064 12.298 212.456 12.032 211.734 12.032C210.214 12.032 209.264 13.134 209.264 14.92V40H213.862V19.784L233.28 39.316Z" fill="url(#paint12_linear_33_514)"/>
<path d="M270.142 40V35.174H255.17C250.192 35.174 246.582 31.336 246.582 26.13C246.582 20.886 250.23 17.2 255.17 17.2H270.142V12.374H255.17C247.456 12.374 241.756 17.77 241.756 25.902C241.756 33.92 247.456 40 255.17 40H270.142Z" fill="url(#paint13_linear_33_514)"/>
<path d="M298.76 40V35.174H278.848V17.2H298.722V12.374H274.06V40H298.76ZM297.696 27.992V23.926H282.382V27.992H297.696Z" fill="url(#paint14_linear_33_514)"/>
<path d="M318.892 40C326.682 40 332.344 33.92 332.344 25.902C332.344 17.884 326.682 12.374 318.892 12.374H302.894V40H318.892ZM307.682 35.174V17.2H318.892C323.87 17.2 327.518 20.924 327.518 26.13C327.518 31.336 323.87 35.174 318.892 35.174H307.682Z" fill="url(#paint15_linear_33_514)"/>
<path d="M67.0669 0H69.0634V50H67.0669V0Z" fill="url(#paint16_linear_33_514)"/>
<path d="M15.314 31V8.2H25.802V3.374H0V8.2H10.488V31H15.314Z" fill="url(#paint17_linear_33_514)"/>
<path d="M49.6936 31C55.4696 31 58.2816 27.542 58.2816 22.906C58.2816 17.548 55.2796 14.926 49.6936 14.926H37.0396C34.9116 14.926 33.5816 13.672 33.5816 11.582C33.5816 9.492 34.8736 8.2 37.0776 8.2H56.9136V3.374H37.0776C31.5676 3.374 28.5656 6.68 28.5656 11.126C28.5656 15.686 31.7956 18.992 37.0016 18.992H49.6936C52.2776 18.992 53.7216 20.208 53.7216 22.564C53.7216 24.73 52.2776 26.174 49.6936 26.174H28.9836V31H49.6936Z" fill="url(#paint18_linear_33_514)"/>
<path d="M10.8779 43.364C13.9019 43.364 15.6659 41.42 15.6659 38.594C15.6659 35.732 13.9019 33.914 10.8779 33.914H1.67987V47H3.94787V36.2H10.8779C12.4799 36.2 13.4339 37.154 13.4339 38.666C13.4339 40.142 12.4799 41.15 10.8779 41.15H5.62187V43.364H10.8779Z" fill="url(#paint19_linear_33_514)"/>
<path d="M28.3772 47V44.714H19.5752V33.914H17.2892V47H28.3772Z" fill="url(#paint20_linear_33_514)"/>
<path d="M41.7158 41.222C41.7158 43.85 40.5458 44.93 36.9458 44.93C33.3458 44.93 32.1758 43.85 32.1758 41.222V33.914H29.8178V41.222C29.8178 45.272 31.8338 47.18 36.8738 47.18C41.9498 47.18 43.9478 45.272 43.9478 41.222V33.914H41.7158V41.222Z" fill="url(#paint21_linear_33_514)"/>
<path d="M55.8219 47C58.5579 47 59.8899 45.362 59.8899 43.166C59.8899 40.628 58.4679 39.386 55.8219 39.386H49.8279C48.8199 39.386 48.1899 38.792 48.1899 37.802C48.1899 36.812 48.8019 36.2 49.8459 36.2H59.2419V33.914H49.8459C47.2359 33.914 45.8139 35.48 45.8139 37.586C45.8139 39.746 47.3439 41.312 49.8099 41.312H55.8219C57.0459 41.312 57.7299 41.888 57.7299 43.004C57.7299 44.03 57.0459 44.714 55.8219 44.714H46.0119V47H55.8219Z" fill="url(#paint22_linear_33_514)"/>
<defs>
<linearGradient id="paint0_linear_33_514" x1="452.309" y1="19.0711" x2="452.309" y2="35.5094" gradientUnits="userSpaceOnUse">
<stop stop-color="#FFAF48"/>
<stop offset="1" stop-color="#FE813A"/>
</linearGradient>
<linearGradient id="paint1_linear_33_514" x1="452.309" y1="19.0711" x2="452.309" y2="35.5094" gradientUnits="userSpaceOnUse">
<stop stop-color="#FFAF48"/>
<stop offset="1" stop-color="#FE813A"/>
</linearGradient>
<linearGradient id="paint2_linear_33_514" x1="452.309" y1="19.0711" x2="452.309" y2="35.5094" gradientUnits="userSpaceOnUse">
<stop stop-color="#FFAF48"/>
<stop offset="1" stop-color="#FE813A"/>
</linearGradient>
<linearGradient id="paint3_linear_33_514" x1="452.309" y1="19.0711" x2="452.309" y2="35.5094" gradientUnits="userSpaceOnUse">
<stop stop-color="#FFAF48"/>
<stop offset="1" stop-color="#FE813A"/>
</linearGradient>
<linearGradient id="paint4_linear_33_514" x1="452.309" y1="19.0711" x2="452.309" y2="35.5094" gradientUnits="userSpaceOnUse">
<stop stop-color="#FFAF48"/>
<stop offset="1" stop-color="#FE813A"/>
</linearGradient>
<linearGradient id="paint5_linear_33_514" x1="452.309" y1="19.0711" x2="452.309" y2="35.5094" gradientUnits="userSpaceOnUse">
<stop stop-color="#FFAF48"/>
<stop offset="1" stop-color="#FE813A"/>
</linearGradient>
<linearGradient id="paint6_linear_33_514" x1="452.309" y1="19.0711" x2="452.309" y2="35.5094" gradientUnits="userSpaceOnUse">
<stop stop-color="#FFAF48"/>
<stop offset="1" stop-color="#FE813A"/>
</linearGradient>
<linearGradient id="paint7_linear_33_514" x1="452.309" y1="19.0711" x2="452.309" y2="35.5094" gradientUnits="userSpaceOnUse">
<stop stop-color="#FFAF48"/>
<stop offset="1" stop-color="#FE813A"/>
</linearGradient>
<linearGradient id="paint8_linear_33_514" x1="147.182" y1="35.4433" x2="147.182" y2="18.1649" gradientUnits="userSpaceOnUse">
<stop stop-color="#7A7A7A"/>
<stop offset="1" stop-color="#A8A8A8"/>
</linearGradient>
<linearGradient id="paint9_linear_33_514" x1="147.182" y1="35.4433" x2="147.182" y2="18.1649" gradientUnits="userSpaceOnUse">
<stop stop-color="#7A7A7A"/>
<stop offset="1" stop-color="#A8A8A8"/>
</linearGradient>
<linearGradient id="paint10_linear_33_514" x1="147.182" y1="35.4433" x2="147.182" y2="18.1649" gradientUnits="userSpaceOnUse">
<stop stop-color="#7A7A7A"/>
<stop offset="1" stop-color="#A8A8A8"/>
</linearGradient>
<linearGradient id="paint11_linear_33_514" x1="147.182" y1="35.4433" x2="147.182" y2="18.1649" gradientUnits="userSpaceOnUse">
<stop stop-color="#7A7A7A"/>
<stop offset="1" stop-color="#A8A8A8"/>
</linearGradient>
<linearGradient id="paint12_linear_33_514" x1="147.182" y1="35.4433" x2="147.182" y2="18.1649" gradientUnits="userSpaceOnUse">
<stop stop-color="#7A7A7A"/>
<stop offset="1" stop-color="#A8A8A8"/>
</linearGradient>
<linearGradient id="paint13_linear_33_514" x1="147.182" y1="35.4433" x2="147.182" y2="18.1649" gradientUnits="userSpaceOnUse">
<stop stop-color="#7A7A7A"/>
<stop offset="1" stop-color="#A8A8A8"/>
</linearGradient>
<linearGradient id="paint14_linear_33_514" x1="147.182" y1="35.4433" x2="147.182" y2="18.1649" gradientUnits="userSpaceOnUse">
<stop stop-color="#7A7A7A"/>
<stop offset="1" stop-color="#A8A8A8"/>
</linearGradient>
<linearGradient id="paint15_linear_33_514" x1="147.182" y1="35.4433" x2="147.182" y2="18.1649" gradientUnits="userSpaceOnUse">
<stop stop-color="#7A7A7A"/>
<stop offset="1" stop-color="#A8A8A8"/>
</linearGradient>
<linearGradient id="paint16_linear_33_514" x1="68.0651" y1="11.9565" x2="68.0651" y2="41.3043" gradientUnits="userSpaceOnUse">
<stop stop-color="#FFAF48"/>
<stop offset="1" stop-color="#FE813A"/>
</linearGradient>
<linearGradient id="paint17_linear_33_514" x1="29.1408" y1="9.98022" x2="29.1408" y2="26.1955" gradientUnits="userSpaceOnUse">
<stop stop-color="#FFAF48"/>
<stop offset="1" stop-color="#FE813A"/>
</linearGradient>
<linearGradient id="paint18_linear_33_514" x1="29.1408" y1="9.98022" x2="29.1408" y2="26.1955" gradientUnits="userSpaceOnUse">
<stop stop-color="#FFAF48"/>
<stop offset="1" stop-color="#FE813A"/>
</linearGradient>
<linearGradient id="paint19_linear_33_514" x1="18.2356" y1="44.8729" x2="18.2356" y2="36.7979" gradientUnits="userSpaceOnUse">
<stop stop-color="#7A7A7A"/>
<stop offset="1" stop-color="#A8A8A8"/>
</linearGradient>
<linearGradient id="paint20_linear_33_514" x1="18.2356" y1="44.8729" x2="18.2356" y2="36.7979" gradientUnits="userSpaceOnUse">
<stop stop-color="#7A7A7A"/>
<stop offset="1" stop-color="#A8A8A8"/>
</linearGradient>
<linearGradient id="paint21_linear_33_514" x1="18.2356" y1="44.8729" x2="18.2356" y2="36.7979" gradientUnits="userSpaceOnUse">
<stop stop-color="#7A7A7A"/>
<stop offset="1" stop-color="#A8A8A8"/>
</linearGradient>
<linearGradient id="paint22_linear_33_514" x1="18.2356" y1="44.8729" x2="18.2356" y2="36.7979" gradientUnits="userSpaceOnUse">
<stop stop-color="#7A7A7A"/>
<stop offset="1" stop-color="#A8A8A8"/>
</linearGradient>
</defs>
</svg>
