<svg width="38" height="38" viewBox="0 0 38 38" fill="none" xmlns="http://www.w3.org/2000/svg">
<path fill-rule="evenodd" clip-rule="evenodd" d="M4.11688 18H2.02892C2.44441 10.8373 7.29452 4.86444 13.8744 2.78631C11.368 4.36886 9.43409 5.92957 7.96342 7.75379C5.80008 10.4372 4.70744 13.6005 4.11688 18ZM9.52045 9.00904C10.6683 7.58523 12.1658 6.30879 14.1572 4.98593C14.036 5.2987 13.9198 5.6224 13.8087 5.95585C13.5681 6.67751 13.3479 7.45498 13.1503 8.2806C13.8758 7.94261 14.6402 7.66553 15.4358 7.45663C15.5227 7.15751 15.6128 6.86789 15.706 6.58831C16.2295 5.01786 16.8308 3.81911 17.4499 3.0335C17.4717 3.00592 17.4933 2.979 17.5148 2.95275C17.6743 2.86304 17.836 2.77276 18 2.68186V7.03498C18.33 7.0118 18.6635 7 19 7C19.3365 7 19.67 7.0118 20 7.03498V2.71936C20.1899 2.82956 20.3771 2.93915 20.5616 3.04818C21.1766 3.834 21.7737 5.02761 22.294 6.58831C22.3872 6.86789 22.4773 7.15751 22.5642 7.45663C23.3598 7.66553 24.1242 7.94261 24.8497 8.2806C24.6521 7.45498 24.4319 6.67751 24.1913 5.95585C24.1027 5.69008 24.0109 5.43051 23.9159 5.17773C25.9346 6.5768 27.5027 7.94255 28.6781 9.41149C29.9521 11.0037 30.7863 12.7461 31.2007 14.8477C31.7177 16.1416 32 17.5404 32 19C32 20.6876 31.6226 22.2939 30.9414 23.7508C30.4584 25.5141 29.6578 27.0124 28.5231 28.4107C27.3904 29.8066 25.9116 31.1205 24.0358 32.495C24.0887 32.3468 24.1405 32.1965 24.1913 32.0442C24.4319 31.3225 24.6521 30.545 24.8497 29.7194C24.1242 30.0574 23.3598 30.3345 22.5642 30.5434C22.4773 30.8425 22.3872 31.1321 22.294 31.4117C21.8158 32.8461 21.2727 33.9705 20.7105 34.7531C20.4779 34.9019 20.2411 35.0521 20 35.2037V30.965C19.67 30.9882 19.3365 31 19 31C18.6635 31 18.33 30.9882 18 30.965V35.2439C17.7827 35.1117 17.5697 34.9806 17.3609 34.8505C16.7733 34.0649 16.2044 32.9067 15.706 31.4117C15.6128 31.1321 15.5227 30.8425 15.4358 30.5434C14.6402 30.3345 13.8758 30.0574 13.1503 29.7194C13.3479 30.545 13.5681 31.3225 13.8087 32.0442C13.8675 32.2206 13.9277 32.3942 13.9893 32.565C12 31.0746 10.5621 29.6686 9.4788 28.203C8.65142 27.0837 8.018 25.9124 7.50582 24.6112C6.54449 22.9367 6 21.0271 6 19C6 17.7149 6.21883 16.477 6.62397 15.3163C7.23204 12.6873 8.14287 10.7178 9.52045 9.00904ZM7.87049 29.3919C9.41151 31.4766 11.5354 33.3812 14.5449 35.4103C7.62619 33.5365 2.4584 27.4039 2.02892 20H4.17117C4.90003 23.7225 5.85922 26.6709 7.87049 29.3919ZM0 19C0 29.4934 8.50659 38 19 38C29.4934 38 38 29.4934 38 19C38 8.50659 29.4934 0 19 0C8.50659 0 0 8.50659 0 19ZM35.9711 20C35.5383 27.4608 30.2941 33.6307 23.2952 35.4527C26.163 33.5298 28.4244 31.7064 30.0761 29.6709C32.2631 26.976 33.3434 23.9621 33.4842 20H33.4949H33.5056H33.5163H33.5271H33.5379H33.5487H33.5595H33.5704H33.5812H33.5921H33.6031H33.614H33.625H33.636H33.647H33.6581H33.6691H33.6802H33.6913H33.7024H33.7136H33.7248H33.736H33.7472H33.7584H33.7697H33.7809H33.7922H33.8035H33.8149H33.8262H33.8376H33.8489H33.8603H33.8718H33.8832H33.8946H33.9061H33.9176H33.9291H33.9406H33.9521H33.9637H33.9752H33.9868H33.9984H34.01H34.0216H34.0333H34.0449H34.0566H34.0682H34.0799H34.0916H34.1033H34.115H34.1267H34.1385H34.1502H34.162H34.1738H34.1855H34.1973H34.2091H34.2209H34.2328H34.2446H34.2564H34.2683H34.2801H34.292H34.3038H34.3157H34.3276H34.3395H34.3514H34.3633H34.3752H34.3871H34.399H34.4109H34.4229H34.4348H34.4467H34.4587H34.4706H34.4825H34.4945H34.5064H34.5184H34.5303H34.5423H34.5543H34.5662H34.5782H34.5901H34.6021H34.6141H34.626H34.638H34.65H34.6619H34.6739H34.6858H34.6978H34.7098H34.7217H34.7337H34.7456H34.7576H34.7695H34.7814H34.7934H34.8053H34.8172H34.8292H34.8411H34.853H34.8649H34.8768H34.8887H34.9006H34.9125H34.9243H34.9362H34.9481H34.9599H34.9718H34.9836H34.9955H35.0073H35.0191H35.0309H35.0427H35.0545H35.0663H35.078H35.0898H35.1015H35.1133H35.125H35.1367H35.1484H35.1601H35.1718H35.1834H35.1951H35.2067H35.2184H35.23H35.2416H35.2532H35.2647H35.2763H35.2878H35.2993H35.3109H35.3223H35.3338H35.3453H35.3567H35.3682H35.3796H35.391H35.4023H35.4137H35.425H35.4364H35.4477H35.4589H35.4702H35.4814H35.4927H35.5039H35.5151H35.5262H35.5374H35.5485H35.5596H35.5707H35.5817H35.5928H35.6038H35.6148H35.6257H35.6367H35.6476H35.6585H35.6694H35.6802H35.691H35.7018H35.7126H35.7234H35.7341H35.7448H35.7555H35.7661H35.7767H35.7873H35.7979H35.8084H35.8189H35.8294H35.8398H35.8503H35.8607H35.871H35.8814H35.8917H35.9019H35.9122H35.9224H35.9326H35.9427H35.9529H35.963H35.9711ZM30.2397 8.16196C28.6619 6.19004 26.5076 4.4426 23.7794 2.68104C30.5348 4.65624 35.5483 10.7122 35.9711 18H35.963H35.9529H35.9427H35.9326H35.9224H35.9122H35.9019H35.8917H35.8814H35.871H35.8607H35.8503H35.8398H35.8294H35.8189H35.8084H35.7979H35.7873H35.7767H35.7661H35.7555H35.7448H35.7341H35.7234H35.7126H35.7018H35.691H35.6802H35.6694H35.6585H35.6476H35.6367H35.6257H35.6148H35.6038H35.5928H35.5817H35.5707H35.5596H35.5485H35.5374H35.5262H35.5151H35.5039H35.4927H35.4814H35.4702H35.4589H35.4477H35.4364H35.425H35.4137H35.4023H35.391H35.3796H35.3682H35.3567H35.3453H35.3338H35.3223H35.3109H35.2993H35.2878H35.2763H35.2647H35.2532H35.2416H35.23H35.2184H35.2067H35.1951H35.1834H35.1718H35.1601H35.1484H35.1367H35.125H35.1133H35.1015H35.0898H35.078H35.0663H35.0545H35.0427H35.0309H35.0191H35.0073H34.9955H34.9836H34.9718H34.9599H34.9481H34.9362H34.9243H34.9125H34.9006H34.8887H34.8768H34.8649H34.853H34.8411H34.8292H34.8172H34.8053H34.7934H34.7814H34.7695H34.7576H34.7456H34.7337H34.7217H34.7098H34.6978H34.6858H34.6739H34.6619H34.65H34.638H34.626H34.6141H34.6021H34.5901H34.5782H34.5662H34.5543H34.5423H34.5303H34.5184H34.5064H34.4945H34.4825H34.4706H34.4587H34.4467H34.4348H34.4229H34.4109H34.399H34.3871H34.3752H34.3633H34.3514H34.3395H34.3276H34.3157H34.3038H34.292H34.2801H34.2683H34.2564H34.2446H34.2328H34.2209H34.2091H34.1973H34.1855H34.1738H34.162H34.1502H34.1385H34.1267H34.115H34.1033H34.0916H34.0799H34.0682H34.0566H34.0449H34.0333H34.0216H34.01H33.9984H33.9868H33.9752H33.9637H33.9521H33.9406H33.9291H33.9176H33.9061H33.8946H33.8832H33.8718H33.8603H33.8489H33.8376H33.8262H33.8149H33.8035H33.7922H33.7809H33.7697H33.7584H33.7472H33.736H33.7248H33.7136H33.7024H33.6913H33.6802H33.6691H33.6581H33.647H33.636H33.625H33.614H33.6031H33.5921H33.5812H33.5704H33.5595H33.5487H33.5379H33.5271H33.5163H33.5082C33.4601 14.0022 32.4298 10.899 30.2397 8.16196Z" fill="url(#paint0_linear_101_6)"/>
<path d="M24 24H26C27.1046 24 28 23.1046 28 22V18C28 16.8954 27.1046 16 26 16H12C10.8954 16 10 16.8954 10 18V22C10 23.1046 10.8954 24 12 24H14M16 28H22C23.1046 28 24 27.1046 24 26V22C24 20.8954 23.1046 20 22 20H16C14.8954 20 14 20.8954 14 22V26C14 27.1046 14.8954 28 16 28ZM24 16V12C24 10.8954 23.1046 10 22 10H16C14.8954 10 14 10.8954 14 12V16H24Z" stroke="url(#paint1_linear_101_6)" stroke-width="2" stroke-linecap="round" stroke-linejoin="round"/>
<defs>
<linearGradient id="paint0_linear_101_6" x1="38" y1="6.33333" x2="4.22222" y2="32.7222" gradientUnits="userSpaceOnUse">
<stop stop-color="#FFAF48"/>
<stop offset="1" stop-color="#FE813A"/>
</linearGradient>
<linearGradient id="paint1_linear_101_6" x1="28" y1="13" x2="12" y2="25.5" gradientUnits="userSpaceOnUse">
<stop stop-color="#FFAF48"/>
<stop offset="1" stop-color="#FE813A"/>
</linearGradient>
</defs>
</svg>
