<svg width="38" height="38" viewBox="0 0 38 38" fill="none" xmlns="http://www.w3.org/2000/svg">
<path d="M15.6493 3.63462C16.5021 0.121793 21.4979 0.121795 22.3507 3.63462C22.9016 5.90386 25.5015 6.98075 27.4956 5.7657C30.5826 3.88478 34.1152 7.41741 32.2343 10.5044C31.0193 12.4985 32.0961 15.0984 34.3654 15.6493C37.8782 16.5021 37.8782 21.4979 34.3654 22.3507C32.0961 22.9016 31.0193 25.5015 32.2343 27.4956C34.1152 30.5826 30.5826 34.1152 27.4956 32.2343C25.5015 31.0193 22.9016 32.0961 22.3507 34.3654C21.4979 37.8782 16.5021 37.8782 15.6493 34.3654C15.0984 32.0961 12.4985 31.0193 10.5044 32.2343C7.41741 34.1152 3.88478 30.5826 5.7657 27.4956C6.98075 25.5015 5.90386 22.9016 3.63462 22.3507C0.121795 21.4979 0.121793 16.5021 3.63462 15.6493C5.90386 15.0984 6.98075 12.4985 5.7657 10.5044C3.88478 7.41741 7.41741 3.88478 10.5044 5.7657C12.4985 6.98075 15.0984 5.90386 15.6493 3.63462Z" stroke="url(#paint0_linear_101_3)" stroke-width="2" stroke-linecap="round" stroke-linejoin="round"/>
<path d="M24 24H26C27.1046 24 28 23.1046 28 22V18C28 16.8954 27.1046 16 26 16H12C10.8954 16 10 16.8954 10 18V22C10 23.1046 10.8954 24 12 24H14M16 28H22C23.1046 28 24 27.1046 24 26V22C24 20.8954 23.1046 20 22 20H16C14.8954 20 14 20.8954 14 22V26C14 27.1046 14.8954 28 16 28ZM24 16V12C24 10.8954 23.1046 10 22 10H16C14.8954 10 14 10.8954 14 12V16H24Z" stroke="url(#paint1_linear_101_3)" stroke-width="2" stroke-linecap="round" stroke-linejoin="round"/>
<defs>
<linearGradient id="paint0_linear_101_3" x1="37" y1="7" x2="5" y2="32" gradientUnits="userSpaceOnUse">
<stop stop-color="#FFAF48"/>
<stop offset="1" stop-color="#FE813A"/>
</linearGradient>
<linearGradient id="paint1_linear_101_3" x1="28" y1="13" x2="12" y2="25.5" gradientUnits="userSpaceOnUse">
<stop stop-color="#FFAF48"/>
<stop offset="1" stop-color="#FE813A"/>
</linearGradient>
</defs>
</svg>
